<svg xmlns="http://www.w3.org/2000/svg" version="1.1" xmlns:xlink="http://www.w3.org/1999/xlink" width="512" height="512" x="0" y="0" viewBox="0 0 2000 2000" style="enable-background:new 0 0 512 512" xml:space="preserve" class=""><g><g data-name="Express food delivery"><path fill="#0c0c0c" d="M978.59 822.15c-152.36 130.71-326.67 221-513.45 266.19 8.7 84.55 38.47 113.09 55.08 126.43 18.27 14.69 42.6 24.91 75 26 128.54 4.29 109.53 103.75 179.82 164.62 70.75 61.29 177.5 44.71 185.65 42.87 127.44-28.75 235-241.77 225.42-524.93z" opacity="1" data-original="#570b7f" class=""></path><g fill="#ffc700"><path d="m701.39 1053.74 6.13 12.4 13.69 1.99-9.91 9.66 2.34 13.64-12.25-6.44-12.24 6.44 2.34-13.64-9.91-9.66 13.69-1.99zM834.13 1154.35l8.77 17.77 19.61 2.85-14.19 13.84 3.35 19.53-17.54-9.22-17.55 9.22 3.35-19.53-14.19-13.84 19.62-2.85zM857.8 958.66l8.13 16.46 18.16 2.64-13.14 12.81 3.1 18.09-16.25-8.54-16.24 8.54 3.1-18.09-13.14-12.81 18.16-2.64zM909.83 1113.48l5.57 11.28 12.45 1.81-9.01 8.77 2.13 12.4-11.14-5.85-11.13 5.85 2.13-12.4-9.01-8.77 12.45-1.81zM815.82 1272.79l4.56 9.23 10.17 1.47-7.36 7.18 1.74 10.14-9.11-4.79-9.1 4.79 1.74-10.14-7.36-7.18 10.17-1.47zM575.96 1122.45l7.43 15.06 16.62 2.41-12.02 11.73 2.83 16.55-14.86-7.82-14.87 7.82 2.84-16.55-12.03-11.73 16.62-2.41zM815.82 1343.37l5.66 11.46 12.65 1.83-9.15 8.93 2.16 12.59-11.32-5.95-11.31 5.95 2.16-12.59-9.15-8.93 12.65-1.83zM797.52 1046.79l4.12 8.35 9.22 1.34-6.67 6.5 1.57 9.18-8.24-4.33-8.24 4.33 1.57-9.18-6.67-6.5 9.22-1.34zM701.39 1181.34l5.02 10.17 11.23 1.63-8.12 7.92 1.91 11.18-10.04-5.28-10.03 5.28 1.91-11.18-8.12-7.92 11.23-1.63zM927.49 1003.35l5.46 11.06 12.2 1.77-8.83 8.61 2.08 12.15-10.91-5.74-10.91 5.74 2.08-12.15-8.83-8.61 12.2-1.77z" fill="#098361" opacity="1" data-original="#ffc700" class=""></path></g><path fill="#a99fa7" d="M1091.11 839.35c1.46 1.16 13.29 10.31 29.13 6.69 16.11-3.68 22.78-17.47 23.54-19.1l-26.17-65-32.11 7.57z" opacity="1" data-original="#ff83df" class=""></path><path fill="#ff59cf" d="m1088.45 781.18-2.68-8.35 33.09-7.8 12.6 31.31a30.1 30.1 0 0 1-15.89 3.78c-17.32-.92-26.5-17.75-27.12-18.94z" opacity="1" data-original="#ff59cf" class=""></path><circle cx="1096.07" cy="733.94" r="39.2" fill="#a99fa7" opacity="1" data-original="#ff83df" class=""></circle><path fill="#a99fa7" d="M1132.9 720.67c2.39 7.18 4.33 13.38 5.8 18.26 4.25 14.06 4.94 17.92 4.65 22.62-.19 3.05-.55 9-3.81 14.25-7.73 12.57-27.59 15-41.34 11.87-14.88-3.4-23.85-13.59-27.26-18 0 0-2-2.74-11.7-22.45 44.2-15.95 27.28-9.85 73.66-26.55z" opacity="1" data-original="#ff83df" class=""></path><path fill="#fff3ff" d="m1128.51 760.54-20 4.1a19 19 0 0 0 12.16 3.74c1.92-.14 4.47-.33 6.24-2.37a7.61 7.61 0 0 0 1.6-5.47z" opacity="1" data-original="#fff3ff" class=""></path><path fill="#a99fa7" d="M1100.4 837.14c-84.32-17.4-156.61-64.69-207.78-133.1q-26-103.89-51.94-207.78l-63.6 12.88c-1.05 17.28-2 42.37-1.16 72.59 1.8 62.66 3.44 119.93 28.75 177.7 17.19 39.25 38.08 62.22 75.49 103.37A749.65 749.65 0 0 0 1016 980a388.7 388.7 0 0 0 84.4-142.86zM1142.61 827.4c51.29-48.21 85.9-110.57 100.64-181.8l-58.44-191.55 42.19-19.47a660.09 660.09 0 0 1 50.72 75.88c25.6 44.7 43.56 88.25 49.92 109.17 34 111.84-58.49 252-74.67 276-47.17-4.09-86.47-30.13-110.36-68.23z" opacity="1" data-original="#ff83df" class=""></path><path fill="#fff3ff" d="M1003 869.61a766.87 766.87 0 0 1-61.69 396.07c140 76.58 299.27 64.16 428.54-16.23q-50.31-218.76-116.85-444.77c-132.47 31.17-97 23.72-161.88 34.67z" opacity="1" data-original="#fff3ff" class=""></path><path fill="#0c0c0c" d="M1443.21 1756.47q-12.33 63-24.65 126c124.42 6.54 247.21-20 360.36-77.92-24.33-34.93-47.63-45.64-64.93-48.69-38.21-6.75-61.59 21.35-110.38 9.73-8.68-2.06-32.2-7.66-35.71-22.72-1.45-6.2.93-12.14 3.25-16.23zM480.32 1524.19 371 1398.06s-109.32 84.09-147.16 243.86c0 0 54.66 12.61 92.5-33.64s79.89-33.63 79.89-33.63z" opacity="1" data-original="#570b7f" class=""></path><path fill="#262626" d="M960.8 1217.59a491.85 491.85 0 0 0-51.94 80.56c-29.6 57.57-39.62 105.44-45.45 129.86-12.59 52.66-37.29 128.32-90.91 224l-327.94-202.84-74.76 149.52c22.87 20 58.05 49.42 103.24 81.88 163.07 117.12 279.59 200.44 391.6 178 96.81-19.39 164.54-127.73 300-344.4 43.52-69.6 75.86-129.51 97.19-171.06l-90-93.66z" opacity="1" data-original="#8f00cd" class=""></path><path fill="#262626" d="M1340.64 1135.82c167.65-69.3 251.4-104.12 305.18-71.42 158.19 96.19-35.23 651.92-47.82 687.37l-199.36 46.28c10-158.61 44-313.93 103.24-462.8-198.7 153.32-385.15 211.06-463.16 144.7-23.83-20.26-38.65-53-39-84.41-1.15-118.31 203.62-202.96 340.92-259.72z" opacity="1" data-original="#8f00cd" class=""></path><path fill="#fff3ff" d="M1110.28 840.41c50.18-32.44 91.53-80.11 117.48-142.4a289.58 289.58 0 0 1 110.36 78.32L1274 904.49c-85.13-35.86-48.38-21.36-163.72-64.08z" opacity="1" data-original="#fff3ff" class=""></path><path fill="#fff3ff" d="m950.45 765-71.57 121.69 138.84 117.48s106.8-89 113.92-167.32c0 0-130.99-33.28-181.19-71.85z" opacity="1" data-original="#fff3ff" class=""></path><path fill="#fff3ff" d="M982.12 893.81c-4.7 135.71-30.08 235.27-53.4 302.6-4.14 12-64.08 170.88-64.08 170.88.4 0 145.93 81.92 235-7.12s124.6-167.32 238.52-224.28l-131.72-96.12z" opacity="1" data-original="#fff3ff" class=""></path><path fill="#0b764d" d="M641.66 459.16 652.78 526l618.84-66.81q61.16-98.15 122.29-196.29l-14.82-71-155.64 151.44z" opacity="1" data-original="#00c1d7" class=""></path><path fill="#010801" d="M830.65 240.49 641.66 459.15l607.73-72.88 129.7-194.37z" opacity="1" data-original="#00e4e0" class=""></path><path fill="#0b764d" d="m670.3 325 7.63 67.3 621.48-34.49q68.13-96.87 136.27-193.72l-15-67.58-163.34 143.15z" opacity="1" data-original="#00c1d7" class=""></path><path fill="#0c0c0c" d="M870.42 116.49 670.3 325l606.7-30.62 143.65-197.85z" opacity="1" data-original="#570b7f" class=""></path><path fill="#ff9100" d="M808 343.19s109.37-5 173.43 30.09 103.43 92 127.66 77.92 65-171.29 48.7-222.92-97.33-64.38-172.48-45.61-107.38 36.27-155.61 60.58S735 327 808 343.19z" opacity="1" data-original="#ff9100" class=""></path><path fill="#00e40e" d="M919.35 224.4s-50.54 15.6-54.42 46.66-26.49 17.9-40.46 32.27-33.41 33.82-17.86 41.59 46.65 3.89 58.32 15.55 11.66 42.77 23.32 46.65 11.66-38.87 23.33-46.65S931 379.91 966 387.69s46.66 19.43 77.76 38.87 50.54 46.65 77.75 27.22 58.31-182.72 50.54-217.71-171.05-46.65-252.7-11.67z" opacity="1" data-original="#f7e00b" class=""></path><circle cx="1014.6" cy="265.22" r="21.38" fill="#6e6e6e" opacity="1" data-original="#e524ff" class=""></circle><ellipse cx="938.79" cy="329.37" fill="#6e6e6e" rx="27.21" ry="19.44" opacity="1" data-original="#e524ff" class=""></ellipse><circle cx="1074.86" cy="368.25" r="23.33" fill="#6e6e6e" opacity="1" data-original="#e524ff" class=""></circle><circle cx="1111.79" cy="269.11" r="21.38" fill="#6e6e6e" opacity="1" data-original="#e524ff" class=""></circle><path fill="#0b764d" d="m634.25 207.28 7.41 55.59 604.02-7.41 181.41-129.99-7.24-29.36-210.24 95.79z" opacity="1" data-original="#00c1d7" class=""></path><path fill="#010801" d="M871.41 107.23 634.25 207.28l600.32-14.82 185.28-96.35z" opacity="1" data-original="#00e4e0" class=""></path><path fill="#0c0c0c" d="M936.11 287.8c-4.82-.24-10.49.38-14.91-2-3.41-1.82-6.59-5.79-5.33-9.84 1.17-3.77-6.43-4.94-7.44-1.69-2.29 7.37 3.32 16.86 18.18 18.42 7.63.8 21.29-1.29 23.51 9 .72 3.3 8.39 2.7 7.55-1.17-2.05-9.42-13.29-12.31-21.56-12.72zM1011.1 340.65c-2.65-3.38-6-7.45-5.75-12 .11-1.94 1.81-7.48 4.43-6.87 1.6.37 4.12 0 4.85-1.71s-1.14-3.05-2.6-3.39c-9.81-2.28-17.9 8.26-12.79 18.79 2.38 4.92 6.39 8.67 9.21 13.29 2.33 3.82 4.07 9.6.82 13.39-2.8 3.26 4.43 5.49 6.62 2.94 6.78-7.92.42-17.77-4.79-24.44zM1132 319.8c-4.53-2.66-9.76-2.89-14.51-4.87-3.37-1.41-7.18-5.31-5.19-9.17 1.75-3.39-5.87-4.74-7.45-1.68-2.31 4.48.25 9.19 3.66 12.25 7.9 7.09 21.53 3.61 21.72 13.1 0 1.12-.22 3-1.17 3.56-1.76.17-3.61 1.52-3 3.23 1.39 4 11.84 2.39 12-6.2a11.49 11.49 0 0 0-6.06-10.22zM1081 298.64c-.07-1.81-2.18-2.86-3.79-2.82-10.19.24-17.41-12-14.43-20.95 1.25-3.73-6.36-4.92-7.44-1.68-4.16 12.43 5.63 25.65 18 27.69 0 .77 0 1.54.08 2.31.14 3.77 7.89 3.56 7.77.28-.09-1.61-.14-3.22-.19-4.83zM1103.36 391.54c-.78-1.26-3-1.63-4.35-1.39-8.86 1.63-15.56-8.45-11.08-17.46 1.7-3.43-5.91-4.77-7.44-1.68-5.61 11.29 2.57 24.44 16.56 24.66.19 2.05-.86 4.49-2.84 5.11-1.54.49-2.62 2.2-1.52 3.62s3.58 1.69 5.28 1.15a9.54 9.54 0 0 0 5.39-14.01z" opacity="1" data-original="#570b7f" class=""></path><path fill="#199762" d="m800.87 136.99 600.37-31.2-97.71 50.81-622.68 31.02z" opacity="1" data-original="#7df9f3" class=""></path><path fill="#0c0c0c" d="M1369.89 168.45a2 2 0 0 1-1.17-3.62l56.8-41.18a2 2 0 0 1 2.34 3.24c-60.61 43.95-56.98 41.56-57.97 41.56zM1262.25 361.89a2 2 0 0 1-.07-4l35.16-1.32 88.59-125.22a2 2 0 1 1 3.27 2.31c-95.28 134.65-89.19 126.81-90.73 126.87-47.89 1.8-33.47 1.36-36.22 1.36z" opacity="1" data-original="#570b7f" class=""></path><path fill="#0c0c0c" d="M1298.4 360.53a2 2 0 0 1-1.91-1.41l-19.44-62.2a2 2 0 0 1 3.82-1.19l19.44 62.2a2 2 0 0 1-1.91 2.6zM1271.18 461.61a2 2 0 0 1-1.9-1.4L1246 386.34a2 2 0 0 1 3.81-1.2l23.28 73.86a2 2 0 0 1-1.91 2.61zM1072.07 752.85s7.06-8.44-.74-24 11.64-15.57 19.42-15.58 3.86-11.67 11.63-15.57 26.11 14.18 26.11 14.18c-1-4.1-5.16-18.32-18.35-25.86-14.17-8.1-29.33-3.09-38.88.07-3.85 1.27-42 14.42-46.58 42.84-4.21 26.07 20.75 59.19 63 66.65 2.71-16.52-3.61-31.99-15.61-42.73z" opacity="1" data-original="#570b7f" class=""></path><ellipse cx="1071.1" cy="757.88" fill="#a99fa7" rx="13.96" ry="18.14" transform="rotate(-41.58 1071.679 757.64)" opacity="1" data-original="#ff83df" class=""></ellipse><path fill="#0c0c0c" d="M1077.17 766.81c-3.48 0-8-3.4-8.13-6.87a4.4 4.4 0 0 1 3.14-4.39c-1.38-1.25-5.19-4.34-5.89-2.62-.39 1 .21 3 .74 4.09a2 2 0 0 1-3.6 1.75c-4.49-9.24 3.55-16 14.51-3a2 2 0 0 1-1.72 3.28 5.32 5.32 0 0 0-3.11.5c0 1.18 2.18 3.15 3.94 3.25.43 0 .74.05.89-.95a2 2 0 0 1 2.27-1.69c3.19.48 1.64 6.65-3.04 6.65z" opacity="1" data-original="#570b7f" class=""></path><path fill="#a99fa7" d="M1140.29 818.28s-31.72-17.61-50.29 6.72c0 0 18 34 38.58 29.19s11.71-35.91 11.71-35.91z" opacity="1" data-original="#ff83df" class=""></path><path fill="#262626" d="M1034.92 764.48s24.72-45 89.31-63.55c-1.22-3.16-9.12-22.66-30.07-30.16-21.21-7.59-39.59 2.93-45.3 6.2-4.58 2.62-25.54 14.61-29.62 40-4.24 26.64 13.68 45.49 15.68 47.51z" opacity="1" data-original="#8f00cd" class=""></path><path fill="#6e6e6e" d="M1130.47 715.2s21.11-13.45 13.31-27.39-48.87 4.65-75.38 40.75c0 0 49.6-34.36 62.07-13.36z" opacity="1" data-original="#e524ff" class=""></path><path fill="#0c0c0c" d="M1021.62 801.51c11 55.42 66.42 85.17 108.85 70.51 34.47-11.92 58.46-52.49 51.41-96.23a42.08 42.08 0 0 0-25.5 28c1.24 22.44-11.3 41.6-30.72 50.89a151.24 151.24 0 0 1-55-34.94c-13.19-13-30.73-19.19-49.04-18.23z" opacity="1" data-original="#570b7f" class=""></path><path fill="#6e6e6e" d="M1088.11 802s-5.93.3-8.69 4.8-8.71 9.73-8.71 12.92 19.6 58 30.67 65.7 24.36-29.14 24.28-30.76S1103.4 844.23 1090 825z" opacity="1" data-original="#e524ff" class=""></path><path fill="#6e6e6e" d="m1131.46 796.34 8.83 21.94a82.52 82.52 0 0 1-14.63 36.41 46.16 46.16 0 0 0 15 12.76c4.78 2.53 12 6.35 16.55 3.63 3.7-2.22 3.65-7.59 3.87-18.87.54-27.17 1.85-46-4.66-48.41a26.07 26.07 0 0 1-7.13-3.14 37.27 37.27 0 0 1-3.91-3.12c-2.22-1.67-6.17-3.03-13.92-1.2z" opacity="1" data-original="#e524ff" class=""></path><circle cx="1130.47" cy="876.82" r="4.81" fill="#6e6e6e" opacity="1" data-original="#e524ff" class=""></circle><circle cx="1135.28" cy="900.39" r="4.81" fill="#6e6e6e" opacity="1" data-original="#e524ff" class=""></circle><path fill="#a99fa7" d="M840.87 501.39c-17.22-20.88-15.32-33.5-24.3-37.36-3.55-1.52-8.35-1.54-11.23.78-5 4-4.78 15.56 3.1 27.49a57.77 57.77 0 0 0-7.55-15.1c-5.21-7.43-8.62-8.45-9.68-8.71-21.67-5.43-2.17 31.63-2.47 30.84-4.56-17.33-12.49-28.83-19.74-28.52a8 8 0 0 0-5.42 2.52c-7 7.62 3.65 29.87 3.65 29.87-.79-2.26-9.1-25.22-18.4-24.92-7.87.26-6.3 8.73-5.12 16 2.9 18 4.45 27.14 9 31.23 3.06 2.73 5.21 2.86 5.79 2.92 6.38.63 11.4-6.66 11.4-6.66s13.14 11.71 18.88-5.28c0 0 14.65 8.81 18.22-3.36 12.72 9.18 29 12.59 39.39 10.69 12.38-2.26 12.48-9.29 29-15.68 8.5-3.28 13.27-3.29 13.94-6.39.85-4-5.75-9.42-12-11.42s-11.79-.37-17.61 1.36a58.2 58.2 0 0 0-18.85 9.7z" opacity="1" data-original="#ff83df" class=""></path><path fill="#0c0c0c" d="m1171.18 1494.85 96-178.84a2 2 0 1 1 3.52 1.89l-96 178.84a2 2 0 0 1-3.52-1.89zM1501.88 1337.25a2 2 0 0 1-1.93-2.52c.22-.81 22.41-81.53 64.73-139.12a2 2 0 1 1 3.22 2.37c-41.87 57-63.87 137-64.09 137.8a2 2 0 0 1-1.93 1.47zM1276.7 888.51a2 2 0 0 1-2-1.65c-12.23-67.83-36.73-84.87-37-85a2 2 0 0 1 2.2-3.34c1.06.7 26.13 17.84 38.72 87.67a2 2 0 0 1-1.92 2.32zM977.11 971.81a2 2 0 0 1-1.92-2.57c.19-.65 19.35-66 15.93-114.41a2 2 0 0 1 4-.28c3.47 49.18-15.89 115.17-16.09 115.83a2 2 0 0 1-1.92 1.43zM779.83 527.81a15.25 15.25 0 0 1-5-.85 2 2 0 0 1 1.43-3.74s4.09 1.5 7.06-.28c1.84-1.12 3-3.36 3.42-6.68a2 2 0 0 1 3.4-1.16c1.39 1.38 5.78 4.77 9.38 4 2.29-.51 4.16-2.73 5.55-6.57a2 2 0 0 1 3.35-.68c0 .05 5.3 5.57 10.65 5.16 2.56-.22 4.85-1.87 6.82-4.89a2 2 0 0 1 3.43.12c.19.34 4.95 8.61 17.19 9.66a2 2 0 1 1-.34 4c-10.19-.87-16-6.12-18.64-9.3-5.61 6.42-13.12 5.45-19.85 0-3.89 7.67-10.65 8.48-17.69 3.58-1.58 5.09-5.35 7.63-10.16 7.63zM769.89 523.8a2 2 0 0 1-1.95-1.57l-5.73-26.07a2 2 0 0 1 3.91-.86l5.73 26.07a2 2 0 0 1-1.96 2.43z" opacity="1" data-original="#570b7f" class=""></path><path fill="#0c0c0c" d="M788.76 518.52a2 2 0 0 1-2-1.9c-.87-17.46-6.7-34.06-6.76-34.23a2 2 0 0 1 3.77-1.34 139.85 139.85 0 0 1 7 35.37 2 2 0 0 1-2.01 2.1zM807 515.16a2 2 0 0 1-2-2c-.1-16.19-6-35.2-6-35.39a2 2 0 0 1 3.82-1.19c.25.8 6.09 19.76 6.19 36.55a2 2 0 0 1-2.01 2.03zM831.09 505.91a2 2 0 0 1-2-2 134 134 0 0 0-1.91-19.78 2 2 0 0 1 3.94-.7 135.71 135.71 0 0 1 2 20.48 2 2 0 0 1-2.03 2z" opacity="1" data-original="#570b7f" class=""></path><path fill="#6e6e6e" d="M411.76 1445.09s-48.45 43.44-87.64 33.57c0 0-20.22 9.29-80.09 164.78 0 0-9.54 8.43-20.19-1.52 0 0 28.54-167.67 147.16-243.86zM310.33 1615s-11-19.59 7.47-48.63 77.46-18.58 77.46-18.58l-12.65 25.31s-40.19.2-72.28 41.9zM1433.33 1807s65.6 3 91.73 52.89c0 0 188.74-30.93 239-74 0 0 15.85 2 14.89 18.67 0 0-162.85 102.56-360.36 77.92zM1526 1768.48s35.92 27.55 62.64 27 41.81-27 41.81-27a184 184 0 0 1-51.85-12.21z" opacity="1" data-original="#e524ff" class=""></path><path fill="#0c0c0c" d="M1245.68 257.46a2 2 0 0 1-2-1.66l-11.11-63a2 2 0 1 1 3.93-.7l11.12 63a2 2 0 0 1-1.94 2.36z" opacity="1" data-original="#570b7f" class=""></path></g></g></svg>