<?xml version="1.0" encoding="UTF-8" standalone="no"?>
<!-- Created with Inkscape (http://www.inkscape.org/) -->

<svg
   version="1.1"
   id="svg363"
   xml:space="preserve"
   width="682.66669"
   height="682.66669"
   viewBox="0 0 682.66669 682.66669"
   xmlns="http://www.w3.org/2000/svg"
   xmlns:svg="http://www.w3.org/2000/svg"><defs
     id="defs367"><clipPath
       clipPathUnits="userSpaceOnUse"
       id="clipPath377"><path
         d="M 0,512 H 512 V 0 H 0 Z"
         id="path375" /></clipPath></defs><g
     id="g369"
     transform="matrix(1.3333333,0,0,-1.3333333,0,682.66667)"><g
       id="g371"><g
         id="g373"
         clip-path="url(#clipPath377)"><g
           id="g379"
           transform="translate(133,142.007)"><path
             d="m 0,0 42.804,112.387 c 0.875,2.139 3.902,2.142 4.781,0.005 L 90,0"
             style="fill:none;stroke:#000000;stroke-width:20;stroke-linecap:round;stroke-linejoin:round;stroke-miterlimit:10;stroke-dasharray:none;stroke-opacity:1"
             id="path381" /></g><g
           id="g383"
           transform="translate(146.3493,169.9974)"><path
             d="M 0,0 H 63.517"
             style="fill:none;stroke:#000000;stroke-width:20;stroke-linecap:round;stroke-linejoin:round;stroke-miterlimit:10;stroke-dasharray:none;stroke-opacity:1"
             id="path385" /></g><g
           id="g387"
           transform="translate(267,414.5)"><path
             d="M 0,0 H 134"
             style="fill:none;stroke:#000000;stroke-width:20;stroke-linecap:round;stroke-linejoin:round;stroke-miterlimit:10;stroke-dasharray:none;stroke-opacity:1"
             id="path389" /></g><g
           id="g391"
           transform="translate(358.127,414.5)"><path
             d="m 0,0 v -9.685 c 0,-50.46 -37.56,-93.03 -87.627,-99.315 v 0"
             style="fill:none;stroke:#000000;stroke-width:20;stroke-linecap:round;stroke-linejoin:round;stroke-miterlimit:10;stroke-dasharray:none;stroke-opacity:1"
             id="path393" /></g><g
           id="g395"
           transform="translate(309.873,414.5)"><path
             d="m 0,0 v -9.685 c 0,-50.46 37.56,-93.03 87.627,-99.315 v 0"
             style="fill:none;stroke:#000000;stroke-width:20;stroke-linecap:round;stroke-linejoin:round;stroke-miterlimit:10;stroke-dasharray:none;stroke-opacity:1"
             id="path397" /></g><g
           id="g399"
           transform="translate(334,414.5)"><path
             d="M 0,0 V 36"
             style="fill:none;stroke:#000000;stroke-width:20;stroke-linecap:round;stroke-linejoin:round;stroke-miterlimit:10;stroke-dasharray:none;stroke-opacity:1"
             id="path401" /></g><g
           id="g403"
           transform="translate(289.0004,502)"><path
             d="M 0,0 H -79.962 C -103.731,0 -123,-19.269 -123,-43.039 v -161.922 c 0,-23.77 19.269,-43.039 43.038,-43.039 H 95 l 74.961,-64 v 64 0 c 23.77,0 43.039,19.269 43.039,43.039 V -43.039 C 213,-19.269 193.731,0 169.961,0 H 90"
             style="fill:none;stroke:#000000;stroke-width:20;stroke-linecap:round;stroke-linejoin:round;stroke-miterlimit:10;stroke-dasharray:none;stroke-opacity:1"
             id="path405" /></g><g
           id="g407"
           transform="translate(346,254)"><path
             d="M 0,0 V -136.961 C 0,-160.731 -19.269,-180 -43.039,-180 H -218 l -74.961,-64 v 64 0 c -23.77,0 -43.039,19.269 -43.039,43.039 V 24.961 C -336,48.731 -316.731,68 -292.961,68 H -180"
             style="fill:none;stroke:#000000;stroke-width:20;stroke-linecap:round;stroke-linejoin:round;stroke-miterlimit:10;stroke-dasharray:none;stroke-opacity:1"
             id="path409" /></g><g
           id="g411"
           transform="translate(334,502)"><path
             d="M 0,0 V 0"
             style="fill:none;stroke:#000000;stroke-width:20;stroke-linecap:round;stroke-linejoin:round;stroke-miterlimit:10;stroke-dasharray:none;stroke-opacity:1"
             id="path413" /></g></g></g></g></svg>
