<svg width="257" height="225" viewBox="0 0 257 225" fill="none" xmlns="http://www.w3.org/2000/svg">
<path d="M85.1818 84.2147C79.4848 76.947 76.6364 67.3781 76.6364 55.5072C76.6364 42.4253 80.0303 32.3111 86.8182 25.1645C92.7575 18.7447 100.636 15.5348 110.455 15.5348C120.515 15.5348 128.273 18.6842 133.727 24.9828C138.455 30.4336 140.818 37.7013 140.818 46.786V65.3186C140.818 74.5241 138.091 81.8527 132.636 87.3035C127.182 92.6334 119.727 95.3588 110.273 95.4796H87.1818C73.8485 95.4796 67.1818 102.384 67.1818 116.193V146.354L55 152.713V115.829C55 105.775 57.9697 97.9025 63.9091 92.2091C69.2425 87.0009 76.3334 84.3355 85.1818 84.2147ZM128.636 64.2285V47.8761C128.636 33.7041 122.576 26.618 110.455 26.618C103.545 26.618 98.1515 29.1617 94.2727 34.2491C90.5152 39.3365 88.6364 46.362 88.6364 55.3255C88.6364 64.4102 90.4545 71.4962 94.0909 76.5836C97.7273 81.671 102.758 84.2147 109.182 84.2147C122.152 84.2147 128.636 77.5529 128.636 64.2285Z" fill="white"/>
<path d="M184.818 84.2147C190.516 76.947 193.364 67.3781 193.364 55.5072C193.364 42.4253 189.97 32.3111 183.182 25.1645C177.243 18.7447 169.364 15.5348 159.546 15.5348C149.485 15.5348 141.727 18.6842 136.273 24.9828C131.546 30.4336 129.182 37.7013 129.182 46.786V65.3186C129.182 74.5241 131.909 81.8527 137.364 87.3034C142.818 92.6334 150.273 95.3588 159.727 95.4796H182.818C196.152 95.4796 202.818 102.384 202.818 116.193V146.354L215 152.713V115.829C215 105.775 212.03 97.9025 206.091 92.2091C200.757 87.0009 193.666 84.3355 184.818 84.2147ZM141.364 64.2285V47.8761C141.364 33.7041 147.425 26.618 159.546 26.618C166.455 26.618 171.848 29.1617 175.727 34.2491C179.485 39.3365 181.364 46.362 181.364 55.3255C181.364 64.4102 179.546 71.4962 175.909 76.5836C172.273 81.671 167.243 84.2147 160.818 84.2147C147.848 84.2147 141.364 77.5529 141.364 64.2285Z" fill="white"/>
<path d="M55.9092 18.7144L58.3637 13.4453L67.3637 11.81C66.3335 10.4776 65.8183 8.90295 65.8183 7.08602C65.8183 5.0874 66.4244 3.42191 67.6365 2.08947C68.9092 0.696519 70.4546 0 72.2728 0C74.1516 0 75.6971 0.666174 76.9092 1.99862C78.1819 3.33106 78.8183 5.0268 78.8183 7.08602C78.8183 9.32693 78.1819 11.265 76.9092 12.9002C75.6365 14.5354 74.0001 15.5045 72.0001 15.8073L55.9092 18.7144ZM72.4546 10.2656C73.7274 9.41777 74.3637 8.29727 74.3637 6.90433C74.3637 5.14799 73.6667 4.26978 72.2728 4.26978C70.9395 4.26978 70.2728 5.14799 70.2728 6.90433C70.2728 8.47897 71.0001 9.59947 72.4546 10.2656Z" fill="white"/>
<path d="M49.205 162.47C53.625 162.47 57.1783 163.835 59.865 166.565C62.595 169.252 63.96 173.022 63.96 177.875V199H54.86V179.11C54.86 176.293 54.145 174.148 52.715 172.675C51.285 171.158 49.335 170.4 46.865 170.4C44.395 170.4 42.4233 171.158 40.95 172.675C39.52 174.148 38.805 176.293 38.805 179.11V199H29.705V179.11C29.705 176.293 28.99 174.148 27.56 172.675C26.13 171.158 24.18 170.4 21.71 170.4C19.1967 170.4 17.2033 171.158 15.73 172.675C14.3 174.148 13.585 176.293 13.585 179.11V199H4.485V162.99H13.585V167.345C14.755 165.828 16.25 164.637 18.07 163.77C19.9333 162.903 21.97 162.47 24.18 162.47C26.9967 162.47 29.51 163.077 31.72 164.29C33.93 165.46 35.6417 167.15 36.855 169.36C38.025 167.28 39.715 165.612 41.925 164.355C44.1783 163.098 46.605 162.47 49.205 162.47ZM88.5854 199.585C85.1187 199.585 81.9987 198.827 79.2254 197.31C76.452 195.75 74.2637 193.562 72.6604 190.745C71.1004 187.928 70.3204 184.678 70.3204 180.995C70.3204 177.312 71.122 174.062 72.7254 171.245C74.372 168.428 76.6037 166.262 79.4204 164.745C82.237 163.185 85.3787 162.405 88.8454 162.405C92.312 162.405 95.4537 163.185 98.2704 164.745C101.087 166.262 103.297 168.428 104.9 171.245C106.547 174.062 107.37 177.312 107.37 180.995C107.37 184.678 106.525 187.928 104.835 190.745C103.189 193.562 100.935 195.75 98.0754 197.31C95.2587 198.827 92.0954 199.585 88.5854 199.585ZM88.5854 191.655C90.232 191.655 91.7704 191.265 93.2004 190.485C94.6737 189.662 95.8437 188.448 96.7104 186.845C97.577 185.242 98.0104 183.292 98.0104 180.995C98.0104 177.572 97.1004 174.95 95.2804 173.13C93.5037 171.267 91.3154 170.335 88.7154 170.335C86.1154 170.335 83.927 171.267 82.1504 173.13C80.417 174.95 79.5504 177.572 79.5504 180.995C79.5504 184.418 80.3954 187.062 82.0854 188.925C83.8187 190.745 85.9854 191.655 88.5854 191.655ZM130.556 170.465H124.251V199H115.021V170.465H110.926V162.99H115.021V161.17C115.021 156.75 116.277 153.5 118.791 151.42C121.304 149.34 125.096 148.365 130.166 148.495V156.165C127.956 156.122 126.417 156.49 125.551 157.27C124.684 158.05 124.251 159.458 124.251 161.495V162.99H130.556V170.465ZM169.928 180.215C169.928 181.515 169.841 182.685 169.668 183.725H143.343C143.559 186.325 144.469 188.362 146.073 189.835C147.676 191.308 149.648 192.045 151.988 192.045C155.368 192.045 157.773 190.593 159.203 187.69H169.018C167.978 191.157 165.984 194.017 163.038 196.27C160.091 198.48 156.473 199.585 152.183 199.585C148.716 199.585 145.596 198.827 142.823 197.31C140.093 195.75 137.948 193.562 136.388 190.745C134.871 187.928 134.113 184.678 134.113 180.995C134.113 177.268 134.871 173.997 136.388 171.18C137.904 168.363 140.028 166.197 142.758 164.68C145.488 163.163 148.629 162.405 152.183 162.405C155.606 162.405 158.661 163.142 161.348 164.615C164.078 166.088 166.179 168.19 167.653 170.92C169.169 173.607 169.928 176.705 169.928 180.215ZM160.503 177.615C160.459 175.275 159.614 173.412 157.968 172.025C156.321 170.595 154.306 169.88 151.923 169.88C149.669 169.88 147.763 170.573 146.203 171.96C144.686 173.303 143.754 175.188 143.408 177.615H160.503ZM210.045 180.215C210.045 181.515 209.958 182.685 209.785 183.725H183.46C183.677 186.325 184.587 188.362 186.19 189.835C187.793 191.308 189.765 192.045 192.105 192.045C195.485 192.045 197.89 190.593 199.32 187.69H209.135C208.095 191.157 206.102 194.017 203.155 196.27C200.208 198.48 196.59 199.585 192.3 199.585C188.833 199.585 185.713 198.827 182.94 197.31C180.21 195.75 178.065 193.562 176.505 190.745C174.988 187.928 174.23 184.678 174.23 180.995C174.23 177.268 174.988 173.997 176.505 171.18C178.022 168.363 180.145 166.197 182.875 164.68C185.605 163.163 188.747 162.405 192.3 162.405C195.723 162.405 198.778 163.142 201.465 164.615C204.195 166.088 206.297 168.19 207.77 170.92C209.287 173.607 210.045 176.705 210.045 180.215ZM200.62 177.615C200.577 175.275 199.732 173.412 198.085 172.025C196.438 170.595 194.423 169.88 192.04 169.88C189.787 169.88 187.88 170.573 186.32 171.96C184.803 173.303 183.872 175.188 183.525 177.615H200.62ZM214.347 180.865C214.347 177.225 215.062 173.997 216.492 171.18C217.965 168.363 219.959 166.197 222.472 164.68C224.985 163.163 227.78 162.405 230.857 162.405C233.197 162.405 235.429 162.925 237.552 163.965C239.675 164.962 241.365 166.305 242.622 167.995V150.9H251.852V199H242.622V193.67C241.495 195.447 239.914 196.877 237.877 197.96C235.84 199.043 233.479 199.585 230.792 199.585C227.759 199.585 224.985 198.805 222.472 197.245C219.959 195.685 217.965 193.497 216.492 190.68C215.062 187.82 214.347 184.548 214.347 180.865ZM242.687 180.995C242.687 178.785 242.254 176.9 241.387 175.34C240.52 173.737 239.35 172.523 237.877 171.7C236.404 170.833 234.822 170.4 233.132 170.4C231.442 170.4 229.882 170.812 228.452 171.635C227.022 172.458 225.852 173.672 224.942 175.275C224.075 176.835 223.642 178.698 223.642 180.865C223.642 183.032 224.075 184.938 224.942 186.585C225.852 188.188 227.022 189.423 228.452 190.29C229.925 191.157 231.485 191.59 233.132 191.59C234.822 191.59 236.404 191.178 237.877 190.355C239.35 189.488 240.52 188.275 241.387 186.715C242.254 185.112 242.687 183.205 242.687 180.995Z" fill="white"/>
</svg>
