<svg width="109" height="54" viewBox="0 0 109 54" fill="none" xmlns="http://www.w3.org/2000/svg">
<path d="M78.1682 27.0902C76.8151 25.3641 76.1386 23.0915 76.1386 20.2721C76.1386 17.1652 76.9447 14.7631 78.5568 13.0657C79.9674 11.541 81.8386 10.7787 84.1705 10.7787C86.5599 10.7787 88.4023 11.5267 89.6977 13.0226C90.8205 14.3172 91.3818 16.0432 91.3818 18.2008V22.6023C91.3818 24.7886 90.7341 26.5292 89.4386 27.8237C88.1432 29.0896 86.3727 29.7369 84.1273 29.7656H78.6432C75.4765 29.7656 73.8932 31.4054 73.8932 34.6849V41.8482L71 43.3585V34.5986C71 32.2108 71.7053 30.341 73.1159 28.9888C74.3826 27.7519 76.0667 27.1189 78.1682 27.0902ZM88.4886 22.3434V18.4598C88.4886 15.0939 87.0492 13.411 84.1705 13.411C82.5295 13.411 81.2485 14.0151 80.3273 15.2233C79.4349 16.4316 78.9886 18.1001 78.9886 20.229C78.9886 22.3866 79.4205 24.0695 80.2841 25.2778C81.1477 26.486 82.3424 27.0902 83.8682 27.0902C86.9485 27.0902 88.4886 25.508 88.4886 22.3434Z" fill="#17A933"/>
<path d="M101.832 27.0902C103.185 25.3641 103.861 23.0915 103.861 20.2721C103.861 17.1652 103.055 14.7631 101.443 13.0657C100.033 11.541 98.1613 10.7787 95.8295 10.7787C93.4401 10.7787 91.5977 11.5267 90.3023 13.0226C89.1795 14.3172 88.6182 16.0432 88.6182 18.2008V22.6023C88.6182 24.7886 89.2659 26.5292 90.5613 27.8237C91.8568 29.0896 93.6273 29.7369 95.8727 29.7656H101.357C104.524 29.7656 106.107 31.4054 106.107 34.6849V41.8482L109 43.3585V34.5986C109 32.2108 108.295 30.341 106.884 28.9888C105.617 27.7519 103.933 27.1189 101.832 27.0902ZM91.5113 22.3434V18.4598C91.5113 15.0939 92.9508 13.411 95.8295 13.411C97.4704 13.411 98.7514 14.0151 99.6727 15.2233C100.565 16.4316 101.011 18.1001 101.011 20.229C101.011 22.3866 100.58 24.0695 99.7159 25.2778C98.8523 26.486 97.6576 27.0902 96.1318 27.0902C93.0514 27.0902 91.5113 25.508 91.5113 22.3434Z" fill="#17A933"/>
<path d="M71.2161 11.5338L71.799 10.2824L73.9365 9.89399C73.6918 9.57754 73.5695 9.20356 73.5695 8.77204C73.5695 8.29737 73.7134 7.90182 74.0013 7.58536C74.3036 7.25453 74.6706 7.08911 75.1024 7.08911C75.5486 7.08911 75.9157 7.24733 76.2036 7.56378C76.5058 7.88024 76.657 8.28298 76.657 8.77204C76.657 9.30426 76.5058 9.76454 76.2036 10.1529C75.9013 10.5413 75.5127 10.7714 75.0377 10.8433L71.2161 11.5338ZM75.1456 9.5272C75.4479 9.32583 75.599 9.05971 75.599 8.72889C75.599 8.31176 75.4335 8.10318 75.1024 8.10318C74.7858 8.10318 74.6274 8.31176 74.6274 8.72889C74.6274 9.10287 74.8002 9.36898 75.1456 9.5272Z" fill="#17A933"/>
<path d="M7 19.7C8.2 19.5 9.48333 19.4 10.85 19.4C14.55 19.4 17.5333 20.5167 19.8 22.75C21.8333 24.8167 22.85 27.4333 22.85 30.6V38.25C22.85 38.6833 22.8167 39.0833 22.75 39.45H24.15V43H23.4L22 41.25H21.85C21.5833 41.5833 21.2833 41.8833 20.95 42.15C20.15 42.7167 19.2833 43 18.35 43H1.95V39.45H16.75C17.9833 39.45 18.6 38.8167 18.6 37.55V31.2C18.6 28.8333 17.8833 26.8667 16.45 25.3C14.9167 23.7 12.55 22.8833 9.35 22.85C8.41667 22.85 7.63333 22.9167 7 23.05V19.7ZM36.9758 20V38.25C36.9758 38.65 36.9258 39.05 36.8258 39.45H39.4758V43H37.5258L36.0758 41.25H35.9258C35.0258 42.4167 33.8591 43 32.4258 43H23.7258V39.45H30.8258C31.3591 39.45 31.7924 39.2833 32.1258 38.95C32.5258 38.5833 32.7258 38.1167 32.7258 37.55V20H36.9758ZM28.4258 48.2C29.0924 48.2 29.6591 48.4333 30.1258 48.9C30.6258 49.4 30.8758 49.9833 30.8758 50.65C30.8758 51.35 30.6258 51.9333 30.1258 52.4C29.6591 52.9 29.0924 53.15 28.4258 53.15C27.7591 53.15 27.1758 52.9 26.6758 52.4C26.2091 51.9333 25.9758 51.35 25.9758 50.65C25.9758 49.9833 26.2091 49.4 26.6758 48.9C27.1758 48.4333 27.7591 48.2 28.4258 48.2ZM34.4758 48.2C35.1758 48.2 35.7591 48.4333 36.2258 48.9C36.7258 49.4 36.9758 49.9833 36.9758 50.65C36.9758 51.35 36.7258 51.9333 36.2258 52.4C35.7591 52.9 35.1758 53.15 34.4758 53.15C33.8091 53.15 33.2258 52.9 32.7258 52.4C32.2591 51.9333 32.0258 51.35 32.0258 50.65C32.0258 49.9833 32.2591 49.4 32.7258 48.9C33.2258 48.4333 33.8091 48.2 34.4758 48.2ZM58.5566 9C59.2566 9 59.84 9.25 60.3066 9.75C60.8066 10.2167 61.0566 10.7833 61.0566 11.45C61.0566 12.15 60.8066 12.75 60.3066 13.25C59.84 13.7167 59.2566 13.95 58.5566 13.95C57.89 13.95 57.3066 13.7167 56.8066 13.25C56.34 12.75 56.1066 12.15 56.1066 11.45C56.1066 10.7833 56.34 10.2167 56.8066 9.75C57.3066 9.25 57.89 9 58.5566 9ZM50.3066 39.45C49.04 38.2833 48.1066 36.8333 47.5066 35.1C47.04 33.7 46.8066 32.3167 46.8066 30.95C46.8066 27.3833 47.8733 24.55 50.0066 22.45C52.1066 20.4167 54.9566 19.4 58.5566 19.4C61.29 19.4 63.4733 20.1 65.1066 21.5C67.0066 23.1 67.99 25.4333 68.0566 28.5V38.25C68.0566 39.55 67.6066 40.6667 66.7066 41.6C65.84 42.5333 64.79 43 63.5566 43H39.1066V39.45H50.3066ZM63.7566 28.5C63.7566 26.6333 63.2066 25.2 62.1066 24.2C61.24 23.4 60.0566 23 58.5566 23C55.79 23 53.7566 23.9667 52.4566 25.9C51.5233 27.2333 51.0566 28.9667 51.0566 31.1C51.09 33.3667 51.8233 35.3 53.2566 36.9C54.7566 38.6 56.74 39.45 59.2066 39.45H61.9066C63.14 39.45 63.7566 38.8167 63.7566 37.55V28.5Z" fill="#17A933"/>
</svg>
