<svg width="158" height="60" viewBox="0 0 158 60" fill="none" xmlns="http://www.w3.org/2000/svg">
<path d="M54.56 44.36C52.48 44.36 50.6 43.8933 48.92 42.96C47.24 42 45.92 40.6667 44.96 38.96C44 37.2267 43.52 35.2267 43.52 32.96C43.52 30.72 44.0133 28.7333 45 27C45.9867 25.2667 47.3333 23.9333 49.04 23C50.7467 22.0667 52.6533 21.6 54.76 21.6C56.8667 21.6 58.7733 22.0667 60.48 23C62.1867 23.9333 63.5333 25.2667 64.52 27C65.5067 28.7333 66 30.72 66 32.96C66 35.2 65.4933 37.1867 64.48 38.92C63.4667 40.6533 62.08 42 60.32 42.96C58.5867 43.8933 56.6667 44.36 54.56 44.36ZM54.56 40.4C55.7333 40.4 56.8267 40.12 57.84 39.56C58.88 39 59.72 38.16 60.36 37.04C61 35.92 61.32 34.56 61.32 32.96C61.32 31.36 61.0133 30.0133 60.4 28.92C59.7867 27.8 58.9733 26.96 57.96 26.4C56.9467 25.84 55.8533 25.56 54.68 25.56C53.5067 25.56 52.4133 25.84 51.4 26.4C50.4133 26.96 49.6267 27.8 49.04 28.92C48.4533 30.0133 48.16 31.36 48.16 32.96C48.16 35.3333 48.76 37.1733 49.96 38.48C51.1867 39.76 52.72 40.4 54.56 40.4ZM79.7478 25.68H75.6678V44H71.0678V25.68H68.4678V21.96H71.0678V20.4C71.0678 17.8667 71.7345 16.0267 73.0678 14.88C74.4278 13.7067 76.5478 13.12 79.4278 13.12V16.92C78.0411 16.92 77.0678 17.1867 76.5078 17.72C75.9478 18.2267 75.6678 19.12 75.6678 20.4V21.96H79.7478V25.68ZM103.989 32.44C103.989 33.2667 103.936 34.0133 103.829 34.68H86.9891C87.1224 36.44 87.7757 37.8533 88.9491 38.92C90.1224 39.9867 91.5624 40.52 93.2691 40.52C95.7224 40.52 97.4557 39.4933 98.4691 37.44H103.389C102.722 39.4667 101.509 41.1333 99.7491 42.44C98.0157 43.72 95.8557 44.36 93.2691 44.36C91.1624 44.36 89.2691 43.8933 87.5891 42.96C85.9357 42 84.6291 40.6667 83.6691 38.96C82.7357 37.2267 82.2691 35.2267 82.2691 32.96C82.2691 30.6933 82.7224 28.7067 83.6291 27C84.5624 25.2667 85.8557 23.9333 87.5091 23C89.1891 22.0667 91.1091 21.6 93.2691 21.6C95.3491 21.6 97.2024 22.0533 98.8291 22.96C100.456 23.8667 101.722 25.1467 102.629 26.8C103.536 28.4267 103.989 30.3067 103.989 32.44ZM99.2291 31C99.2024 29.32 98.6024 27.9733 97.4291 26.96C96.2557 25.9467 94.8024 25.44 93.0691 25.44C91.4957 25.44 90.1491 25.9467 89.0291 26.96C87.9091 27.9467 87.2424 29.2933 87.0291 31H99.2291ZM128.677 32.44C128.677 33.2667 128.623 34.0133 128.517 34.68H111.677C111.81 36.44 112.463 37.8533 113.637 38.92C114.81 39.9867 116.25 40.52 117.957 40.52C120.41 40.52 122.143 39.4933 123.157 37.44H128.077C127.41 39.4667 126.197 41.1333 124.437 42.44C122.703 43.72 120.543 44.36 117.957 44.36C115.85 44.36 113.957 43.8933 112.277 42.96C110.623 42 109.317 40.6667 108.357 38.96C107.423 37.2267 106.957 35.2267 106.957 32.96C106.957 30.6933 107.41 28.7067 108.317 27C109.25 25.2667 110.543 23.9333 112.197 23C113.877 22.0667 115.797 21.6 117.957 21.6C120.037 21.6 121.89 22.0533 123.517 22.96C125.143 23.8667 126.41 25.1467 127.317 26.8C128.223 28.4267 128.677 30.3067 128.677 32.44ZM123.917 31C123.89 29.32 123.29 27.9733 122.117 26.96C120.943 25.9467 119.49 25.44 117.757 25.44C116.183 25.44 114.837 25.9467 113.717 26.96C112.597 27.9467 111.93 29.2933 111.717 31H123.917ZM131.644 32.88C131.644 30.6667 132.097 28.7067 133.004 27C133.937 25.2933 135.191 23.9733 136.764 23.04C138.364 22.08 140.137 21.6 142.084 21.6C143.524 21.6 144.937 21.92 146.324 22.56C147.737 23.1733 148.857 24 149.684 25.04V14.4H154.284V44H149.684V40.68C148.937 41.7467 147.897 42.6267 146.564 43.32C145.257 44.0133 143.751 44.36 142.044 44.36C140.124 44.36 138.364 43.88 136.764 42.92C135.191 41.9333 133.937 40.5733 133.004 38.84C132.097 37.08 131.644 35.0933 131.644 32.88ZM149.684 32.96C149.684 31.44 149.364 30.12 148.724 29C148.111 27.88 147.297 27.0267 146.284 26.44C145.271 25.8533 144.177 25.56 143.004 25.56C141.831 25.56 140.737 25.8533 139.724 26.44C138.711 27 137.884 27.84 137.244 28.96C136.631 30.0533 136.324 31.36 136.324 32.88C136.324 34.4 136.631 35.7333 137.244 36.88C137.884 38.0267 138.711 38.9067 139.724 39.52C140.764 40.1067 141.857 40.4 143.004 40.4C144.177 40.4 145.271 40.1067 146.284 39.52C147.297 38.9333 148.111 38.08 148.724 36.96C149.364 35.8133 149.684 34.48 149.684 32.96Z" fill="#17A933"/>
<path d="M7.92273 32.1065C6.42726 30.1987 5.67955 27.6869 5.67955 24.5708C5.67955 21.1368 6.57045 18.4818 8.35227 16.6058C9.91136 14.9206 11.9795 14.078 14.5568 14.078C17.1977 14.078 19.2341 14.9047 20.6659 16.5581C21.9068 17.9889 22.5273 19.8967 22.5273 22.2814V27.1463C22.5273 29.5627 21.8114 31.4864 20.3795 32.9173C18.9477 34.3164 16.9909 35.0318 14.5091 35.0635H8.44773C4.94772 35.0635 3.19773 36.8759 3.19773 40.5007V48.4179L0 50.0872V40.4053C0 37.7661 0.779546 35.6995 2.33864 34.205C3.73864 32.8379 5.60001 32.1382 7.92273 32.1065ZM19.3295 26.8601V22.5676C19.3295 18.8474 17.7386 16.9874 14.5568 16.9874C12.7432 16.9874 11.3273 17.6551 10.3091 18.9905C9.32274 20.326 8.82955 22.1701 8.82955 24.5231C8.82955 26.9078 9.30682 28.7679 10.2614 30.1033C11.2159 31.4388 12.5364 32.1065 14.2227 32.1065C17.6273 32.1065 19.3295 30.3578 19.3295 26.8601Z" fill="#17A933"/>
<path d="M34.0772 32.1065C35.5727 30.1987 36.3204 27.6869 36.3204 24.5708C36.3204 21.1368 35.4296 18.4818 33.6477 16.6058C32.0886 14.9206 30.0204 14.078 27.4431 14.078C24.8021 14.078 22.7658 14.9047 21.334 16.5581C20.0931 17.9889 19.4727 19.8967 19.4727 22.2814V27.1463C19.4727 29.5627 20.1886 31.4864 21.6204 32.9173C23.0522 34.3164 25.009 35.0318 27.4908 35.0635H33.5522C37.0523 35.0635 38.8022 36.8759 38.8022 40.5007V48.4179L41.9999 50.0873V40.4053C41.9999 37.7661 41.2203 35.6995 39.6613 34.205C38.2612 32.8379 36.3999 32.1382 34.0772 32.1065ZM22.6704 26.8601V22.5676C22.6704 18.8474 24.2614 16.9874 27.4431 16.9874C29.2567 16.9874 30.6726 17.6551 31.6908 18.9905C32.6771 20.326 33.1704 22.1701 33.1704 24.5231C33.1704 26.9078 32.6931 28.7679 31.7386 30.1033C30.784 31.4388 29.4636 32.1065 27.7772 32.1065C24.3726 32.1065 22.6704 30.3578 22.6704 26.8601Z" fill="#17A933"/>
<path d="M0.23877 14.9125L0.883088 13.5294L3.24559 13.1001C2.97514 12.7504 2.83991 12.337 2.83991 11.8601C2.83991 11.3354 2.999 10.8983 3.31718 10.5485C3.65127 10.1828 4.05695 10 4.53422 10C5.02741 10 5.4331 10.1749 5.75127 10.5246C6.08536 10.8744 6.25241 11.3195 6.25241 11.8601C6.25241 12.4483 6.08536 12.9571 5.75127 13.3863C5.41718 13.8155 4.98763 14.0699 4.46263 14.1494L0.23877 14.9125ZM4.58195 12.6947C4.91604 12.4722 5.08309 12.178 5.08309 11.8124C5.08309 11.3513 4.90013 11.1208 4.53422 11.1208C4.18422 11.1208 4.00922 11.3513 4.00922 11.8124C4.00922 12.2257 4.20013 12.5199 4.58195 12.6947Z" fill="#17A933"/>
</svg>
