<svg height="512pt" viewBox="0 -11 512 512" width="512pt" xmlns="http://www.w3.org/2000/svg"><path d="m245.332031 341.332031h21.335938v149.335938h-21.335938zm0 0"/><path d="m96 298.667969h320v21.332031h-320zm0 0"/><path d="m458.667969 160c-29.410157 0-53.335938-23.925781-53.335938-53.332031 0-29.410157 23.925781-53.335938 53.335938-53.335938 29.40625 0 53.332031 23.925781 53.332031 53.335938 0 29.40625-23.925781 53.332031-53.332031 53.332031zm0-85.332031c-17.644531 0-32 14.355469-32 32 0 17.640625 14.355469 32 32 32 17.640625 0 32-14.359375 32-32 0-17.644531-14.359375-32-32-32zm0 0"/><path d="m352 490.667969c-1.40625 0-2.835938-.269531-4.203125-.867188-5.417969-2.324219-7.925781-8.59375-5.597656-14.003906l32-74.667969c1.671875-3.921875 5.535156-6.460937 9.800781-6.460937h74.667969c17.640625 0 32-14.359375 32-32v-138.667969c0-11.765625-9.570313-21.332031-21.335938-21.332031h-10.664062c-7.488281 0-14.304688 4.949219-23.488281 17.109375-10.304688 13.609375-41.578126 52.007812-42.902344 53.628906-2.039063 2.488281-5.066406 3.925781-8.277344 3.925781h-53.332031c-5.890625 0-10.667969 4.78125-10.667969 10.667969v21.332031c0 5.898438-4.769531 10.667969-10.667969 10.667969-5.898437 0-10.664062-4.769531-10.664062-10.667969v-21.332031c0-17.644531 14.355469-32 32-32h48.253906c8.40625-10.347656 31.0625-38.292969 39.234375-49.097656 9.011719-11.90625 21.746094-25.570313 40.511719-25.570313h10.664062c23.53125 0 42.667969 19.136719 42.667969 42.667969v138.667969c0 29.40625-23.925781 53.332031-53.332031 53.332031h-67.636719l-29.230469 68.203125c-1.726562 4.042969-5.664062 6.464844-9.800781 6.464844zm0 0"/><path d="m309.332031 490.667969c-1.109375 0-2.25-.183594-3.371093-.554688-5.578126-1.855469-8.605469-7.894531-6.738282-13.496093l35.371094-106.121094c5.789062-17.429688 22.066406-29.164063 40.46875-29.164063h30.269531v-32c0-5.898437 4.769531-10.664062 10.667969-10.664062s10.667969 4.765625 10.667969 10.664062v42.667969c0 5.898438-4.769531 10.667969-10.667969 10.667969h-40.9375c-9.195312 0-17.335938 5.855469-20.226562 14.570312l-35.378907 106.132813c-1.496093 4.46875-5.65625 7.296875-10.125 7.296875zm0 0"/><path d="m415.988281 320c-2.226562 0-4.46875-.691406-6.386719-2.132812-4.714843-3.53125-5.675781-10.21875-2.136718-14.921876l32-42.667968c3.53125-4.714844 10.21875-5.664063 14.925781-2.132813 4.714844 3.53125 5.671875 10.21875 2.132813 14.921875l-32 42.667969c-2.082032 2.792969-5.28125 4.265625-8.535157 4.265625zm0 0"/><path d="m53.332031 160c-29.40625 0-53.332031-23.925781-53.332031-53.332031 0-29.410157 23.925781-53.335938 53.332031-53.335938 29.410157 0 53.335938 23.925781 53.335938 53.335938 0 29.40625-23.925781 53.332031-53.335938 53.332031zm0-85.332031c-17.640625 0-32 14.355469-32 32 0 17.640625 14.359375 32 32 32 17.644531 0 32-14.359375 32-32 0-17.644531-14.355469-32-32-32zm0 0"/><path d="m160 490.667969c-4.136719 0-8.074219-2.421875-9.800781-6.464844l-29.230469-68.203125h-67.636719c-29.40625 0-53.332031-23.925781-53.332031-53.332031v-138.667969c0-23.53125 19.136719-42.667969 42.667969-42.667969h10.664062c18.765625 0 31.511719 13.664063 40.503907 25.570313 8.179687 10.804687 30.824218 38.75 39.230468 49.097656h48.265625c17.644531 0 32 14.355469 32 32v21.332031c0 5.898438-4.777343 10.667969-10.664062 10.667969-5.890625 0-10.667969-4.769531-10.667969-10.667969v-21.332031c0-5.886719-4.789062-10.667969-10.667969-10.667969h-53.332031c-3.210938 0-6.238281-1.4375-8.265625-3.925781-1.324219-1.621094-32.609375-40.019531-42.902344-53.640625-9.195312-12.148437-16-17.097656-23.5-17.097656h-10.664062c-11.765625 0-21.335938 9.566406-21.335938 21.332031v138.667969c0 17.640625 14.359375 32 32 32h74.667969c4.265625 0 8.128906 2.539062 9.800781 6.460937l32 74.667969c2.328125 5.410156-.191406 11.679687-5.597656 14.003906-1.367187.597657-2.796875.867188-4.203125.867188zm0 0"/><path d="m202.667969 490.667969c-4.46875 0-8.628907-2.828125-10.125-7.296875l-35.371094-106.125c-2.898437-8.710938-11.039063-14.578125-20.234375-14.578125h-40.9375c-5.886719 0-10.667969-4.769531-10.667969-10.667969v-42.667969c0-5.898437 4.78125-10.664062 10.667969-10.664062s10.667969 4.765625 10.667969 10.664062v32h30.269531c18.402344 0 34.667969 11.722657 40.480469 29.164063l35.371093 106.121094c1.867188 5.589843-1.152343 11.640624-6.742187 13.496093-1.128906.371094-2.269531.554688-3.378906.554688zm0 0"/><path d="m96.011719 320c-3.242188 0-6.445313-1.472656-8.546875-4.265625l-32-42.667969c-3.539063-4.703125-2.578125-11.390625 2.136718-14.921875 4.734376-3.53125 11.410157-2.582031 14.933594 2.132813l32 42.667968c3.539063 4.703126 2.578125 11.390626-2.136718 14.921876-1.917969 1.441406-4.167969 2.132812-6.386719 2.132812zm0 0"/><path d="m341.332031 277.332031c-5.898437 0-10.664062-4.765625-10.664062-10.664062v-74.667969c0-23.53125-19.136719-42.667969-42.667969-42.667969h-64c-23.53125 0-42.667969 19.136719-42.667969 42.667969v32c0 5.886719-4.777343 10.667969-10.664062 10.667969-5.890625 0-10.667969-4.78125-10.667969-10.667969v-32c0-35.296875 28.703125-64 64-64h64c35.296875 0 64 28.703125 64 64v74.667969c0 5.898437-4.769531 10.664062-10.667969 10.664062zm0 0"/><path d="m256 106.667969c-29.40625 0-53.332031-23.925781-53.332031-53.335938 0-29.40625 23.925781-53.332031 53.332031-53.332031s53.332031 23.925781 53.332031 53.332031c0 29.410157-23.925781 53.335938-53.332031 53.335938zm0-85.335938c-17.644531 0-32 14.359375-32 32 0 17.644531 14.355469 32 32 32s32-14.355469 32-32c0-17.640625-14.355469-32-32-32zm0 0"/><path d="m245.332031 170.667969h21.335938v21.332031h-21.335938zm0 0"/></svg>