<?xml version="1.0" encoding="iso-8859-1"?>
<!-- Generator: Adobe Illustrator 19.0.0, SVG Export Plug-In . SVG Version: 6.00 Build 0)  -->
<svg version="1.1" id="Capa_1" xmlns="http://www.w3.org/2000/svg" xmlns:xlink="http://www.w3.org/1999/xlink" x="0px" y="0px"
	 viewBox="0 0 512.002 512.002" style="enable-background:new 0 0 512.002 512.002;" xml:space="preserve">
<g>
	<g>
		<path d="M485.747,301.559c3.21-1.054,5.971-3.226,7.772-6.233c2.558-4.27,2.722-9.452,0.437-13.862c0,0,0-0.001-0.001-0.001
			c0-0.001-0.001-0.002-0.001-0.003c-0.02-0.039-0.042-0.076-0.062-0.114c-0.413-0.793-0.838-1.577-1.277-2.35
			c-0.153-0.269-0.315-0.53-0.471-0.797c-0.315-0.538-0.628-1.076-0.956-1.604c-0.191-0.308-0.392-0.608-0.587-0.912
			c-0.305-0.475-0.608-0.951-0.922-1.417c-0.215-0.319-0.439-0.63-0.659-0.945c-0.308-0.441-0.615-0.882-0.931-1.315
			c-0.234-0.319-0.475-0.631-0.714-0.946c-0.316-0.416-0.631-0.832-0.954-1.24c-0.251-0.316-0.508-0.625-0.763-0.936
			c-0.325-0.395-0.65-0.79-0.982-1.177c-0.265-0.309-0.535-0.612-0.805-0.916c-0.335-0.377-0.671-0.753-1.014-1.123
			c-0.278-0.3-0.561-0.596-0.844-0.892c-0.346-0.36-0.693-0.719-1.046-1.071c-0.291-0.292-0.586-0.579-0.882-0.865
			c-0.356-0.344-0.715-0.685-1.078-1.021c-0.303-0.281-0.608-0.559-0.916-0.834c-0.368-0.329-0.739-0.655-1.113-0.976
			c-0.313-0.269-0.627-0.535-0.944-0.798c-0.381-0.316-0.765-0.626-1.152-0.934c-0.321-0.256-0.643-0.51-0.968-0.76
			c-0.394-0.302-0.792-0.598-1.192-0.893c-0.329-0.242-0.657-0.484-0.99-0.721c-0.407-0.289-0.82-0.571-1.233-0.852
			c-0.335-0.227-0.668-0.456-1.006-0.678c-0.423-0.278-0.852-0.546-1.281-0.815c-0.338-0.212-0.674-0.426-1.016-0.633
			c-0.443-0.268-0.893-0.525-1.341-0.783c-0.335-0.193-0.668-0.39-1.006-0.578c-0.473-0.263-0.953-0.513-1.432-0.766
			c-0.323-0.17-0.643-0.345-0.968-0.511c-0.524-0.266-1.056-0.519-1.587-0.773c-0.288-0.138-0.573-0.282-0.863-0.416
			c-0.673-0.311-1.354-0.608-2.037-0.899c-0.154-0.066-0.305-0.137-0.46-0.202c-0.845-0.354-1.697-0.693-2.556-1.016
			c-0.188-0.071-0.379-0.133-0.567-0.203c-0.67-0.246-1.341-0.489-2.019-0.717c-0.307-0.103-0.618-0.195-0.926-0.295
			c-0.567-0.182-1.133-0.366-1.706-0.535c-0.347-0.103-0.698-0.195-1.047-0.293c-0.539-0.151-1.077-0.303-1.62-0.443
			c-0.372-0.096-0.746-0.181-1.12-0.272c-0.527-0.127-1.055-0.255-1.586-0.372c-0.386-0.085-0.776-0.161-1.164-0.24
			c-0.524-0.106-1.047-0.212-1.575-0.308c-0.398-0.072-0.799-0.137-1.199-0.204c-0.523-0.087-1.046-0.172-1.572-0.248
			c-0.408-0.059-0.817-0.112-1.227-0.165c-0.524-0.068-1.048-0.133-1.574-0.19c-0.414-0.045-0.83-0.085-1.246-0.123
			c-0.527-0.049-1.055-0.094-1.585-0.133c-0.419-0.03-0.839-0.057-1.26-0.081c-0.53-0.03-1.061-0.055-1.593-0.075
			c-0.425-0.016-0.851-0.029-1.278-0.038c-0.531-0.011-1.062-0.016-1.595-0.017c-0.431-0.001-0.862,0-1.294,0.007
			c-0.533,0.008-1.067,0.023-1.602,0.041c-0.435,0.015-0.869,0.03-1.305,0.051c-0.186,0.009-0.371,0.011-0.557,0.022l-15.598-27.391
			c-2.02-3.546-6.533-4.786-10.082-2.765c-3.548,2.02-4.786,6.535-2.765,10.083l15.025,26.383
			c-12.954,12.507-48.467,51.544-47.034,102.371c-4.575,1.131-9.335,1.381-13.467,1.381H219.503V340.89
			c0-44.976-36.591-81.566-81.567-81.566h-7.947c-4.083,0-7.392,3.309-7.392,7.392s3.31,7.392,7.392,7.392h7.947
			c36.824,0,66.782,29.958,66.782,66.781v11.322H16.75c-0.662,0-1.245-0.331-1.602-0.834c-0.008-0.012-0.019-0.021-0.027-0.033
			c-0.016-0.024-0.026-0.051-0.041-0.076c-0.183-0.299-0.295-0.647-0.295-1.022c0-41.982,34.156-76.138,76.139-76.138h4.669
			c4.083,0,7.392-3.309,7.392-7.392s-3.31-7.392-7.392-7.392h-4.669c-28.14,0-53.334,12.851-70.025,32.991
			c14.908-44.43,55.501-77.174,104.053-80.517c1.25-0.085,2.492-0.149,3.724-0.196c0.204-0.008,0.408-0.017,0.613-0.023
			c1.307-0.044,2.603-0.07,3.872-0.07h113.832l-14.813,40.363c-7.04,19.182-4.413,40.777,7.027,57.765
			c11.355,16.861,29.411,26.921,49.534,27.601c0.75,0.026,1.502,0.039,2.258,0.039h39.708c14.615,0,27.241-10.347,30.133-24.646
			c13.536-50.252-5.695-117.273-16.226-147.789h17.073l15.536,27.281c1.363,2.394,3.86,3.736,6.43,3.736
			c1.24,0,2.497-0.312,3.651-0.969c3.548-2.02,4.786-6.535,2.765-10.082l-11.37-19.966h15.332c7.167,0,12.998-5.83,12.998-12.997
			v-34.214c0-4.032-1.824-7.768-5.004-10.248c-3.18-2.481-7.249-3.342-11.161-2.357l-60.018,15.08l-1.654-2.008
			c-0.176,0.145-0.359,0.28-0.547,0.408c1.081-0.734,1.975-1.747,2.551-2.978c1.207-2.583,0.821-5.63-0.993-7.83l-16.417-19.921
			c-2.447-2.968-6.043-4.664-9.885-4.664c-0.043,0-0.087,0-0.13,0l-31.921,0.321c-6.303,0.026-11.422,5.161-11.422,11.47v7.597
			c0,9.725,7.912,17.637,17.691,17.637l33.394-0.249l7.226,8.772c-1.287,2.369-2.008,5.074-2.008,7.918v12.951l-30.886,5.815
			c-4.012,0.755-6.652,4.62-5.897,8.632c0.668,3.55,3.771,6.026,7.257,6.026c0.453,0,0.914-0.041,1.376-0.129l34.582-6.511
			c1.721,0.934,3.688,1.47,5.778,1.479c9.482,26.332,30.946,94.956,17.564,144.167c-0.049,0.179-0.09,0.36-0.126,0.543
			c-1.443,7.499-8.034,12.942-15.672,12.942h-39.708c-0.584,0-1.166-0.009-1.752-0.03c-15.333-0.518-29.102-8.202-37.776-21.084
			c-8.93-13.261-10.902-29.449-5.41-44.413l18.395-50.125c0.102-0.273,0.186-0.551,0.255-0.831c0.023-0.095,0.037-0.19,0.056-0.285
			c0.039-0.186,0.076-0.373,0.1-0.561c0.014-0.113,0.02-0.225,0.029-0.339c0.014-0.173,0.027-0.344,0.029-0.517
			c0.001-0.117-0.003-0.234-0.007-0.351c-0.003-0.101,0.001-0.202-0.006-0.303c-0.887-24.753-21.572-44.826-46.292-44.826H109.77
			c-9.01,0-16.34,7.33-16.34,16.339c0,9.438,3.634,18.271,9.666,24.979C44.102,213.816,0,266.798,0,329.887v20.364
			c0,0.577,0.029,1.148,0.087,1.71C0.946,360.396,8.091,367,16.75,367h25.656c4.826,35.229,34.808,61.889,71.135,61.889
			S179.85,402.23,184.677,367h164.128c7.515,0,14.143-0.909,19.904-2.683c3.65,36.211,34.306,64.572,71.464,64.572
			c39.607,0,71.829-32.222,71.829-71.829C512,335.19,502.022,314.956,485.747,301.559z M379.523,123.119l12.721-3.196v30.137
			h-12.721V123.119z M278.063,105.353c-1.572,0-2.852-1.279-2.852-2.852v-4.315l27.764-0.279l5.946,7.216L278.063,105.353z
			 M331.515,136.579c0-0.822,0.557-1.536,1.355-1.737l31.869-8.007v23.226h-33.224V136.579z M109.77,173.617h108.848
			c14.264,0,26.556,9.834,30.339,23.111H133.16c-1.314,0-2.622,0.025-3.926,0.062c-0.176,0.005-0.353,0.014-0.529,0.02
			c-1.191,0.039-2.377,0.095-3.56,0.166c-0.07,0.004-0.139,0.005-0.21,0.01c-9.745-2.619-16.72-11.638-16.72-21.814
			C108.215,174.314,108.912,173.617,109.77,173.617z M140.971,367c-4.097,11.255-14.929,19.252-27.431,19.252
			c-12.502,0-23.334-7.997-27.431-19.252H140.971z M113.54,414.104c-28.142,0-51.476-20.148-56.161-47.104H70.72
			c4.546,19.555,22.171,34.036,42.82,34.036c20.648,0,38.273-14.481,42.819-34.036h13.342
			C165.017,393.956,141.682,414.104,113.54,414.104z M378.41,338.591c-0.076,0.16-0.151,0.319-0.23,0.475
			c-0.242,0.485-0.497,0.956-0.768,1.412c-0.029,0.048-0.06,0.092-0.089,0.14c3.519-43.183,36.668-76.34,44.461-83.577
			c0.022-0.002,0.044-0.005,0.066-0.006c0.2-0.016,0.398-0.025,0.597-0.039c0.599-0.043,1.198-0.086,1.795-0.113
			c0.122-0.006,0.244-0.006,0.366-0.011c0.672-0.027,1.344-0.048,2.012-0.055c0.079-0.001,0.157,0.001,0.236,0.001
			c0.709-0.005,1.416-0.001,2.12,0.017c0.061,0.001,0.122,0.005,0.183,0.007c0.72,0.02,1.438,0.05,2.153,0.094
			c0.051,0.003,0.102,0.008,0.153,0.011c0.722,0.046,1.442,0.102,2.159,0.172c0.051,0.005,0.101,0.011,0.151,0.016
			c0.714,0.071,1.426,0.152,2.134,0.247c0.056,0.007,0.111,0.016,0.167,0.024c0.701,0.095,1.399,0.2,2.093,0.318
			c0.061,0.01,0.122,0.022,0.183,0.033c0.686,0.118,1.369,0.247,2.047,0.387c0.07,0.014,0.139,0.03,0.209,0.045
			c0.666,0.14,1.328,0.289,1.987,0.45c0.082,0.02,0.164,0.042,0.247,0.062c0.644,0.16,1.285,0.329,1.921,0.509
			c0.092,0.026,0.184,0.053,0.275,0.08c0.623,0.18,1.243,0.368,1.858,0.566c0.102,0.033,0.203,0.067,0.305,0.1
			c0.601,0.197,1.198,0.402,1.79,0.617c0.114,0.041,0.227,0.084,0.341,0.126c0.576,0.213,1.149,0.434,1.717,0.663
			c0.126,0.051,0.251,0.103,0.377,0.155c0.551,0.227,1.097,0.461,1.64,0.704c0.138,0.062,0.276,0.125,0.414,0.187
			c0.526,0.24,1.048,0.488,1.567,0.742c0.147,0.072,0.294,0.145,0.441,0.219c0.502,0.252,1,0.511,1.495,0.777
			c0.158,0.085,0.315,0.17,0.472,0.256c0.478,0.262,0.951,0.532,1.421,0.807c0.166,0.097,0.333,0.195,0.498,0.294
			c0.455,0.273,0.905,0.552,1.352,0.837c0.173,0.11,0.346,0.219,0.517,0.331c0.432,0.282,0.859,0.57,1.283,0.863
			c0.18,0.124,0.36,0.247,0.539,0.374c0.41,0.289,0.814,0.586,1.216,0.886c0.184,0.138,0.37,0.274,0.552,0.414
			c0.388,0.297,0.771,0.601,1.151,0.908c0.189,0.152,0.379,0.303,0.566,0.458c0.367,0.303,0.728,0.614,1.087,0.927
			c0.192,0.167,0.385,0.332,0.575,0.501c0.347,0.31,0.687,0.628,1.027,0.947c0.192,0.18,0.387,0.359,0.577,0.542
			c0.33,0.318,0.652,0.644,0.974,0.97c0.191,0.193,0.384,0.384,0.572,0.58c0.312,0.325,0.616,0.658,0.921,0.991
			c0.189,0.206,0.381,0.41,0.566,0.619c0.296,0.333,0.584,0.675,0.872,1.015c0.184,0.218,0.372,0.432,0.553,0.653
			c0.282,0.344,0.556,0.696,0.831,1.047c0.177,0.226,0.358,0.449,0.532,0.678c0.272,0.358,0.534,0.725,0.797,1.091
			c0.167,0.231,0.338,0.458,0.502,0.692c0.266,0.38,0.521,0.77,0.778,1.157c0.151,0.228,0.307,0.451,0.455,0.681
			c0.275,0.428,0.538,0.865,0.802,1.302c0.12,0.198,0.246,0.392,0.363,0.592c0.377,0.64,0.743,1.289,1.097,1.948
			c-0.653,0.012-1.322,0.027-2.008,0.047c-10.984,0.321-26.11,1.805-41.986,6.513c-0.008,0.002-0.015,0.004-0.023,0.006
			c-0.954,0.283-1.911,0.579-2.87,0.886c-0.043,0.014-0.086,0.026-0.129,0.04c-0.92,0.296-1.842,0.605-2.766,0.923
			c-0.083,0.029-0.165,0.055-0.248,0.083c-0.894,0.31-1.789,0.635-2.684,0.967c-0.112,0.041-0.223,0.08-0.335,0.122
			c-0.853,0.319-1.707,0.653-2.56,0.993c-0.156,0.062-0.313,0.121-0.469,0.184c-0.821,0.331-1.641,0.677-2.461,1.028
			c-0.187,0.08-0.373,0.155-0.56,0.236c-0.787,0.342-1.573,0.699-2.359,1.059c-0.219,0.101-0.439,0.196-0.659,0.298
			c-0.754,0.351-1.504,0.718-2.255,1.088c-0.249,0.123-0.5,0.24-0.749,0.364c-0.719,0.36-1.436,0.737-2.152,1.114
			c-0.278,0.147-0.558,0.288-0.836,0.437c-0.686,0.369-1.368,0.754-2.05,1.139c-0.305,0.172-0.611,0.338-0.915,0.513
			c-0.652,0.376-1.299,0.769-1.947,1.161c-0.33,0.2-0.662,0.393-0.992,0.597c-0.623,0.386-1.241,0.788-1.859,1.189
			c-0.348,0.225-0.697,0.444-1.043,0.674c-0.595,0.396-1.185,0.808-1.775,1.218c-0.364,0.253-0.73,0.499-1.092,0.757
			c-0.567,0.405-1.128,0.826-1.691,1.245c-0.377,0.281-0.757,0.556-1.132,0.843c-0.542,0.416-1.078,0.848-1.615,1.277
			c-0.386,0.309-0.775,0.611-1.159,0.927c-0.521,0.429-1.034,0.874-1.549,1.316c-0.327,0.281-0.66,0.55-0.984,0.837
			c-0.045,0.039-0.086,0.083-0.13,0.122c-0.104,0.092-0.212,0.179-0.316,0.272c-5.659,5.048-10.132,11.592-12.937,18.925
			C378.914,337.491,378.667,338.045,378.41,338.591z M458.669,343.492l-6.907-13.218c10.345,4.494,17.601,14.807,17.601,26.786
			c0,16.097-13.095,29.192-29.191,29.192s-29.191-13.095-29.191-29.192c0-2.429,0.303-4.802,0.875-7.093l7.384,14.13
			c3.967,7.591,11.728,11.939,19.753,11.939c3.467,0,6.985-0.812,10.265-2.526C460.128,367.83,464.35,354.363,458.669,343.492z
			 M446.072,356.027c-0.596,1.901-1.897,3.457-3.663,4.38c-3.647,1.903-8.163,0.489-10.068-3.157l-13.957-26.708
			c-0.012-0.023-0.024-0.046-0.036-0.069l-5.176-9.906c0.331-0.209,0.662-0.417,0.994-0.622c0.432-0.267,0.865-0.532,1.303-0.794
			c0.655-0.389,1.312-0.771,1.973-1.143c0.213-0.121,0.429-0.24,0.644-0.359c2.72-1.503,5.482-2.863,8.26-4.09l19.219,36.779
			C446.488,352.105,446.668,354.125,446.072,356.027z M440.171,414.104c-31.454,0-57.045-25.59-57.045-57.044
			c0-0.179,0.004-0.368,0.006-0.552c1.568-1.372,2.997-2.879,4.288-4.519c0.075-0.095,0.148-0.191,0.222-0.286
			c0.508-0.659,0.996-1.337,1.459-2.038c0.246-0.368,0.487-0.74,0.72-1.119c0.196-0.322,0.392-0.644,0.579-0.974
			c0.4-0.7,0.78-1.419,1.14-2.156c0.096-0.199,0.188-0.402,0.282-0.604c0.398-0.853,0.778-1.721,1.122-2.621
			c1.817-4.751,4.678-9.047,8.3-12.525l1.923,3.68c-4.519,7.048-6.974,15.302-6.974,23.715c0,24.248,19.728,43.977,43.976,43.977
			c24.248,0,43.976-19.728,43.976-43.977c0-23.357-18.306-42.512-41.323-43.889l-2.479-4.745c7.229-2.163,14.247-3.577,20.584-4.5
			c21.778,8.509,36.286,29.631,36.286,53.134C497.215,388.514,471.626,414.104,440.171,414.104z"/>
	</g>
</g>
<g>
</g>
<g>
</g>
<g>
</g>
<g>
</g>
<g>
</g>
<g>
</g>
<g>
</g>
<g>
</g>
<g>
</g>
<g>
</g>
<g>
</g>
<g>
</g>
<g>
</g>
<g>
</g>
<g>
</g>
</svg>
