<?xml version="1.0" encoding="UTF-8"?>
<svg xmlns="http://www.w3.org/2000/svg" id="Layer_1" data-name="Layer 1" viewBox="0 0 24 24">
  <path d="m12,10c-3.664,0-8,5.149-8,9.5,0,2.733,1.458,4.5,3.714,4.5,1.189,0,1.814-.312,2.366-.588.518-.259.966-.483,1.919-.483s1.401.224,1.919.483c.552.276,1.177.588,2.366.588,2.256,0,3.714-1.767,3.714-4.5,0-4.351-4.336-9.5-8-9.5Zm4.286,13c-.953,0-1.401-.224-1.919-.483-.552-.276-1.177-.588-2.367-.588s-1.815.312-2.367.588c-.518.259-.966.483-1.919.483-2.001,0-2.714-1.808-2.714-3.5,0-4.104,4.108-8.5,7-8.5s7,4.396,7,8.5c0,1.692-.713,3.5-2.714,3.5Zm5.067-16.983c-.705-.077-1.408.13-1.972.588-.755.614-1.236,1.633-1.354,2.871-.223,2.345.588,4.397,2.794,4.525.541,0,1.072-.201,1.549-.589.854-.694,1.44-1.924,1.57-3.292.212-2.222-.853-3.909-2.589-4.104Zm1.594,4.009c-.105,1.106-.556,2.082-1.206,2.61-.234.191-.607.407-1.051.357-1.068-.119-1.832-1.687-1.667-3.423.092-.969.453-1.735.989-2.189.45-.381,1.167-.377,1.23-.37,1.161.129,1.862,1.369,1.705,3.015Zm-7.15-2.025c1.568,0,2.938-1.653,3.171-3.893.114-1.088-.075-2.058-.546-2.803-.471-.745-1.191-1.203-2.026-1.29-1.734-.185-3.129,1.245-3.362,3.473-.113,1.083.066,2.139.506,2.972.474.899,1.128,1.54,2.257,1.54Zm-1.769-4.408c.163-1.557,1.008-2.592,2.085-2.592.554,0,1.155.352,1.463.839.35.553.487,1.301.397,2.164-.181,1.732-1.23,3.093-2.307,2.991-.488-.051-.93-.406-1.243-1-.348-.66-.489-1.513-.396-2.401Zm6.795,10.409c.082.005-.081,0,0,0h0Zm-12.385-6.013c.832-.079,1.55-.629,2.024-1.528.439-.833.619-1.889.506-2.973C10.734,1.26,9.355-.173,7.604.015c-.835.087-1.555.545-2.026,1.29-.471.745-.661,1.714-.546,2.803.234,2.239,1.66,4.046,3.405,3.88ZM6.424,1.839c.309-.487.935-.839,1.463-.839,1.077,0,1.922,1.035,2.085,2.591.093.889-.048,1.742-.396,2.402-.313.594-.755.949-1.243,1-1.066.102-2.126-1.257-2.307-2.991-.09-.862.047-1.61.397-2.164Zm-.451,7.636c-.118-1.237-.598-2.257-1.354-2.871-.563-.458-1.265-.665-1.972-.588C.912,6.211-.153,7.898.059,10.12c.13,1.367.717,2.598,1.57,3.292.478.388,1.042.646,1.793.575,1.657-.157,2.774-2.167,2.55-4.512Zm-2.662,3.518c-.447.05-.817-.167-1.051-.357-.65-.528-1.101-1.503-1.206-2.61-.156-1.646.58-2.704,1.705-3.015.462-.127.921.119,1.23.37.545.443.896,1.221.989,2.189.165,1.736-.598,3.304-1.667,3.423Z"/>
</svg>
