<svg id="Layer_1" enable-background="new 0 0 512 512" height="512" viewBox="0 0 512 512" width="512" xmlns="http://www.w3.org/2000/svg"><path d="m5.149 200.338c-6.494-5.993-6.901-16.115-.908-22.609 31.758-34.416 69.441-61.526 112.003-80.577 44.076-19.728 91.096-29.731 139.756-29.731s95.68 10.003 139.755 29.731c42.562 19.051 80.246 46.161 112.003 80.577 5.992 6.494 5.586 16.617-.908 22.609-3.076 2.838-6.967 4.241-10.847 4.241-4.311 0-8.608-1.731-11.763-5.149-58.647-63.557-141.838-100.009-228.24-100.009s-169.593 36.452-228.241 100.009c-5.993 6.494-16.116 6.9-22.61.908zm406.249 71.519c5.872 6.604 15.984 7.197 22.588 1.325s7.197-15.985 1.325-22.588c-45.52-51.194-110.877-80.554-179.311-80.554-68.435 0-133.791 29.361-179.311 80.554-5.872 6.604-5.279 16.717 1.325 22.589 3.049 2.71 6.844 4.043 10.626 4.043 4.41 0 8.802-1.813 11.963-5.368 39.453-44.37 96.093-69.817 155.397-69.817 59.304-.001 115.944 25.446 155.398 69.816zm-73.304 72.182c3.161 3.933 7.799 5.977 12.48 5.977 3.518 0 7.059-1.155 10.014-3.53 6.887-5.536 7.983-15.607 2.447-22.495-26.221-32.623-65.234-51.333-107.035-51.333s-80.813 18.71-107.036 51.333c-5.536 6.887-4.441 16.958 2.447 22.495s16.959 4.44 22.495-2.447c20.117-25.027 50.039-39.38 82.094-39.38 32.056-.001 61.978 14.353 82.094 39.38zm-82.094 31.238c19.106 0 34.651 15.544 34.651 34.651 0 19.106-15.544 34.65-34.651 34.65s-34.651-15.544-34.651-34.65 15.544-34.651 34.651-34.651zm0 32c-1.437 0-2.651 1.214-2.651 2.651s1.214 2.65 2.651 2.65 2.651-1.214 2.651-2.65c-.001-1.436-1.214-2.651-2.651-2.651z"/></svg>