<?xml version="1.0" encoding="UTF-8"?>
<!-- Generator: Adobe Illustrator 25.2.0, SVG Export Plug-In . SVG Version: 6.00 Build 0)  -->
<svg xmlns="http://www.w3.org/2000/svg" xmlns:xlink="http://www.w3.org/1999/xlink" version="1.1" id="Capa_1" x="0px" y="0px" viewBox="0 0 512 512" style="enable-background:new 0 0 512 512;" xml:space="preserve" width="512" height="512">
<g>
	<g>
		<path style="fill:#241726;" d="M49.165,284.517c-0.223,0-0.449-0.062-0.653-0.19c-0.565-0.361-0.734-1.111-0.373-1.679    c0.537-0.845,55.697-84.641,221.308-77.575c144.611,6.161,166.826,54.532,167.7,56.588c0.264,0.615-0.024,1.327-0.641,1.591    c-0.603,0.259-1.327-0.021-1.595-0.636c-0.211-0.489-22.808-49.031-165.568-55.111c-164.151-7.02-218.621,75.614-219.152,76.45    C49.96,284.317,49.566,284.517,49.165,284.517z"/>
		<g>
			<path style="fill:#FFFFFF;" d="M330.194,468.402c0,0,4.552,35.915-2.702,36.48c-106.093,8.264-129.705,5.404-129.705,5.404     c-8.107,1.351-10.809-33.777-10.809-33.777"/>
			<path style="fill:#241726;" d="M213.745,512c-10.688,0-15.019-0.389-15.94-0.489c-1.106,0.123-2.153-0.19-3.134-0.957     c-6.51-5.097-8.68-31.013-8.905-33.953c-0.052-0.67,0.449-1.254,1.118-1.303c0.622-0.088,1.254,0.446,1.303,1.118     c0.594,7.688,3.181,28.464,7.982,32.224c0.648,0.508,1.118,0.494,1.417,0.446c0.114-0.021,0.228-0.024,0.344-0.007     c0.235,0.024,24.905,2.737,129.464-5.408c0.192-0.017,0.487-0.088,0.857-0.541c3.632-4.461,1.764-26.472,0.736-34.577     c-0.083-0.665,0.387-1.273,1.054-1.358c0.62-0.095,1.273,0.385,1.358,1.054c0.392,3.086,3.68,30.346-1.263,36.415     c-0.883,1.087-1.876,1.377-2.552,1.429C264.808,510.984,230.996,512,213.745,512z"/>
		</g>
		<path style="fill:#E2394B;" d="M440.083,272.583c0,0,16.663,212.032-197.485,217.795    C67.454,495.092,49.616,299.065,49.616,299.065s117.996,62.601,209.87,63.952C351.361,364.368,440.083,272.583,440.083,272.583z"/>
		<path style="fill:#F9DD96;" d="M50.19,283.954c0,0,54.645-39.662,111.116-50.642c145.918-28.373,274.272,16.213,278.326,36.48    s-1.351,84.669-154.025,96.828S26.321,333.044,50.19,283.954z"/>
		<path style="fill:#F9DD96;" d="M112.667,122.522c0,0-17.564,141.865,9.458,201.313s93.226,24.32,137.812,24.32    s48.639-27.022,22.969-44.586c-25.671-17.564-104.188-10.815-98.63-145.918C187.712,74.121,112.667,122.522,112.667,122.522z"/>
		<path style="fill:#241726;" d="M227.508,369.637c-0.62,0-1.147-0.47-1.208-1.099c-3.11-32.678-34.776-51.125-62.715-67.402    c-20.278-11.811-39.43-22.97-46.289-38.214c-16.187-35.971-1.068-113.054-0.415-116.316c0.133-0.662,0.776-1.087,1.429-0.954    c0.66,0.131,1.085,0.772,0.954,1.429c-0.157,0.793-15.617,79.584,0.249,114.844c6.541,14.535,25.365,25.501,45.296,37.113    c28.442,16.569,60.681,35.351,63.912,69.268c0.062,0.669-0.427,1.263-1.094,1.327    C227.586,369.634,227.548,369.637,227.508,369.637z"/>
		<path style="fill:#241726;" d="M259.485,366.935c-0.009,0-0.021,0-0.031,0c-0.672-0.017-1.201-0.575-1.185-1.246    c1.121-43.653-35.068-65.379-66.998-84.548c-19.01-11.413-36.965-22.191-45.422-36.398    c-22.474-37.758-13.761-105.488-13.67-106.169c0.09-0.667,0.71-1.135,1.368-1.045c0.665,0.09,1.132,0.7,1.045,1.368    c-0.09,0.67-8.692,67.573,13.347,104.602c8.143,13.68,25.845,24.309,44.586,35.558c32.497,19.511,69.332,41.623,68.176,86.694    C260.684,366.41,260.143,366.935,259.485,366.935z"/>
		<path style="fill:#241726;" d="M304.523,361.529c-0.658,0-1.199-0.525-1.216-1.185c-1.213-49.097-47.744-72.839-85.132-91.913    c-17.433-8.894-32.488-16.574-39.786-25.335c-22.526-27.032-25.391-102.041-25.503-105.22c-0.024-0.672,0.503-1.235,1.173-1.258    c0.658-0.007,1.232,0.503,1.258,1.173c0.026,0.772,2.944,77.357,24.938,103.748c6.982,8.378,21.83,15.954,39.024,24.727    c37.963,19.368,85.21,43.473,86.459,94.016c0.017,0.672-0.515,1.23-1.185,1.246C304.542,361.529,304.532,361.529,304.523,361.529z    "/>
		<path style="fill:#241726;" d="M116.268,351.622c-0.605,0-1.128-0.451-1.204-1.066c-0.083-0.667,0.392-1.275,1.056-1.356    c0.508-0.062,50.754-6.619,62.962-39.748c0.233-0.632,0.94-0.954,1.56-0.719c0.629,0.23,0.952,0.931,0.719,1.56    c-5.278,14.326-18.205,26.016-37.388,33.808c-14.394,5.848-27.426,7.495-27.557,7.512    C116.367,351.619,116.317,351.622,116.268,351.622z"/>
		<path style="fill:#241726;" d="M159.503,363.331c-0.591,0-1.111-0.434-1.199-1.038c-0.1-0.665,0.361-1.282,1.023-1.379    c0.074-0.012,7.562-1.178,15.577-6.621c10.71-7.277,17.246-18.34,19.43-32.889c0.1-0.667,0.719-1.13,1.382-1.021    c0.665,0.1,1.121,0.717,1.021,1.382c-2.856,19.048-12.759,29.33-20.562,34.603c-8.464,5.719-16.168,6.902-16.493,6.951    C159.622,363.326,159.562,363.331,159.503,363.331z"/>
		<path style="fill:#241726;" d="M79.338,336.309c-0.627,0-1.159-0.482-1.208-1.118c-0.055-0.67,0.446-1.256,1.113-1.308    c0.375-0.031,37.896-3.48,70.474-43.1c0.427-0.518,1.194-0.596,1.709-0.166c0.52,0.425,0.594,1.192,0.166,1.709    c-33.269,40.463-71.77,43.95-72.157,43.979C79.404,336.306,79.371,336.309,79.338,336.309z"/>
		<path style="fill:#241726;" d="M110.605,305.874c-37.227,0-61.934-21.386-62.245-21.664c-0.503-0.444-0.551-1.211-0.104-1.714    s1.213-0.551,1.714-0.107c0.387,0.342,39.323,33.969,92.926,15.527c0.646-0.221,1.327,0.119,1.546,0.753    c0.218,0.636-0.119,1.327-0.753,1.546C131.889,304.277,120.778,305.874,110.605,305.874z"/>
		<path style="fill:#241726;" d="M87.194,274.581c-13.098,0-18.86-2.557-19.235-2.73c-0.608-0.283-0.871-1.002-0.594-1.61    c0.283-0.61,1.007-0.878,1.612-0.598c0.14,0.066,14.689,6.403,50.636-1.489c0.67-0.14,1.306,0.273,1.448,0.926    c0.145,0.655-0.271,1.303-0.926,1.448C106.08,273.612,95.249,274.581,87.194,274.581z"/>
		<path style="fill:#241726;" d="M234.79,390.584c-82.226,0-123.163-22.937-154.253-40.356c-3.727-2.087-7.3-4.091-10.779-5.957    c-0.591-0.318-0.814-1.054-0.496-1.645c0.316-0.591,1.054-0.812,1.645-0.496c3.49,1.873,7.077,3.882,10.817,5.978    c35.987,20.161,85.26,47.777,197.474,38.017c54.893-4.772,92.399-20.812,114.196-33.426    c23.613-13.666,34.392-26.365,34.496-26.493c0.437-0.51,1.204-0.579,1.712-0.152c0.515,0.432,0.584,1.197,0.154,1.712    c-0.442,0.529-11.082,13.089-35.019,26.963c-22.025,12.768-59.916,29-115.331,33.817    C263.298,389.948,248.469,390.584,234.79,390.584z"/>
		<path style="fill:#241726;" d="M336.88,359.35c-0.083,0-0.166-0.007-0.249-0.026c-0.655-0.135-1.08-0.779-0.943-1.436    c14.791-71.628-52.421-92.091-96.898-105.63c-14.366-4.373-26.773-8.15-33.67-12.749c-28.267-18.844-33.618-97.468-33.832-100.806    c-0.043-0.67,0.465-1.249,1.135-1.292c0.643-0.074,1.249,0.465,1.292,1.135c0.052,0.807,5.484,80.761,32.754,98.94    c6.6,4.399,18.848,8.129,33.031,12.445c45.32,13.799,113.809,34.648,98.567,108.451C337.948,358.956,337.443,359.35,336.88,359.35    z"/>
		<path style="fill:#241726;" d="M226.601,246.993c-0.254,0-0.51-0.078-0.729-0.242c-0.537-0.404-0.646-1.166-0.245-1.702    c12.64-16.852,40.199-21.109,41.367-21.279c0.646-0.097,1.284,0.361,1.379,1.023c0.1,0.662-0.358,1.282-1.023,1.379    c-0.275,0.043-27.744,4.29-39.776,20.335C227.335,246.825,226.969,246.993,226.601,246.993z"/>
		<path style="fill:#241726;" d="M258.852,256.357c-0.287,0-0.575-0.102-0.805-0.306c-0.503-0.444-0.551-1.213-0.104-1.714    c0.242-0.275,24.781-27.459,67.492-27.459c0.672,0,1.216,0.544,1.216,1.216c0,0.672-0.544,1.216-1.216,1.216    c-41.576,0-65.436,26.372-65.674,26.638C259.521,256.219,259.186,256.357,258.852,256.357z"/>
		<path style="fill:#241726;" d="M291.102,268.84c-0.361,0-0.719-0.161-0.959-0.47c-0.413-0.529-0.318-1.294,0.214-1.705    c0.378-0.294,38.183-29.385,75.583-31.465c0.686-0.062,1.244,0.477,1.28,1.147c0.038,0.67-0.475,1.244-1.147,1.28    c-36.631,2.037-73.852,30.667-74.225,30.956C291.627,268.757,291.363,268.84,291.102,268.84z"/>
		<path style="fill:#241726;" d="M392.836,330.943c-15.496,0-36.899-3.39-58.703-17.564c-0.563-0.366-0.722-1.118-0.356-1.681    c0.368-0.565,1.123-0.719,1.681-0.356c40.664,26.431,79.731,14.544,80.12,14.423c0.641-0.197,1.322,0.152,1.524,0.793    c0.202,0.639-0.152,1.322-0.793,1.524C416.12,328.144,406.915,330.943,392.836,330.943z"/>
		<path style="fill:#241726;" d="M393.928,303.315c-7.946,0-16.702-0.615-26.256-1.845c-25.04-3.226-46.54-9.732-46.754-9.796    c-0.643-0.197-1.004-0.876-0.81-1.517c0.197-0.641,0.878-1,1.517-0.81c0.848,0.261,85.042,25.522,115.386,0.23    c0.515-0.432,1.28-0.363,1.712,0.154c0.43,0.515,0.361,1.282-0.154,1.712C429.087,299.348,414.123,303.315,393.928,303.315z"/>
		<path style="fill:#241726;" d="M371.205,302.13c-0.629,0-1.163-0.487-1.211-1.125c-2.004-27.065-49.795-49.738-50.277-49.964    c-0.608-0.285-0.871-1.009-0.586-1.617c0.285-0.608,1.011-0.871,1.617-0.586c2.023,0.947,49.565,23.516,51.673,51.987    c0.047,0.669-0.453,1.254-1.123,1.303C371.267,302.13,371.236,302.13,371.205,302.13z"/>
		<path style="fill:#241726;" d="M412.822,297.971c-0.508,0-0.983-0.323-1.154-0.831c-0.142-0.432-14.902-43.297-57.49-57.49    c-0.636-0.214-0.981-0.902-0.769-1.538c0.214-0.636,0.907-0.978,1.538-0.769c43.765,14.587,58.881,58.587,59.028,59.028    c0.211,0.636-0.133,1.325-0.769,1.538C413.078,297.952,412.95,297.971,412.822,297.971z"/>
	</g>
	<path style="fill:#241726;" d="M103.53,119.264c0,0,323.339-123.987,330.633-119.125s7.293,29.173,7.293,29.173L108.393,148.438   L103.53,119.264z"/>
	<path style="fill:#241726;" d="M113.118,143.019c0,0,341.355-73.469,347.787-67.515c6.432,5.955,3.647,26.742,3.647,26.742   l-350.082,65.64L113.118,143.019z"/>
	<path style="fill:#F9DD96;" d="M161.877,138.713c0,0,23.681,1.694,10.823,43.293c-4.202,13.593,35.709,26.312,47.65,14.371   c36.467-36.467,7.985-87.894-33.279-98.325c-62.65-15.837-74.171,47.139-68.827,46.137   C157.142,136.896,161.877,138.713,161.877,138.713z"/>
	<path style="fill:#241726;" d="M183.29,188.516c-0.176,0-0.351-0.038-0.52-0.116c-0.605-0.287-0.867-1.011-0.579-1.619   c0.161-0.342,15.859-34.335-8.651-50.657c-4.188-2.79-7.709-3.568-10.451-2.315c-5.19,2.372-6.37,11.237-6.382,11.327   c-0.085,0.67-0.703,1.14-1.358,1.054c-0.665-0.085-1.137-0.691-1.054-1.358c0.052-0.418,1.356-10.29,7.778-13.231   c3.561-1.633,7.873-0.793,12.816,2.5c26.265,17.49,9.672,53.359,9.501,53.72C184.18,188.259,183.743,188.516,183.29,188.516z"/>
	<path style="fill:#241726;" d="M197.66,196.08c-0.195,0-0.392-0.047-0.575-0.145c-0.591-0.318-0.814-1.054-0.496-1.645   c0.214-0.401,21.282-40.334,1.693-61.374c-10.783-11.583-27.564-16.778-41.764-12.913c-12.151,3.302-20.489,12.524-23.473,25.961   c-0.145,0.655-0.788,1.073-1.451,0.924c-0.655-0.147-1.068-0.795-0.924-1.451c3.191-14.361,12.144-24.228,25.209-27.782   c15.047-4.091,32.799,1.379,44.183,13.604c20.776,22.315-0.42,62.483-1.332,64.18C198.513,195.847,198.092,196.08,197.66,196.08z"/>
	<path style="fill:#241726;" d="M215.815,195.322c-0.349,0-0.693-0.15-0.935-0.437c-0.43-0.515-0.361-1.282,0.154-1.712   c1.258-1.052,30.437-26.253-1.69-67.143c-14.247-18.131-36.27-24.454-58.898-16.921c-20.019,6.667-34.805,22.547-35.159,37.761   c-0.017,0.672-0.558,1.204-1.244,1.187c-0.672-0.017-1.201-0.572-1.187-1.244c0.377-16.204,15.862-33.031,36.823-40.009   c23.642-7.877,46.669-1.249,61.578,17.725c33.618,42.787,1.66,70.239,1.334,70.51C216.364,195.23,216.088,195.322,215.815,195.322z   "/>
	<g>
		
			<ellipse transform="matrix(0.9899 -0.1415 0.1415 0.9899 -33.2567 33.9329)" style="fill:#70A471;" cx="221.893" cy="250.735" rx="48.38" ry="50.769"/>
		
			<ellipse transform="matrix(0.9899 -0.1415 0.1415 0.9899 -33.4658 33.9781)" style="fill:#A5B370;" cx="222.106" cy="252.227" rx="37.337" ry="39.18"/>
		<path style="fill:#241726;" d="M237.805,240.434c-2.049,0-5.102-0.43-7.747-2.536c-3.245-2.583-4.948-6.921-5.064-12.894    c-0.012-0.672,0.52-1.225,1.192-1.239c0.66-0.047,1.187,0.487,1.235,1.121c0.159-0.204,0.382-0.361,0.655-0.43    c0.316-0.066,7.536-1.695,12.97,14.193c0.114,0.33,0.081,0.693-0.093,0.995c-0.173,0.304-0.465,0.518-0.807,0.589    C240.055,240.251,239.144,240.434,237.805,240.434z M227.491,226.447c0.321,4.437,1.688,7.645,4.081,9.549    c2.289,1.823,5.055,2.061,6.657,1.999c-4.506-12.027-9.53-11.17-9.589-11.175C228.204,226.913,227.774,226.754,227.491,226.447z"/>
		<path style="fill:#241726;" d="M198.608,249.237c-0.273,0-0.548-0.002-0.829-0.009c-0.672-0.019-1.201-0.577-1.185-1.246    c0.017-0.648,0.537-1.163,1.178-1.185c-0.199-0.166-0.344-0.399-0.401-0.674c-0.062-0.309-1.353-7.604,14.765-12.312    c0.342-0.1,0.698-0.05,0.99,0.138c0.294,0.185,0.496,0.489,0.551,0.833c0.038,0.233,0.888,5.762-2.787,9.971    C208.289,247.732,204.158,249.237,198.608,249.237z M211.35,236.595c-12.21,3.955-11.598,9.019-11.591,9.072    c0.066,0.437-0.109,0.864-0.427,1.13c4.437-0.116,7.697-1.334,9.71-3.625C210.965,240.98,211.331,238.233,211.35,236.595z"/>
		<path style="fill:#241726;" d="M200.151,276.639c-0.273,0-0.548-0.002-0.829-0.009c-0.672-0.019-1.201-0.577-1.185-1.246    c0.017-0.648,0.537-1.163,1.173-1.185c-0.197-0.166-0.34-0.396-0.396-0.672c-0.062-0.309-1.356-7.607,14.765-12.315    c0.34-0.102,0.696-0.05,0.99,0.138c0.294,0.185,0.496,0.489,0.551,0.833c0.038,0.233,0.888,5.762-2.787,9.971    C209.833,275.134,205.702,276.639,200.151,276.639z M212.893,263.997c-12.21,3.955-11.598,9.022-11.591,9.074    c0.066,0.434-0.107,0.859-0.423,1.128c4.433-0.116,7.695-1.334,9.706-3.625C212.508,268.382,212.874,265.635,212.893,263.997z"/>
		<path style="fill:#241726;" d="M224.851,279.049c-0.273,0-0.548-0.002-0.829-0.009c-0.672-0.019-1.201-0.577-1.185-1.246    c0.017-0.648,0.537-1.163,1.178-1.185c-0.199-0.166-0.344-0.399-0.401-0.674c-0.062-0.306-1.356-7.604,14.765-12.315    c0.34-0.102,0.693-0.05,0.99,0.138c0.294,0.185,0.496,0.489,0.551,0.833c0.038,0.233,0.888,5.762-2.787,9.974    C234.531,277.544,230.402,279.049,224.851,279.049z M237.601,266.402c-12.217,3.958-11.605,9.024-11.598,9.076    c0.066,0.437-0.109,0.864-0.427,1.13c4.447-0.116,7.714-1.339,9.724-3.642C237.225,270.761,237.584,268.031,237.601,266.402z"/>
		<path style="fill:#241726;" d="M243.073,258.161c-0.726,0-1.484-0.071-2.263-0.233c-4.057-0.852-7.528-3.962-10.313-9.247    c-0.313-0.594-0.085-1.33,0.508-1.643c0.565-0.299,1.277-0.102,1.607,0.446c0.047-0.254,0.18-0.494,0.394-0.679    c0.237-0.204,5.971-4.9,17.96,6.857c0.249,0.245,0.382,0.584,0.363,0.931c-0.017,0.349-0.183,0.672-0.456,0.89    C250.715,255.609,247.451,258.161,243.073,258.161z M233.377,248.848c2.277,3.822,4.941,6.073,7.934,6.7    c2.856,0.615,5.42-0.423,6.847-1.204c-9.418-8.718-13.547-5.71-13.587-5.677C234.22,248.94,233.759,248.992,233.377,248.848z"/>
	</g>
	<g>
		
			<ellipse transform="matrix(0.9899 -0.1415 0.1415 0.9899 -42.394 29.7775)" style="fill:#70A471;" cx="188.115" cy="312.885" rx="48.38" ry="50.769"/>
		
			<ellipse transform="matrix(0.9899 -0.1415 0.1415 0.9899 -42.6031 29.8228)" style="fill:#A5B370;" cx="188.329" cy="314.377" rx="37.337" ry="39.18"/>
		<path style="fill:#241726;" d="M204.028,302.584c-2.049,0-5.102-0.43-7.749-2.536c-3.243-2.583-4.948-6.923-5.062-12.894    c-0.012-0.672,0.52-1.225,1.192-1.239c0.009,0,0.017,0,0.024,0c0.636,0,1.163,0.491,1.211,1.121    c0.159-0.204,0.382-0.361,0.655-0.43c0.309-0.062,7.536-1.695,12.97,14.193c0.114,0.33,0.081,0.693-0.093,0.995    c-0.173,0.304-0.465,0.518-0.807,0.589C206.278,302.401,205.367,302.584,204.028,302.584z M193.714,288.598    c0.318,4.425,1.681,7.628,4.06,9.532c2.279,1.826,5.026,2.073,6.678,2.011c-4.508-12.023-9.525-11.166-9.589-11.17    C194.422,289.058,193.997,288.902,193.714,288.598z"/>
		<path style="fill:#241726;" d="M164.831,311.387c-0.273,0-0.548-0.002-0.829-0.009c-0.672-0.019-1.201-0.577-1.185-1.246    c0.017-0.648,0.537-1.163,1.178-1.185c-0.199-0.166-0.344-0.399-0.401-0.674c-0.062-0.306-1.356-7.604,14.765-12.312    c0.339-0.1,0.696-0.05,0.99,0.138c0.294,0.185,0.496,0.489,0.551,0.833c0.038,0.233,0.888,5.762-2.787,9.971    C174.512,309.882,170.381,311.387,164.831,311.387z M177.573,298.745c-12.21,3.955-11.598,9.019-11.591,9.072    c0.066,0.437-0.109,0.864-0.427,1.13c4.437-0.116,7.697-1.334,9.71-3.625C177.188,303.13,177.554,300.383,177.573,298.745z"/>
		<path style="fill:#241726;" d="M166.374,338.79c-0.273,0-0.548-0.002-0.829-0.009c-0.672-0.019-1.201-0.577-1.185-1.246    c0.017-0.646,0.534-1.161,1.17-1.185c-0.197-0.166-0.34-0.396-0.396-0.672c-0.062-0.309-1.353-7.607,14.767-12.315    c0.34-0.102,0.696-0.05,0.99,0.138c0.294,0.185,0.496,0.489,0.551,0.833c0.038,0.233,0.888,5.762-2.787,9.971    C176.056,337.284,171.925,338.79,166.374,338.79z M179.116,326.147c-12.213,3.955-11.6,9.022-11.593,9.074    c0.066,0.437-0.107,0.862-0.423,1.128c4.435-0.116,7.695-1.334,9.708-3.625C178.731,330.532,179.097,327.785,179.116,326.147z"/>
		<path style="fill:#241726;" d="M191.074,341.199c-0.273,0-0.548-0.002-0.829-0.009c-0.672-0.019-1.201-0.577-1.185-1.246    c0.017-0.646,0.532-1.159,1.168-1.185c-0.195-0.169-0.337-0.401-0.394-0.674c-0.062-0.309-1.353-7.604,14.767-12.312    c0.34-0.102,0.696-0.047,0.99,0.138c0.294,0.185,0.496,0.489,0.551,0.833c0.038,0.233,0.888,5.762-2.787,9.971    C200.756,339.694,196.625,341.199,191.074,341.199z M203.816,328.555c-12.255,3.965-11.61,8.993-11.598,9.046    c0.09,0.444-0.074,0.881-0.394,1.159c4.423-0.121,7.676-1.337,9.684-3.625C203.432,332.942,203.797,330.195,203.816,328.555z"/>
		<path style="fill:#241726;" d="M209.296,320.312c-0.726,0-1.484-0.071-2.265-0.235c-4.057-0.85-7.526-3.962-10.311-9.245    c-0.313-0.596-0.085-1.329,0.508-1.643c0.567-0.302,1.273-0.104,1.605,0.444c0.05-0.254,0.18-0.494,0.394-0.677    c0.237-0.207,5.973-4.898,17.963,6.857c0.249,0.245,0.382,0.584,0.363,0.931c-0.017,0.349-0.183,0.672-0.456,0.89    C216.938,317.759,213.674,320.312,209.296,320.312z M199.6,311c2.27,3.808,4.926,6.059,7.908,6.693    c2.851,0.608,5.43-0.418,6.868-1.204c-9.421-8.711-13.547-5.705-13.585-5.672C200.443,311.088,199.987,311.143,199.6,311z"/>
	</g>
	<g>
		<path style="fill:#E2394B;" d="M350.15,215.356c0,0,26.874-19.761,36.003-56.928s37.113-0.406,13.465,27.88    c0,0,34.09-14.184,39.244,9.614c5.436,25.1-45.382-2.458-74.079,30.324L350.15,215.356z"/>
		<path style="fill:#F09945;" d="M268.994,236.126c0,0-5.67-13.857,9.933-18.259c15.603-4.402,25.368,6.994,15.971,10.126    c-9.397,3.132,0.179-28.756,15.832-29.693c21.515-1.288,22.96,11.185,17.84,13.29c-5.12,2.105-7.089-21.593,20.1-24.801    c20.6-2.43,26.871,23.695,16.873,29.818s14.461-23.755,28.895-7.353c17.899,20.34,10.687,35.932-8.949,47.16    c-19.636,11.228-25.336-6.174-16.721-7.749s25.164,12.505-7.121,32.134c-32.285,19.628-42.089-12.688-31.666-11.577    s0.976,27.082-15.951,32.623c-16.928,5.541-30.735-18.461-21.094-15.793s-1.131,29.777-21.377,24.565s-19.478-37.859-7.548-36.453    c11.93,1.406-0.589,30.194-13.613,8.523c-13.024-21.672-5.564-47.877,12.268-50.132c17.833-2.255,18.5,6.891,12.115,10.613    C268.396,246.889,268.994,236.126,268.994,236.126z"/>
		<path style="fill:#241726;" d="M276.636,312.496c-1.762,0-3.571-0.237-5.382-0.703c-11.294-2.908-16.073-13.663-16.788-22.231    c-1.766-1.443-3.485-3.542-5.112-6.249c-7.543-12.554-8.877-27.956-3.397-39.24c3.547-7.303,9.425-11.823,16.557-12.725    c1.5-0.19,2.932-0.306,4.266-0.347c-0.135-4.577,1.546-11.405,11.816-14.304c5.102-1.441,10.781-1.22,15.798,0.548    c1.681-9.732,7.595-19.454,16.234-20.156c6.505-0.527,11.714,0.318,15.961,2.422c1.605-4.831,6.166-11.937,19.1-14.85    c1.068-0.242,2.146-0.363,3.207-0.363c9.779,0,17.305,10.268,20.484,20.32c3.499-1.795,7.4-2.773,11.139-2.773    c5.738,0,10.862,2.277,14.812,6.588c7.88,8.594,11.329,17.728,9.974,26.417c-1.299,8.333-7.008,15.61-16.515,21.044    c-2.555,1.462-4.969,2.495-7.191,3.077c-2.011,5.696-7.545,14.01-22.307,22.436c-10.674,6.087-20.014,7.699-26.759,4.748    c-3.281,6.512-9.584,14.05-18.129,16.847c-6.094,1.99-12.79,0.51-18.392-3.932c-3.084,6.918-9.988,13.423-19.375,13.426H276.636z     M257.109,291.219c1.132,7.386,5.482,15.833,14.753,18.219c1.612,0.415,3.219,0.627,4.774,0.627h0.002    c8.545-0.002,14.917-6.439,17.45-12.683c-4.01-3.867-6.28-8.49-5.32-10.978c0.594-1.541,2.236-2.156,4.49-1.524    c1.584,0.437,2.823,1.446,3.585,2.913c1.147,2.21,1.168,5.411,0.083,8.879c2.36,1.994,6.619,4.791,11.942,4.791    c1.607,0,3.217-0.261,4.784-0.774c7.863-2.574,13.699-9.611,16.74-15.684c-4.983-3.234-6.975-8.915-5.983-12.844    c0.722-2.847,2.847-4.442,5.7-4.148c1.971,0.209,3.502,1.185,4.43,2.818c1.643,2.887,1.265,7.733-0.988,13.112    c6.016,2.604,14.615,1.014,24.537-4.651c13.419-7.659,18.656-15.145,20.698-19.812c-0.432,0.04-0.855,0.059-1.268,0.059    c-5.677,0-8.561-3.775-8.901-7.517c-0.313-3.45,1.51-7.334,5.598-8.082c2.576-0.477,4.986,0.565,6.591,2.761    c1.757,2.4,2.296,5.783,1.56,9.499c1.633-0.558,3.381-1.365,5.221-2.417c8.841-5.057,14.138-11.733,15.318-19.309    c1.237-7.934-2.001-16.372-9.361-24.401c-3.48-3.794-7.982-5.8-13.022-5.8c-3.514,0-7.196,0.966-10.465,2.735    c0.734,2.987,1.66,8.452-0.463,11.234c-1.23,1.614-3.262,1.954-5.641,0.829c-2.512-1.189-3.113-2.98-3.172-4.273    c-0.138-2.896,2.312-6.265,6.441-8.934c-2.904-9.651-9.988-19.138-18.324-19.138c-0.881,0-1.778,0.102-2.671,0.302    c-12.246,2.761-16.206,9.456-17.478,13.723c4.988,3.312,6.538,7.799,6.32,10.741c-0.152,2.063-1.147,3.618-2.726,4.269    c-0.351,0.142-0.719,0.216-1.092,0.216c-0.767,0-1.928-0.311-3.096-1.79c-1.8-2.282-3.181-7.013-2.189-12.265    c-3.91-2.077-8.884-2.908-15.138-2.412c-8.381,0.684-12.939,11.223-14.124,18.68c4.615,2.175,7.583,5.415,7.471,8.238    c-0.043,1.08-0.586,3.048-3.754,4.105c-0.541,0.18-1.073,0.271-1.576,0.271h-0.002c-1.159,0-2.194-0.477-2.991-1.384    c-1.579-1.792-2.22-5.299-1.792-9.71c-4.656-1.757-10.012-2.025-14.803-0.672c-8.428,2.377-10.206,7.623-10.043,11.978    c8.046,0.366,9.874,3.908,10.29,5.465c0.736,2.764-0.916,5.874-4.11,7.735c-2.301,1.339-4.33,1.22-5.688-0.218    c-1.975-2.087-1.978-6.465-1.937-7.676c-0.166-0.463-0.506-1.505-0.741-2.892c-1.396,0.038-2.766,0.147-4.209,0.33    c-6.287,0.795-11.5,4.836-14.675,11.377c-5.128,10.563-3.834,25.057,3.295,36.923c0.964,1.605,1.949,2.963,2.946,4.065    c0.171-4.584,1.481-8.526,3.68-10.869c1.655-1.764,3.746-2.578,6.087-2.298c3.867,0.453,6.109,3.476,5.85,7.882    c-0.313,5.368-4.24,11.113-9.582,11.113C259.314,291.952,258.206,291.708,257.109,291.219z M291.598,287.059    c-0.477,0-0.529,0.138-0.563,0.221c-0.413,1.075,0.924,4.309,3.891,7.49c0.553-2.358,0.48-4.466-0.242-5.857    c-0.456-0.878-1.135-1.432-2.075-1.693C292.218,287.114,291.878,287.059,291.598,287.059z M256.822,288.287    c1.22,0.819,2.429,1.235,3.599,1.235c3.913,0,6.911-4.651,7.156-8.825c0.085-1.46-0.104-4.903-3.708-5.328    c-1.534-0.178-2.894,0.34-4.031,1.55C257.755,279.137,256.617,283.458,256.822,288.287z M329.442,270.41    c-1.721,0-2.405,1.277-2.676,2.348c-0.646,2.552,0.434,7.13,4.641,10.007c1.821-4.478,2.232-8.599,1.018-10.731    c-0.541-0.952-1.382-1.474-2.574-1.603C329.71,270.417,329.575,270.41,329.442,270.41z M375.415,246.264    c-0.252,0-0.506,0.024-0.762,0.071c-2.654,0.484-3.827,3.117-3.616,5.468c0.223,2.448,2.054,5.306,6.481,5.306    c0.688,0,1.42-0.069,2.187-0.207c0.95-3.473,0.641-6.712-0.862-8.763C377.96,246.929,376.742,246.264,375.415,246.264z     M269.507,233.465c0.264,1.33,0.608,2.191,0.613,2.203c0.066,0.166,0.097,0.347,0.088,0.525c-0.095,1.755,0.166,4.971,1.265,6.135    c0.608,0.639,1.462,0.506,2.697-0.211c2.236-1.303,3.435-3.319,2.984-5.012C276.61,235.056,273.79,233.734,269.507,233.465z     M296.413,220.759c-0.214,3.269,0.242,5.895,1.263,7.054c0.337,0.382,0.71,0.56,1.168,0.56l0,0c0.245,0,0.518-0.05,0.81-0.147    c1.358-0.451,2.063-1.09,2.094-1.892C301.805,224.909,299.96,222.601,296.413,220.759z M367.877,208.361    c-2.889,2.044-4.753,4.52-4.668,6.325c0.043,0.926,0.627,1.643,1.783,2.189c1.265,0.603,2.12,0.617,2.669-0.104    C368.499,215.669,368.834,212.699,367.877,208.361z M328.203,203.349c-0.503,3.948,0.468,7.566,1.861,9.333    c0.503,0.636,0.943,0.864,1.187,0.864c0.864-0.321,1.311-1.123,1.394-2.234C332.813,209.04,331.479,205.854,328.203,203.349z"/>
		<path style="fill:#241726;" d="M388.228,177.948c-0.28,0-0.563-0.097-0.793-0.294c-0.508-0.437-0.567-1.204-0.128-1.714    c9.143-10.643,3.936-21.32,3.884-21.427c-0.302-0.598-0.062-1.33,0.539-1.631c0.594-0.299,1.327-0.064,1.631,0.539    c0.062,0.121,5.976,12.246-4.212,24.105C388.909,177.804,388.57,177.948,388.228,177.948z"/>
		<path style="fill:#241726;" d="M396.267,181.514c-0.278,0-0.558-0.095-0.786-0.29c-0.513-0.432-0.575-1.199-0.145-1.712    c0.069-0.081,6.816-8.314,5.066-24.632c-0.071-0.67,0.411-1.268,1.078-1.339c0.669-0.062,1.268,0.411,1.339,1.078    c1.868,17.433-5.323,26.106-5.629,26.467C396.951,181.37,396.609,181.514,396.267,181.514z"/>
		<path style="fill:#241726;" d="M404.265,192.611c-0.42,0-0.831-0.221-1.057-0.613c-0.332-0.584-0.131-1.325,0.453-1.66    c0.719-0.408,17.704-9.96,28.319-2.711c0.553,0.38,0.696,1.135,0.318,1.69c-0.377,0.558-1.132,0.693-1.69,0.318    c-9.375-6.398-25.577,2.723-25.74,2.816C404.679,192.559,404.472,192.611,404.265,192.611z"/>
		<path style="fill:#241726;" d="M428.377,200.686c-0.318,0-0.634-0.121-0.871-0.366c-0.382-0.389-9.425-9.418-22.557-1.987    c-0.584,0.328-1.322,0.126-1.657-0.461c-0.33-0.584-0.123-1.325,0.461-1.657c14.81-8.376,25.394,2.303,25.498,2.412    c0.465,0.482,0.453,1.249-0.028,1.717C428.987,200.572,428.681,200.686,428.377,200.686z"/>
	</g>
	<g>
		<path style="fill:#E2394B;" d="M343.803,286.836c0,0,31.977-9.812,53.046-42.118c21.069-32.307,35.149,12.027,3.359,31.027    c0,0,36.916-2.093,33.802,22.272c-3.284,25.697-41.991-17.517-80.052,4.073L343.803,286.836z"/>
		<path style="fill:#F09945;" d="M260.276,279.452c0,0-0.705-15.08,15.491-14.049c16.195,1.03,21.589,15.139,11.673,14.975    c-9.915-0.164,9.807-27.298,24.889-22.954c20.73,5.971,17.912,18.32,12.376,18.61c-5.536,0.29,0.549-22.914,27.276-16.872    c20.249,4.578,17.41,31.53,5.925,34.011c-11.485,2.481,21.605-17.764,29.725,2.669c10.069,25.337-1.96,37.759-24.249,41.873    c-22.289,4.114-21.833-14.347-13.178-12.964c8.656,1.383,19.549,20.314-17.488,28.189s-35.456-26.148-25.995-21.605    c9.462,4.543-8.156,26.091-25.983,25.701c-17.827-0.39-22.81-27.843-14.608-22.08c8.202,5.762-11.048,27.951-28.401,16.22    s-5.687-42.532,5.097-37.204s-10.676,28.529-15.699,3.555c-5.023-24.974,10.797-47.41,28.377-43.591s15.144,12.743,7.872,14.149    C256.105,289.492,260.276,279.452,260.276,279.452z"/>
		<path style="fill:#241726;" d="M281.218,358.258l-0.506-0.005c-6.446-0.14-12.21-3.72-16.04-9.891    c-3.592,3.784-9.442,7.403-16.351,7.403c-3.965,0-7.759-1.204-11.275-3.58c-9.682-6.543-10.582-18.374-8.383-26.761    c-1.185-1.963-2.101-4.537-2.728-7.654c-2.645-13.155,0.354-26.996,7.828-36.123c5.99-7.315,14.1-10.62,21.999-8.896    c1.479,0.32,2.868,0.688,4.143,1.097c1.389-4.34,5.268-10.328,15.938-9.658c6.866,0.437,11.861,3.483,14.724,5.807    c3.962-7.061,11.256-14.159,18.898-14.159c1.073,0,2.141,0.138,3.174,0.411c6.042,1.6,10.928,4.226,14.242,7.642    c4.72-6.144,12.877-8.939,22.998-7.737c12.234,1.439,15.999,16.332,15.66,26.911c1.151-0.159,2.322-0.24,3.497-0.24    c4.338,0,14.945,1.223,19.713,12.545c4.563,10.836,4.746,20.693,0.527,28.509c-4.024,7.46-11.84,12.452-22.599,14.437    c-2.141,0.396-4.148,0.598-5.964,0.598c0,0,0,0-0.002,0c-0.648,0-1.263-0.026-1.849-0.074    c-3.803,4.744-11.814,10.802-28.563,13.882c-3.594,0.66-6.975,0.995-10.05,0.995c0,0-0.002,0-0.005,0    c-8.875,0-13.955-2.768-16.788-5.425C298.307,353.262,290.036,358.258,281.218,358.258z M266.332,346.396    c1.883,3.238,6.448,9.252,14.432,9.425l0.451,0.005c8.134,0,15.819-4.689,20.608-9.337c-3.386-4.411-3.464-9.734-2.006-13.003    c1.458-3.272,4.513-4.644,7.431-3.245c1.778,0.855,2.894,2.284,3.229,4.133c0.594,3.298-1.389,7.79-5.33,12.17    c3.319,3.105,8.509,4.741,15.097,4.741c0.002,0,0.005,0,0.005,0c2.927,0,6.161-0.323,9.608-0.957    c15.249-2.801,22.699-8.184,26.184-11.944c-5.684-1.436-7.555-5.522-7.36-8.86c0.237-4.003,3.492-8.172,8.241-7.431    c2.298,0.368,4.136,1.866,5.045,4.112c1.197,2.963,0.639,6.695-1.47,10.275c1.752,0.017,3.656-0.169,5.738-0.553    c10.012-1.849,17.239-6.415,20.902-13.203c3.856-7.146,3.64-16.277-0.629-26.41c-4.202-9.981-13.618-11.059-17.471-11.059    c-1.232,0-2.457,0.097-3.659,0.29c-0.553,5.567-2.45,11.175-6.261,11.175l0,0c-1.192,0-2.384-0.586-3.54-1.743    c-1.971-1.971-1.935-3.872-1.56-5.119c0.845-2.794,4.283-5.178,9.072-6.334c0.461-9.67-2.688-23.687-13.495-24.959    c-1.486-0.173-2.939-0.264-4.316-0.264c-9.29,0-14.219,3.917-16.78,7.486c3.376,4.546,3.654,9.413,2.362,12.343    c-0.833,1.895-2.289,3.034-3.989,3.122c-0.005,0-0.009,0-0.012,0c-1.313,0-2.317-0.674-2.984-1.899    c-1.505-2.756-1.263-8.395,1.619-13.39c-2.996-3.279-7.633-5.817-13.478-7.365c-0.831-0.221-1.688-0.33-2.552-0.33    c-6.833,0-13.495,6.797-17.042,13.395c3.613,3.599,5.335,7.664,4.302,10.306c-0.387,0.995-1.522,2.664-4.76,2.664    c-2.203-0.033-3.253-1.064-3.773-1.921c-1.783-2.942,0.009-7.839,1.239-10.501c-3.829-3.253-8.787-5.28-13.744-5.596    c-8.756-0.575-12.205,3.905-13.497,8.058c7.462,3.034,8.008,7.006,7.88,8.623c-0.226,2.875-2.825,5.28-6.465,5.985    c-2.968,0.567-4.34-0.57-4.964-1.5c-1.728-2.59-0.066-7.324,0.413-8.552c-0.002-0.499,0.029-1.61,0.273-3.013    c-1.244-0.406-2.614-0.772-4.084-1.092c-6.999-1.519-14.19,1.455-19.601,8.063c-7.023,8.575-9.831,21.645-7.324,34.102    c0.37,1.847,0.845,3.469,1.415,4.848c2.393-6.078,6.436-9.993,10.553-9.993c1.049,0,2.085,0.247,3.077,0.738    c2.987,1.474,4.238,4.295,3.435,7.737c-1.049,4.487-5.764,9.487-10.855,9.487c-1.481,0-3.464-0.434-5.347-2.225    c-1.413,7.412-0.14,16.913,7.811,22.288c3.105,2.099,6.441,3.162,9.912,3.162c6.489,0,11.949-3.621,15.104-7.21    c-2.308-4.658-3.013-9.52-1.66-11.78c0.983-1.641,2.934-1.876,5.062-0.38c1.341,0.943,2.172,2.308,2.4,3.948    C269.578,340.399,268.526,343.457,266.332,346.396z M304.884,332.104c-1.137,0-2.175,0.864-2.847,2.369    c-1.132,2.545-1.073,6.678,1.489,10.233c3.229-3.663,4.998-7.46,4.558-9.9c-0.195-1.08-0.812-1.857-1.89-2.372    C305.741,332.213,305.299,332.104,304.884,332.104z M264.151,335.378c-0.083,0-0.169,0-0.297,0.216    c-0.641,1.068-0.48,4.392,1.232,8.333c1.318-2.066,1.956-4.105,1.736-5.679c-0.138-0.985-0.591-1.736-1.389-2.296    C264.694,335.435,264.291,335.378,264.151,335.378z M355.847,324.438c-2.737,0-4.589,2.714-4.736,5.228    c-0.078,1.311,0.195,5.551,6.645,6.593c2.244-3.243,2.977-6.621,1.956-9.145c-0.589-1.455-1.717-2.386-3.174-2.619    C356.303,324.457,356.073,324.438,355.847,324.438z M231.307,325.012c1.301,1.769,2.861,2.664,4.639,2.664    c3.839,0,7.647-4.017,8.485-7.609c0.377-1.614,0.311-3.792-2.144-5.005C238.265,313.078,233.555,317.636,231.307,325.012z     M362.872,286.098c-3.409,0.981-5.997,2.716-6.524,4.463c-0.273,0.902,0.038,1.785,0.95,2.697c0.674,0.674,1.306,1.03,1.821,1.03    C360.543,294.289,362.234,291.262,362.872,286.098z M261.651,277.083c-0.197,1.36-0.161,2.303-0.161,2.315    c0.009,0.178-0.024,0.356-0.09,0.52c-0.634,1.534-1.65,5.145-0.734,6.515c0.223,0.33,0.928,0.762,2.481,0.461    c2.552-0.494,4.364-2.016,4.501-3.789C267.816,280.97,265.599,278.769,261.651,277.083z M291.299,273.994    c-1.579,3.694-1.69,6.36-1.026,7.457c0.19,0.313,0.56,0.734,1.572,0.75c0.002,0,0.005,0,0.007,0c1.484,0,2.322-0.375,2.609-1.116    C294.986,279.745,294.017,276.929,291.299,273.994z M327.125,268.066c-2.077,4.15-2.056,8.397-1.113,10.123    c0.128,0.237,0.394,0.636,0.707,0.636c0.779-0.04,1.467-0.651,1.918-1.676C329.565,275.041,329.38,271.556,327.125,268.066z"/>
		<path style="fill:#241726;" d="M392.672,264.042c-0.418,0-0.826-0.216-1.052-0.605c-0.337-0.582-0.138-1.325,0.442-1.662    c12.148-7.044,10.909-18.616,10.852-19.105c-0.081-0.665,0.394-1.27,1.059-1.353c0.651-0.064,1.27,0.392,1.353,1.056    c0.017,0.135,1.531,13.632-12.044,21.505C393.09,263.99,392.881,264.042,392.672,264.042z"/>
		<path style="fill:#241726;" d="M399.061,270.122c-0.415,0-0.821-0.214-1.047-0.598c-0.342-0.577-0.15-1.322,0.427-1.664    c0.093-0.055,9.219-5.634,13.041-21.75c0.154-0.655,0.8-1.071,1.462-0.902c0.653,0.154,1.056,0.81,0.902,1.462    c-4.079,17.201-13.763,23.046-14.174,23.286C399.482,270.068,399.27,270.122,399.061,270.122z"/>
		<path style="fill:#241726;" d="M429.315,289.766c-0.375,0-0.745-0.173-0.983-0.501c-6.688-9.207-25.042-5.961-25.223-5.928    c-0.693,0.109-1.294-0.318-1.415-0.976c-0.123-0.66,0.313-1.294,0.973-1.417c0.817-0.147,20.045-3.552,27.63,6.892    c0.394,0.544,0.275,1.303-0.268,1.698C429.814,289.69,429.564,289.766,429.315,289.766z"/>
		<path style="fill:#241726;" d="M422.929,299.103c-0.461,0-0.902-0.266-1.106-0.712c-0.228-0.494-5.734-12.099-20.61-9.432    c-0.677,0.104-1.294-0.32-1.413-0.98c-0.119-0.662,0.321-1.294,0.981-1.413c16.773-3.018,23.193,10.681,23.255,10.821    c0.278,0.61,0.007,1.327-0.603,1.605C423.268,299.068,423.097,299.103,422.929,299.103z"/>
	</g>
	<g>
		<path style="fill:#241726;" d="M365.14,419.397c-0.382,0-0.76-0.18-0.997-0.52c-0.385-0.551-0.249-1.308,0.302-1.693    c2.296-1.603,6.199-4.653,6.899-6.023c0.306-0.601,1.038-0.833,1.636-0.529c0.598,0.306,0.836,1.037,0.529,1.636    c-1.178,2.308-6.598,6.161-7.673,6.911C365.624,419.325,365.382,419.397,365.14,419.397z"/>
		<path style="fill:#241726;" d="M362.397,435.066c-0.382,0-0.76-0.18-0.997-0.52c-0.385-0.551-0.249-1.308,0.302-1.693    c2.298-1.603,6.201-4.653,6.899-6.021c0.304-0.603,1.045-0.833,1.633-0.532c0.598,0.304,0.838,1.035,0.532,1.633    c-1.175,2.308-6.598,6.163-7.673,6.914C362.882,434.995,362.64,435.066,362.397,435.066z"/>
		<path style="fill:#241726;" d="M346.462,433.539c-0.382,0-0.76-0.18-0.997-0.52c-0.385-0.551-0.249-1.308,0.302-1.693    c2.296-1.603,6.199-4.653,6.899-6.023c0.304-0.598,1.04-0.833,1.636-0.529c0.598,0.306,0.836,1.038,0.529,1.636    c-1.178,2.308-6.598,6.161-7.673,6.911C346.946,433.468,346.704,433.539,346.462,433.539z"/>
		<path style="fill:#241726;" d="M338.338,446.789c-0.489,0-0.95-0.297-1.135-0.779c-0.24-0.627,0.074-1.332,0.698-1.572    c2.616-1.004,7.137-3.029,8.143-4.193c0.439-0.51,1.206-0.563,1.714-0.123c0.508,0.439,0.563,1.206,0.123,1.714    c-1.695,1.959-7.885,4.402-9.11,4.872C338.63,446.763,338.483,446.789,338.338,446.789z"/>
		<path style="fill:#241726;" d="M326.472,441.808c-0.489,0-0.95-0.297-1.135-0.779c-0.24-0.627,0.074-1.332,0.698-1.572    c2.616-1.004,7.137-3.029,8.143-4.193c0.439-0.508,1.206-0.563,1.714-0.123c0.508,0.439,0.563,1.206,0.123,1.714    c-1.695,1.959-7.885,4.402-9.11,4.872C326.764,441.782,326.617,441.808,326.472,441.808z"/>
		<path style="fill:#241726;" d="M345.031,421.756c-0.382,0-0.76-0.18-0.997-0.52c-0.385-0.551-0.249-1.308,0.302-1.693    c2.298-1.603,6.201-4.656,6.899-6.023c0.306-0.603,1.045-0.836,1.633-0.532c0.598,0.304,0.838,1.035,0.532,1.633    c-1.175,2.308-6.598,6.166-7.673,6.916C345.515,421.685,345.273,421.756,345.031,421.756z"/>
		<path style="fill:#241726;" d="M365.104,404.095c-0.382,0-0.76-0.18-0.997-0.52c-0.385-0.551-0.249-1.308,0.302-1.693    c2.296-1.6,6.199-4.653,6.897-6.021c0.304-0.603,1.042-0.833,1.633-0.532c0.598,0.304,0.838,1.035,0.532,1.633    c-1.175,2.308-6.595,6.163-7.671,6.914C365.588,404.024,365.346,404.095,365.104,404.095z"/>
		<path style="fill:#241726;" d="M379.579,418.347c-0.382,0-0.76-0.18-0.997-0.52c-0.385-0.551-0.249-1.308,0.302-1.693    c2.298-1.603,6.201-4.656,6.899-6.023c0.304-0.603,1.045-0.836,1.633-0.532c0.598,0.304,0.838,1.035,0.532,1.633    c-1.175,2.308-6.598,6.166-7.673,6.916C380.063,418.276,379.821,418.347,379.579,418.347z"/>
		<path style="fill:#241726;" d="M384.268,399.967c-0.382,0-0.76-0.18-0.997-0.52c-0.385-0.551-0.249-1.308,0.302-1.693    c2.298-1.6,6.201-4.653,6.899-6.023c0.304-0.603,1.047-0.836,1.633-0.532c0.598,0.304,0.838,1.035,0.532,1.633    c-1.175,2.31-6.598,6.166-7.673,6.916C384.752,399.895,384.51,399.967,384.268,399.967z"/>
	</g>
	<g>
		<path style="fill:#241726;" d="M180.602,454.099c-0.024,0-0.05,0-0.076-0.002c-2.585-0.164-8.276-3.613-9.392-4.304    c-0.57-0.354-0.745-1.102-0.392-1.671c0.351-0.57,1.102-0.75,1.671-0.394c2.381,1.472,6.731,3.846,8.264,3.943    c0.67,0.043,1.18,0.62,1.137,1.289C181.775,453.603,181.241,454.099,180.602,454.099z"/>
		<path style="fill:#241726;" d="M165.13,457.796c-0.024,0-0.05,0-0.076-0.002c-2.585-0.164-8.276-3.613-9.392-4.304    c-0.57-0.354-0.745-1.102-0.392-1.671c0.351-0.57,1.102-0.753,1.671-0.394c2.381,1.472,6.731,3.846,8.264,3.943    c0.67,0.043,1.18,0.62,1.137,1.289C166.303,457.3,165.768,457.796,165.13,457.796z"/>
		<path style="fill:#241726;" d="M160.213,442.561c-0.024,0-0.052,0-0.078-0.002c-2.583-0.166-8.274-3.613-9.387-4.304    c-0.572-0.351-0.748-1.102-0.394-1.671c0.349-0.57,1.097-0.75,1.671-0.394c2.381,1.472,6.731,3.846,8.267,3.943    c0.67,0.043,1.178,0.62,1.135,1.292C161.386,442.067,160.849,442.561,160.213,442.561z"/>
		<path style="fill:#241726;" d="M143.58,442.352c-0.121,0-0.245-0.019-0.366-0.057c-2.469-0.779-7.165-5.491-8.082-6.429    c-0.47-0.48-0.461-1.249,0.019-1.719c0.482-0.465,1.254-0.461,1.719,0.019c1.959,2.001,5.61,5.349,7.075,5.812    c0.641,0.202,0.995,0.883,0.793,1.524C144.574,442.02,144.097,442.352,143.58,442.352z"/>
		<path style="fill:#241726;" d="M143.449,429.487c-0.121,0-0.245-0.019-0.366-0.057c-2.471-0.781-7.165-5.494-8.082-6.432    c-0.47-0.48-0.461-1.249,0.019-1.719c0.484-0.465,1.254-0.461,1.719,0.019c1.959,2.001,5.61,5.351,7.075,5.814    c0.641,0.202,0.995,0.886,0.793,1.524C144.444,429.157,143.964,429.487,143.449,429.487z"/>
		<path style="fill:#241726;" d="M170.462,436.576c-0.024,0-0.052,0-0.078-0.002c-2.583-0.166-8.274-3.613-9.387-4.304    c-0.572-0.351-0.748-1.102-0.394-1.671c0.349-0.57,1.094-0.75,1.671-0.394c2.381,1.472,6.731,3.846,8.267,3.943    c0.669,0.043,1.178,0.62,1.135,1.292C171.635,436.082,171.098,436.576,170.462,436.576z"/>
		<path style="fill:#241726;" d="M194.633,448c-0.024,0-0.052,0-0.078-0.002c-2.583-0.166-8.274-3.613-9.387-4.304    c-0.572-0.351-0.748-1.102-0.394-1.671c0.347-0.57,1.097-0.75,1.671-0.394c2.381,1.472,6.731,3.846,8.267,3.943    c0.669,0.043,1.178,0.62,1.135,1.292C195.806,447.506,195.27,448,194.633,448z"/>
		<path style="fill:#241726;" d="M187.29,466.941c-0.024,0-0.052,0-0.078-0.002c-2.583-0.166-8.274-3.613-9.387-4.304    c-0.572-0.351-0.748-1.102-0.394-1.671c0.349-0.57,1.094-0.75,1.671-0.394c2.381,1.472,6.731,3.846,8.267,3.943    c0.67,0.043,1.178,0.62,1.135,1.292C188.463,466.447,187.926,466.941,187.29,466.941z"/>
		<path style="fill:#241726;" d="M206.024,463.957c-0.024,0-0.05,0-0.076-0.002c-2.585-0.164-8.276-3.613-9.392-4.304    c-0.57-0.354-0.745-1.102-0.392-1.671c0.351-0.57,1.102-0.75,1.671-0.394c2.381,1.472,6.731,3.846,8.264,3.943    c0.67,0.043,1.18,0.62,1.137,1.289C207.197,463.461,206.663,463.957,206.024,463.957z"/>
	</g>
	<path style="fill:#FFFFFF;" d="M262.363,71.048c-0.494,0-0.957-0.302-1.14-0.793c-0.233-0.629,0.088-1.33,0.717-1.562   l157.213-58.347c0.636-0.237,1.327,0.085,1.562,0.717c0.233,0.629-0.088,1.33-0.717,1.562L262.785,70.972   C262.645,71.024,262.503,71.048,262.363,71.048z"/>
	<path style="fill:#FFFFFF;" d="M275.328,119.67c-0.572,0-1.083-0.408-1.192-0.992c-0.123-0.66,0.311-1.296,0.971-1.417   l165.316-30.795c0.651-0.119,1.294,0.309,1.417,0.971c0.123,0.66-0.311,1.296-0.971,1.417l-165.316,30.795   C275.478,119.663,275.404,119.67,275.328,119.67z"/>
</g>















</svg>
