<svg width="356" height="355" viewBox="0 0 356 355" fill="none" xmlns="http://www.w3.org/2000/svg">
<mask id="mask0_203_602" style="mask-type:alpha" maskUnits="userSpaceOnUse" x="0" y="0" width="356" height="355">
<circle cx="177.672" cy="177.573" r="177.423" fill="#D9D9D9"/>
</mask>
<g mask="url(#mask0_203_602)">
<path d="M-6.86201 393.495C-13.342 393.495 -18.5954 388.242 -18.5954 381.762C-19.014 364.451 -18.1576 230.503 -18.8039 216.94C-19.3556 164.468 -20.7437 108.938 9.49949 58.6012C72.212 -45.8192 217.369 -66.8514 306.941 15.7045C357.046 60.454 371.227 123.047 370.336 190.377L370.337 381.762C370.337 388.242 365.083 393.496 358.603 393.496H-6.86201V393.495Z" fill="white"/>
<path d="M358.674 158.799V381.885H-6.79257C-6.79257 327.815 -7.98559 273.607 -7.92699 219.518C-7.92699 215.861 -7.92699 212.185 -7.90773 208.528C-7.90773 208.215 -7.90773 207.922 -7.88848 207.609C-7.84913 196.032 -7.75117 184.455 -7.53685 172.879C-7.4975 170.474 -7.4389 168.049 -7.34094 165.644C-6.92987 153.539 -5.93276 141.474 -3.89919 129.564C10.9244 42.3285 87.0129 -23.2992 175.931 -23.2992C249.615 -23.2992 315.085 22.362 343.578 87.4806C350.618 103.496 355.389 120.685 357.501 138.656C358.283 145.345 358.674 152.072 358.674 158.799Z" fill="#FFAF6D"/>
<path d="M138.013 105.152C166.966 105.152 190.437 81.6813 190.437 52.7283C190.437 23.7752 166.966 0.304138 138.013 0.304138C109.06 0.304138 85.5889 23.7752 85.5889 52.7283C85.5889 81.6813 109.06 105.152 138.013 105.152Z" fill="#FFDFBA"/>
<path opacity="0.6" d="M358.674 158.799V211.304L245.02 199.689L171.296 162.729L179.626 146.753L226.05 119.806L240.541 120.803L258.003 104.827L280.98 105.316L297.954 88.3421L343.575 87.4815C350.615 103.497 355.387 120.686 357.499 138.657C358.283 145.345 358.674 152.072 358.674 158.799Z" fill="#E77953"/>
<path d="M358.674 193.216V194.996L286.653 197.656L279.359 197.93L-7.90686 208.529C-7.90686 208.216 -7.90686 207.923 -7.8876 207.61C-7.84825 196.033 -7.7503 184.456 -7.53598 172.88C-7.49663 170.474 -7.43802 168.05 -7.34007 165.645L17.8472 151.428L37.833 154.088L53.7709 92.2544C54.0254 91.2573 54.6508 90.4159 55.4913 89.9077C56.0196 89.5753 56.6258 89.3602 57.2905 89.3208L85.0983 87.5217L108.388 68.8662L155.654 65.5417L167.641 80.1886L179.12 80.7361C180.645 80.814 181.995 81.7533 182.562 83.1607L188.937 98.8248L198.284 100.487C199.517 100.702 200.592 101.504 201.12 102.637L221.359 144.662L225.564 153.422L238.705 156.394C239.663 156.629 240.504 157.196 241.07 158.018L252.842 175.383L358.674 193.216Z" fill="#822429"/>
<path d="M45.4784 176.712L56.136 203.678L18.4919 152.287L17.8464 151.426L37.8322 154.086L53.7701 92.2527C54.0246 91.2556 54.65 90.4142 55.4905 89.906L56.8008 186.372L45.4784 176.712Z" fill="#3D0100"/>
<path d="M85.0966 87.52L92.7453 124.458L108.387 68.8645L85.0966 87.52Z" fill="#3D0100"/>
<path d="M155.652 65.54L171.299 162.736L172.297 126.788L176.957 130.449L167.639 80.1869L155.652 65.54Z" fill="#3D0100"/>
<path d="M238.703 156.394L235.202 191.359L221.22 144.758L221.358 144.661L225.562 153.421L238.703 156.394Z" fill="#3D0100"/>
<path d="M358.674 193.216V193.998L287.473 188.366L286.711 197.01L286.652 197.655L279.358 197.929L278.615 197.304L253.897 176.281L252.842 175.382L358.674 193.216Z" fill="#3D0100"/>
<path d="M358.674 194.429V381.885H-6.79255C-6.79255 329.946 -7.86836 277.91 -7.92696 225.932C-7.94622 220.124 -7.92696 214.336 -7.90771 208.528C-7.90771 208.215 -7.90771 207.922 -7.88845 207.609L278.615 197.303L286.711 197.01L358.674 194.429Z" fill="#E77953"/>
<path opacity="0.34" d="M358.674 194.429V264.084L145.659 246.622L200.258 225.306L-7.92696 225.932C-7.94622 220.124 -7.92696 214.336 -7.90771 208.528C-7.90771 208.215 -7.90771 207.922 -7.88845 207.609L278.615 197.303L286.711 197.01L358.674 194.429Z" fill="#822429"/>
<path d="M222.948 15.841C222.765 13.1125 222.998 10.1974 224.289 7.97377C225.58 5.75015 228.167 4.52448 230.111 5.83304C231.181 6.55303 231.89 7.87833 232.444 9.22037C233.42 11.5855 234.051 14.1666 234.299 16.8038C235.486 14.483 238.504 14.5065 240.118 16.3902C241.733 18.2739 242.112 21.3347 241.722 24.0381C241.193 27.7092 239.144 31.2715 236.2 32.0803C234.498 32.5474 232.73 32.0685 231.031 31.5905C227.141 30.4963 220.652 28.9165 218.564 24.0079C217.727 22.0413 217.727 19.2392 218.451 17.2073C218.916 15.9004 222.701 12.1657 222.948 15.841Z" fill="#FFDFBA"/>
<path d="M320.215 120.081C320.215 120.081 320.234 120.101 320.215 120.121C320.254 121.49 320.254 122.898 320.215 124.286V124.305C319.491 144.799 309.948 168.715 296.455 174.562C292.739 176.165 289.122 177.456 285.699 178.492C285.308 178.61 284.897 178.727 284.487 178.864C280.048 180.135 275.922 180.996 272.285 181.562C271.913 181.621 271.561 181.66 271.209 181.719C266.594 182.384 262.839 182.58 260.278 182.618H259.3C257.481 182.618 256.503 182.54 256.503 182.54L253.511 271.908L185.421 272.788L191.6 126.124C191.6 126.124 189.351 125.83 185.772 125.028C185.421 124.95 185.049 124.872 184.658 124.774C181.842 124.109 178.361 123.171 174.587 121.84C173.962 121.625 173.355 121.41 172.71 121.176C160.038 116.463 144.687 107.624 139.173 91.6667C134.637 78.5058 133.404 68.024 134.539 60.5151C134.734 59.1856 135.008 57.934 135.36 56.7996C135.985 54.6873 136.846 52.8882 137.922 51.4415C138.215 51.0304 138.528 50.6394 138.88 50.2878C140.542 48.4694 142.596 47.3542 144.962 46.9247C145.275 46.8661 145.587 46.8268 145.92 46.7874C146.331 46.7481 146.742 46.7288 147.172 46.7288C159.159 46.7288 160.646 73.2071 169.641 84.6861C171.87 87.5217 174.412 89.6725 176.955 91.2765C177.698 91.7454 178.46 92.1757 179.203 92.5474C186.146 96.165 192.599 96.165 192.599 96.165C192.599 96.165 196.49 32.6102 221.306 21.2493H221.325C221.872 20.9756 222.439 20.7403 223.026 20.5645H223.045C224.727 19.9584 226.506 19.6059 228.384 19.5481C228.717 19.5289 229.049 19.5088 229.381 19.5088C230.418 19.5088 231.454 19.6067 232.549 19.7826C233.782 19.9776 234.955 20.31 236.069 20.7797C236.421 20.9161 236.773 21.0727 237.125 21.2493C241.603 23.4587 245.279 27.7804 248.271 33.5295C248.271 33.5487 248.271 33.5487 248.29 33.5487C248.819 34.5458 249.327 35.6216 249.816 36.7167C249.816 36.736 249.835 36.7561 249.835 36.7753C264.99 70.9383 261.001 144.094 261.001 144.094C261.001 144.094 271.483 149.59 278.483 133.612C284.428 120.041 288.554 92.7425 301.93 92.5273C302.243 92.5273 302.576 92.5273 302.908 92.5658C305 92.7224 307.347 93.5437 309.928 95.167C311.18 95.9498 312.294 96.8883 313.253 98.0026C313.624 98.3543 313.937 98.726 314.211 99.117C318.122 104.124 319.999 111.673 320.215 120.081Z" fill="#7D977E"/>
<g opacity="0.36">
<path d="M223.025 20.5653C213.952 32.3967 207.421 47.4145 203.607 65.3073C199.735 83.3767 199.012 102.169 198.308 120.316L193.849 236.63C193.536 244.843 193.223 253.331 193.947 261.603C193.966 261.876 193.771 262.111 193.497 262.131C193.497 262.131 193.478 262.131 193.459 262.131C193.204 262.131 193.009 261.955 192.97 261.701C192.246 253.35 192.559 244.844 192.872 236.611L197.331 120.277C198.035 102.071 198.758 83.2595 202.649 65.1122C206.365 47.7075 212.622 33.0029 221.305 21.2502H221.324C221.872 20.9756 222.438 20.7412 223.025 20.5653Z" fill="#3D0100"/>
<path d="M229.381 19.5088C214.968 100.311 214.205 183.655 213.443 264.281C213.443 264.555 213.208 264.77 212.954 264.77H212.934C212.679 264.77 212.465 264.535 212.465 264.262C213.228 183.695 213.99 100.369 228.383 19.5481C228.716 19.5289 229.048 19.5088 229.381 19.5088Z" fill="#3D0100"/>
<path d="M238.298 39.3966C238.473 72.015 236.635 105.102 234.856 137.094L228.11 259.256C228.09 259.51 227.875 259.706 227.621 259.706C227.601 259.706 227.601 259.706 227.581 259.706C227.327 259.706 227.112 259.471 227.132 259.197L233.878 137.036C235.657 105.063 237.496 71.9957 237.32 39.4159C237.28 33.002 237.163 26.764 236.068 20.7797C236.42 20.9161 236.772 21.0727 237.124 21.2493C238.141 27.0964 238.258 33.1979 238.298 39.3966Z" fill="#3D0100"/>
<path d="M251.38 150.861C251.125 155.105 250.872 159.348 250.617 163.573C250.304 168.95 250.011 174.347 249.717 179.725C248.172 207.688 246.588 236.591 241.974 264.653C241.934 264.907 241.719 265.064 241.485 265.064H241.406C241.132 265.024 240.957 264.77 240.996 264.496C245.631 236.474 247.215 207.59 248.739 179.666C249.033 174.289 249.326 168.891 249.639 163.514C249.894 159.289 250.147 155.046 250.421 150.803C252.807 111.927 255.271 71.9363 248.29 33.5496C248.818 34.5467 249.326 35.6225 249.815 36.7175C249.815 36.7368 249.834 36.7569 249.834 36.7762C256.093 74.2243 253.707 113.061 251.38 150.861Z" fill="#3D0100"/>
<path d="M298.273 122.819C293.248 134.944 284.408 145.522 273.36 152.602C272.949 152.876 272.519 153.13 272.108 153.404C269.879 154.792 267.571 156.239 265.91 158.254C264.033 160.561 263.074 163.553 262.39 166.174C261.002 171.513 260.298 177.066 260.278 182.62H259.3C259.319 176.988 260.043 171.356 261.451 165.939C262.155 163.221 263.152 160.092 265.166 157.649C266.907 155.497 269.292 154.011 271.58 152.583C272.01 152.31 272.42 152.055 272.832 151.782C283.724 144.821 292.425 134.398 297.354 122.449C301.245 113.043 302.81 102.678 301.93 92.5298C302.243 92.5298 302.576 92.5299 302.908 92.5684C303.769 102.833 302.204 113.315 298.273 122.819Z" fill="#3D0100"/>
<path d="M314.211 99.1186C314.192 100.194 314.133 101.25 314.055 102.287C313.37 111.712 311.825 123.797 305.763 133.966C302.478 139.5 298 144.232 293.659 148.828C292.681 149.864 291.703 150.901 290.745 151.937C280.889 162.575 274.867 172.197 272.285 181.563C271.913 181.622 271.561 181.661 271.209 181.72C273.79 172.079 279.931 162.184 290.021 151.272C290.98 150.217 291.957 149.199 292.934 148.163C297.256 143.607 301.695 138.893 304.922 133.477C310.886 123.484 312.411 111.516 313.076 102.227C313.154 100.878 313.252 99.4502 313.252 98.0035C313.624 98.3559 313.937 98.7268 314.211 99.1186Z" fill="#3D0100"/>
<path d="M320.215 120.121C320.254 121.49 320.254 122.898 320.215 124.286V124.305C318.729 129.898 316.675 135.354 313.722 140.419C310.203 146.481 305.489 151.819 300.914 157.001C299.134 159.035 297.276 161.127 295.516 163.259C292.29 167.132 288.32 172.392 285.699 178.492C285.308 178.61 284.897 178.727 284.487 178.864C287.127 172.333 291.351 166.72 294.754 162.633C296.533 160.502 298.391 158.39 300.19 156.356C304.726 151.213 309.401 145.913 312.881 139.93C316.479 133.77 318.728 127.024 320.215 120.121Z" fill="#3D0100"/>
<path d="M179.202 92.5474C169.718 91.6483 160.057 85.6246 154.054 76.3165C148.207 67.2621 145.939 56.4873 144.961 46.9256C145.274 46.867 145.586 46.8276 145.92 46.7883C146.897 56.2529 149.107 66.8904 154.876 75.7882C160.234 84.0799 168.526 89.7118 176.954 91.2765C177.697 91.7462 178.458 92.1757 179.202 92.5474Z" fill="#3D0100"/>
<path d="M185.772 125.029C185.421 124.951 185.049 124.873 184.658 124.775C183.954 122.291 182.917 119.906 181.471 117.735C177.755 112.182 172.025 108.818 165.983 105.259C162.307 103.088 158.513 100.859 155.247 98.0822C146.232 90.4946 142.145 79.739 140.288 72.0736C138.625 65.1901 138.058 58.1115 137.922 51.4431C138.215 51.0321 138.528 50.6411 138.88 50.2895C138.978 57.2508 139.526 64.6626 141.246 71.8592C143.065 79.3874 147.074 89.9085 155.874 97.3396C159.081 100.058 162.835 102.267 166.473 104.418C172.359 107.879 178.441 111.458 182.293 117.207C183.914 119.632 185.03 122.272 185.772 125.029Z" fill="#3D0100"/>
<path d="M174.587 121.841C173.962 121.626 173.355 121.411 172.71 121.176C169.699 117.852 166.002 115.114 162.404 112.475C160.057 110.734 157.613 108.935 155.384 106.979C143.123 96.2629 135.732 79.446 134.539 60.5159C134.734 59.1864 135.008 57.9348 135.36 56.8004C135.751 76.9419 143.182 95.0113 156.03 106.236C158.239 108.172 160.644 109.951 162.991 111.672C166.804 114.488 170.754 117.402 173.922 121.038C174.157 121.294 174.372 121.567 174.587 121.841Z" fill="#3D0100"/>
</g>
<path d="M145.138 254.589C147.727 249.099 154.297 246.227 160.343 246.766C166.388 247.306 171.866 250.716 176.193 254.974C174.706 244.574 180.055 233.667 188.878 227.965C197.702 222.265 209.484 221.766 219.032 226.149C228.579 230.531 235.758 239.488 238.576 249.608C242.444 239.034 253.219 231.379 264.477 231.207C275.735 231.035 286.738 238.358 290.927 248.809C292.12 251.786 292.799 255.054 292.255 258.214C291.263 263.967 286.514 268.274 281.74 271.636C261.764 285.701 237.095 291.288 212.89 294.597C200.626 296.273 188.172 297.444 175.886 295.932C166.45 294.771 156.948 291.882 149.647 285.791C142.346 279.7 137.621 269.979 139.281 260.617" fill="#3D0100"/>
<path d="M358.674 263.439V381.885H-6.79251C-6.79251 352.024 -7.16423 322.124 -7.47734 292.224C-7.73185 267.975 -7.94701 243.747 -7.92692 219.518C52.8115 208.156 118.36 223.859 166.955 262.148C168.949 263.732 170.984 265.375 173.448 265.962C176.166 266.647 179.021 265.943 181.739 265.277C228.516 253.779 277.383 250.865 325.215 256.673C336.421 258.042 347.86 260.017 358.674 263.439Z" fill="#FFAF6D"/>
<path d="M211.282 324.824C211.015 326.924 210.568 328.982 209.966 331.011C209.811 331.582 209.638 332.159 209.441 332.724C206.145 342.698 199.218 351.508 190.149 356.878C189.928 357.017 189.682 357.144 189.454 357.263C189.147 357.453 188.834 357.623 188.514 357.775C181.371 361.652 173.285 363.579 165.255 364.949C163.73 365.207 162.181 365.453 160.618 365.662C160.304 365.709 159.989 365.756 159.656 365.809C149.911 367.068 139.888 367.223 130.686 364.487C130.345 364.398 130.016 364.284 129.686 364.17C127.34 363.429 125.023 362.472 122.814 361.291C115.001 357.124 108.921 350.432 104.635 342.644C104.257 341.968 103.897 341.286 103.555 340.597L103.549 340.579C101.088 335.678 99.2973 330.379 98.1805 325.054C97.1876 320.266 96.6627 315.337 97.4304 310.499C98.8637 301.479 104.64 293.709 111.279 287.42C118.911 280.167 127.648 275.159 136.913 272.452C137.665 272.233 138.442 272.027 139.207 271.845C147.909 269.664 157.053 269.482 166.128 271.372C166.147 271.366 166.165 271.359 166.165 271.359C166.183 271.353 166.19 271.371 166.19 271.371C166.853 271.493 167.53 271.653 168.174 271.844L168.218 271.85C171.709 272.67 175.209 273.819 178.652 275.277C186.164 278.452 193.39 282.596 199.108 288.419C208.378 297.875 212.991 311.695 211.282 324.824Z" fill="#7D977E"/>
<path d="M150.991 278.218C150.991 278.28 150.974 278.348 150.913 278.41C150.883 278.565 150.699 278.691 150.482 278.662C149.975 278.631 149.48 278.636 148.974 278.667C146.23 278.87 143.565 280.019 141.253 281.171C130.317 286.586 121.126 294.71 114.663 304.622C108.078 314.72 104.458 326.751 104.484 338.495C104.486 339.88 104.552 341.264 104.635 342.642C104.257 341.967 103.897 341.284 103.555 340.595L103.549 340.577C103.534 339.879 103.502 339.186 103.507 338.481C103.486 326.571 107.146 314.359 113.841 304.099C120.414 294.026 129.735 285.796 140.824 280.286C143.56 278.925 146.81 277.553 150.163 277.677C150.287 277.675 150.417 277.693 150.541 277.691C150.818 277.719 151.018 277.94 150.991 278.218Z" fill="#3D0100"/>
<path d="M151.705 277.35C158.644 309.568 161.59 338.613 160.618 365.661C160.303 365.708 159.988 365.755 159.655 365.808C160.599 339.038 157.737 310.294 150.913 278.41C150.919 278.367 150.912 278.348 150.899 278.312C150.752 278.425 150.623 278.531 150.482 278.662C143.295 284.623 137.836 293.732 134.28 305.825C128.685 324.83 128.954 345.118 130.686 364.486C130.345 364.397 130.016 364.283 129.686 364.169C127.968 344.838 127.748 324.575 133.336 305.551C136.798 293.781 142.053 284.742 148.974 278.667C149.354 278.328 149.752 277.984 150.163 277.676C150.383 277.476 150.628 277.288 150.855 277.106C150.873 277.099 150.904 277.068 150.923 277.062C151.052 276.955 151.231 276.934 151.392 276.982C151.46 277 151.522 277.061 151.56 277.11C151.64 277.165 151.691 277.252 151.705 277.35Z" fill="#3D0100"/>
<path d="M189.454 357.263C189.147 357.453 188.834 357.623 188.514 357.775C187.071 336.486 181.099 315.625 170.981 296.777C167.514 290.341 162.595 282.338 155.133 277.51C154.903 277.383 154.838 277.074 154.983 276.837C155.136 276.62 155.444 276.554 155.662 276.707C163.305 281.637 168.312 289.775 171.836 296.316C181.946 315.145 187.956 335.993 189.454 357.263Z" fill="#3D0100"/>
<path d="M209.965 331.011C209.81 331.582 209.638 332.159 209.44 332.724C206.415 322.121 202.43 313.05 197.378 305.258C187.869 290.627 174.014 280.354 159.358 277.104C159.091 277.052 158.933 276.775 158.993 276.527C159.045 276.26 159.296 276.09 159.564 276.143C174.467 279.453 188.542 289.877 198.188 304.729C203.076 312.226 206.971 320.914 209.965 331.011Z" fill="#3D0100"/>
<path d="M168.173 271.842C164.188 272.765 160.34 274.199 156.731 276.151C156.485 276.277 156.2 276.169 156.061 275.948C155.935 275.702 156.019 275.405 156.264 275.278C159.405 273.592 162.718 272.281 166.128 271.371C166.146 271.365 166.165 271.359 166.165 271.359C166.183 271.352 166.19 271.37 166.19 271.37C166.852 271.492 167.529 271.652 168.173 271.842Z" fill="#3D0100"/>
<path d="M151.651 277.017C151.627 277.067 151.597 277.098 151.559 277.111C151.516 277.167 151.449 277.211 151.393 277.23C151.263 277.274 151.115 277.264 150.985 277.185C150.935 277.16 150.885 277.137 150.854 277.106C146.548 274.643 141.786 273.082 136.912 272.45C137.664 272.232 138.441 272.025 139.206 271.843C143.488 272.618 147.674 274.13 151.483 276.351C151.713 276.478 151.797 276.78 151.651 277.017Z" fill="#3D0100"/>
<path d="M145.346 276.733C143.914 277.3 142.427 278.096 141.952 279.234C141.456 280.423 142.256 281.595 143.372 282.352C146.089 284.195 150.344 284.265 154.269 283.962C156.859 283.762 159.451 283.438 162.028 282.992C164.033 282.644 166.39 281.982 167.077 280.508C167.336 279.952 167.297 279.366 167.1 278.841C164.965 273.136 151.097 274.454 145.346 276.733Z" fill="#FFDFBA"/>
<path d="M120.402 284.747C120.269 284.73 120.141 284.676 120.032 284.586L113.125 278.874C112.813 278.615 112.769 278.152 113.027 277.842C113.286 277.528 113.75 277.488 114.059 277.742L120.966 283.455C121.278 283.714 121.323 284.176 121.065 284.487C120.896 284.69 120.644 284.78 120.402 284.747Z" fill="#3D0100"/>
<path d="M105.596 304.571C105.559 304.566 105.518 304.557 105.478 304.546L94.5453 301.194C94.1585 301.075 93.94 300.664 94.0589 300.277C94.1761 299.891 94.5771 299.674 94.9756 299.791L105.909 303.143C106.295 303.262 106.514 303.673 106.395 304.06C106.289 304.408 105.946 304.618 105.596 304.571Z" fill="#3D0100"/>
<path d="M125.318 310.43C124.978 310.385 124.706 310.106 124.683 309.749L124.016 299.414C123.991 299.01 124.298 298.662 124.702 298.635C125.102 298.607 125.454 298.916 125.482 299.32L126.149 309.656C126.174 310.06 125.868 310.408 125.463 310.435C125.414 310.438 125.366 310.436 125.318 310.43Z" fill="#3D0100"/>
<path d="M101.37 350.408C101.13 350.377 100.91 350.223 100.801 349.986C100.632 349.618 100.794 349.184 101.163 349.015L110.747 344.644C111.11 344.475 111.55 344.636 111.717 345.008C111.886 345.375 111.724 345.81 111.355 345.978L101.771 350.348C101.642 350.408 101.503 350.426 101.37 350.408Z" fill="#3D0100"/>
<path d="M142.822 308.34C142.684 308.322 142.551 308.266 142.438 308.168C142.133 307.903 142.1 307.44 142.365 307.133L149.535 298.842C149.802 298.536 150.265 298.502 150.57 298.768C150.876 299.032 150.908 299.495 150.644 299.803L143.473 308.094C143.305 308.288 143.059 308.372 142.822 308.34Z" fill="#3D0100"/>
<path d="M147.957 336.942C147.845 336.927 147.735 336.885 147.636 336.818L137.213 329.591C136.879 329.36 136.797 328.904 137.028 328.571C137.257 328.235 137.712 328.157 138.048 328.386L148.471 335.612C148.805 335.843 148.886 336.3 148.656 336.633C148.495 336.867 148.219 336.977 147.957 336.942Z" fill="#3D0100"/>
<path d="M144.248 358.298C144.081 358.276 143.92 358.197 143.8 358.061C143.529 357.761 143.553 357.296 143.855 357.026L152.923 348.872C153.225 348.6 153.688 348.623 153.958 348.927C154.228 349.228 154.205 349.693 153.902 349.962L144.835 358.116C144.669 358.266 144.453 358.326 144.248 358.298Z" fill="#3D0100"/>
<path d="M167.069 302.07C166.938 302.052 166.812 302.001 166.703 301.912L160.09 296.537C159.777 296.283 159.729 295.82 159.985 295.505C160.239 295.189 160.7 295.14 161.016 295.4L167.629 300.775C167.942 301.028 167.99 301.491 167.734 301.806C167.568 302.011 167.313 302.102 167.069 302.07Z" fill="#3D0100"/>
<path d="M168.637 329.526C168.553 329.515 168.471 329.488 168.392 329.447C168.034 329.259 167.896 328.814 168.087 328.457L173.036 319.086C173.224 318.729 173.666 318.596 174.026 318.781C174.385 318.97 174.522 319.414 174.331 319.772L169.381 329.142C169.236 329.42 168.933 329.565 168.637 329.526Z" fill="#3D0100"/>
<path d="M180.752 353.865C180.628 353.848 180.51 353.802 180.404 353.723L171.806 347.187C171.484 346.941 171.421 346.482 171.666 346.159C171.914 345.836 172.374 345.778 172.694 346.019L181.292 352.554C181.614 352.799 181.678 353.259 181.432 353.582C181.266 353.799 181.003 353.899 180.752 353.865Z" fill="#3D0100"/>
<path d="M132.853 277.978C132.644 277.95 132.45 277.833 132.328 277.642L128.229 271.133C128.013 270.79 128.116 270.338 128.459 270.121C128.802 269.903 129.254 270.008 129.47 270.351L133.57 276.859C133.786 277.202 133.683 277.654 133.341 277.87C133.189 277.967 133.017 278 132.853 277.978Z" fill="#3D0100"/>
<path d="M152.054 272.395C151.666 272.343 151.386 271.996 151.42 271.603L152.122 263.699C152.158 263.295 152.514 262.998 152.918 263.033C153.402 263.125 153.618 263.427 153.584 263.829L152.883 271.733C152.846 272.136 152.49 272.434 152.086 272.399C152.074 272.398 152.063 272.396 152.054 272.395Z" fill="#3D0100"/>
<path d="M178.745 280.071C178.519 280.04 178.31 279.906 178.195 279.689C178.004 279.331 178.14 278.888 178.497 278.697L188.306 273.457C188.661 273.265 189.106 273.398 189.298 273.759C189.49 274.116 189.354 274.56 188.996 274.751L179.187 279.991C179.046 280.066 178.893 280.09 178.745 280.071Z" fill="#3D0100"/>
<path d="M193.874 291.744C193.573 291.704 193.316 291.477 193.252 291.163C193.172 290.766 193.428 290.377 193.824 290.298L204.932 288.042C205.328 287.966 205.715 288.218 205.797 288.615C205.877 289.013 205.622 289.4 205.226 289.481L194.117 291.736C194.035 291.752 193.953 291.755 193.874 291.744Z" fill="#3D0100"/>
<path d="M192.997 312.123C192.931 312.114 192.863 312.095 192.796 312.067L183.75 308.062C183.38 307.898 183.213 307.465 183.376 307.094C183.539 306.726 183.967 306.562 184.345 306.72L193.392 310.725C193.761 310.89 193.928 311.323 193.765 311.694C193.631 311.997 193.311 312.165 192.997 312.123Z" fill="#3D0100"/>
<path d="M194.38 329.871C194.261 329.855 194.143 329.811 194.041 329.734C193.715 329.493 193.645 329.033 193.887 328.709L200.187 320.19C200.429 319.865 200.893 319.795 201.211 320.036C201.538 320.276 201.607 320.736 201.365 321.06L195.066 329.578C194.901 329.801 194.636 329.904 194.38 329.871Z" fill="#3D0100"/>
<path d="M207.605 312.353C207.369 312.321 207.151 312.173 207.04 311.94C206.865 311.574 207.021 311.138 207.388 310.964L215.555 307.085C215.913 306.911 216.355 307.066 216.531 307.433C216.705 307.8 216.55 308.235 216.183 308.409L208.016 312.289C207.884 312.352 207.742 312.372 207.605 312.353Z" fill="#3D0100"/>
<path d="M119.551 331.178C119.396 331.157 119.249 331.087 119.13 330.969L111.864 323.708C111.577 323.421 111.577 322.957 111.864 322.672C112.151 322.385 112.615 322.387 112.9 322.672L120.166 329.933C120.453 330.22 120.453 330.684 120.166 330.969C120 331.138 119.769 331.207 119.551 331.178Z" fill="#3D0100"/>
<path d="M199.102 342.765C198.75 342.718 198.475 342.422 198.467 342.057C198.455 341.653 198.776 341.316 199.18 341.305L212.439 340.947C212.853 340.943 213.181 341.257 213.192 341.66C213.203 342.065 212.883 342.401 212.478 342.413L199.219 342.77C199.178 342.77 199.14 342.77 199.102 342.765Z" fill="#3D0100"/>
<path d="M327.675 265.383C327.7 266.96 327.588 268.525 327.358 270.086C327.304 270.523 327.238 270.967 327.152 271.405C325.776 279.11 321.597 286.34 315.477 291.259C315.329 291.385 315.161 291.503 315.006 291.616C314.799 291.788 314.586 291.947 314.366 292.093C309.508 295.707 303.747 297.983 297.97 299.842C296.872 300.194 295.755 300.539 294.625 300.858C294.398 300.926 294.17 300.994 293.93 301.068C286.876 303.028 279.5 304.201 272.424 303.156C272.163 303.126 271.908 303.077 271.654 303.028C269.845 302.729 268.034 302.268 266.28 301.63C260.077 299.382 254.885 295.09 250.901 289.799C250.55 289.34 250.213 288.875 249.888 288.403L249.881 288.39C247.548 285.035 245.668 281.316 244.281 277.507C243.043 274.08 242.135 270.5 242.19 266.85C242.294 260.045 245.732 253.704 249.964 248.364C254.826 242.208 260.742 237.591 267.288 234.614C267.82 234.373 268.371 234.139 268.916 233.925C275.104 231.396 281.829 230.294 288.722 230.73C288.734 230.723 288.748 230.716 288.748 230.716C288.76 230.71 288.767 230.722 288.767 230.722C289.269 230.742 289.784 230.788 290.281 230.861H290.313C292.975 231.097 295.678 231.575 298.371 232.286C304.248 233.834 310.016 236.126 314.848 239.817C322.685 245.814 327.548 255.519 327.675 265.383Z" fill="#7D977E"/>
<path d="M278.281 237.382C278.288 237.427 278.283 237.48 278.244 237.533C278.239 237.65 278.116 237.762 277.954 237.765C277.576 237.795 277.212 237.852 276.841 237.927C274.839 238.368 272.995 239.497 271.411 240.59C263.918 245.741 257.997 252.704 254.277 260.698C250.488 268.842 249.09 278.099 250.351 286.757C250.5 287.779 250.694 288.793 250.901 289.801C250.55 289.342 250.213 288.877 249.888 288.405L249.881 288.392C249.797 287.877 249.7 287.371 249.628 286.85C248.353 278.068 249.762 268.674 253.616 260.399C257.399 252.274 263.404 245.219 271 239.983C272.874 238.69 275.126 237.335 277.613 237.071C277.704 237.057 277.802 237.056 277.892 237.042C278.101 237.032 278.272 237.174 278.281 237.382Z" fill="#3D0100"/>
<path d="M278.715 236.666C287.239 259.695 292.482 280.806 294.625 300.859C294.398 300.927 294.17 300.995 293.93 301.069C291.797 281.225 286.647 260.328 278.243 237.532C278.242 237.499 278.237 237.487 278.222 237.461C278.126 237.56 278.042 237.652 277.952 237.764C273.281 242.92 270.218 250.216 268.872 259.51C266.755 274.119 269.098 289.054 272.422 303.156C272.161 303.127 271.906 303.078 271.652 303.028C268.341 288.952 266.037 274.03 268.148 259.408C269.458 250.361 272.378 243.14 276.839 237.926C277.084 237.637 277.341 237.34 277.611 237.07C277.753 236.899 277.913 236.734 278.062 236.576C278.075 236.569 278.094 236.543 278.107 236.537C278.191 236.445 278.32 236.41 278.444 236.429C278.496 236.435 278.549 236.473 278.581 236.506C278.649 236.538 278.695 236.595 278.715 236.666Z" fill="#3D0100"/>
<path d="M315.006 291.616C314.799 291.788 314.586 291.947 314.366 292.093C311.051 276.543 304.441 261.788 294.987 248.957C291.749 244.576 287.275 239.193 281.261 236.422C281.077 236.352 280.997 236.131 281.079 235.941C281.168 235.765 281.389 235.684 281.566 235.773C287.725 238.601 292.278 244.075 295.568 248.526C305.016 261.346 311.652 276.087 315.006 291.616Z" fill="#3D0100"/>
<path d="M327.359 270.086C327.305 270.523 327.239 270.967 327.153 271.405C323.801 263.904 319.903 257.634 315.352 252.422C306.794 242.636 295.488 236.524 284.335 235.676C284.133 235.665 283.987 235.478 284.004 235.289C284.015 235.087 284.182 234.935 284.384 234.946C295.727 235.812 307.209 242.012 315.894 251.946C320.292 256.959 324.083 262.956 327.359 270.086Z" fill="#3D0100"/>
<path d="M290.28 230.863C287.438 231.965 284.751 233.429 282.296 235.25C282.128 235.369 281.906 235.319 281.78 235.171C281.662 235.003 281.691 234.774 281.859 234.655C283.998 233.08 286.302 231.763 288.721 230.732C288.733 230.725 288.747 230.718 288.747 230.718C288.759 230.711 288.766 230.724 288.766 230.724C289.269 230.744 289.784 230.791 290.28 230.863Z" fill="#3D0100"/>
<path d="M278.641 236.426C278.628 236.466 278.609 236.491 278.583 236.505C278.557 236.551 278.513 236.59 278.473 236.61C278.383 236.657 278.273 236.665 278.167 236.62C278.128 236.608 278.088 236.595 278.062 236.576C274.626 235.215 270.95 234.567 267.288 234.616C267.819 234.375 268.37 234.141 268.915 233.926C272.155 234.045 275.402 234.717 278.447 235.953C278.63 236.023 278.724 236.236 278.641 236.426Z" fill="#3D0100"/>
<path d="M273.961 236.883C272.965 237.453 271.952 238.198 271.722 239.087C271.482 240.016 272.195 240.796 273.1 241.236C275.298 242.308 278.443 241.91 281.307 241.271C283.195 240.85 285.073 240.337 286.927 239.735C288.369 239.267 290.037 238.529 290.389 237.369C290.521 236.932 290.43 236.504 290.23 236.137C288.051 232.156 277.961 234.594 273.961 236.883Z" fill="#FFDFBA"/>
<path d="M256.41 245.431C256.31 245.432 256.211 245.406 256.12 245.352L250.422 241.869C250.164 241.711 250.083 241.374 250.24 241.118C250.399 240.859 250.737 240.78 250.991 240.935L256.689 244.418C256.947 244.576 257.028 244.913 256.871 245.169C256.769 245.337 256.591 245.429 256.41 245.431Z" fill="#3D0100"/>
<path d="M247.586 261.618C247.557 261.618 247.526 261.615 247.496 261.612L239.078 260.295C238.78 260.248 238.576 259.968 238.623 259.67C238.668 259.372 238.941 259.171 239.247 259.215L247.665 260.532C247.963 260.579 248.168 260.858 248.121 261.156C248.079 261.423 247.849 261.615 247.586 261.618Z" fill="#3D0100"/>
<path d="M262.752 263.854C262.495 263.856 262.266 263.679 262.211 263.419L260.626 255.867C260.565 255.571 260.754 255.283 261.05 255.22C261.342 255.157 261.634 255.348 261.697 255.643L263.282 263.196C263.343 263.491 263.154 263.78 262.858 263.843C262.823 263.85 262.787 263.853 262.752 263.854Z" fill="#3D0100"/>
<path d="M249.314 295.872C249.133 295.874 248.955 295.784 248.849 295.621C248.686 295.368 248.759 295.03 249.014 294.866L255.62 290.63C255.871 290.467 256.211 290.539 256.375 290.795C256.538 291.048 256.464 291.386 256.21 291.549L249.603 295.786C249.515 295.843 249.414 295.871 249.314 295.872Z" fill="#3D0100"/>
<path d="M275.44 260.462C275.336 260.463 275.232 260.436 275.139 260.375C274.885 260.213 274.812 259.875 274.976 259.62L279.388 252.747C279.552 252.493 279.89 252.418 280.143 252.583C280.397 252.745 280.469 253.083 280.307 253.338L275.894 260.211C275.791 260.373 275.618 260.461 275.44 260.462Z" fill="#3D0100"/>
<path d="M282.25 281.015C282.166 281.016 282.081 280.996 282.001 280.958L273.549 276.73C273.279 276.594 273.171 276.267 273.305 275.997C273.439 275.725 273.767 275.619 274.038 275.752L282.49 279.98C282.76 280.116 282.868 280.443 282.734 280.713C282.639 280.903 282.449 281.013 282.25 281.015Z" fill="#3D0100"/>
<path d="M281.773 297.159C281.647 297.16 281.521 297.119 281.417 297.031C281.186 296.839 281.154 296.493 281.348 296.262L287.174 289.289C287.368 289.057 287.712 289.025 287.943 289.22C288.174 289.413 288.206 289.759 288.012 289.99L282.186 296.962C282.079 297.09 281.927 297.157 281.773 297.159Z" fill="#3D0100"/>
<path d="M292.661 253.274C292.563 253.275 292.464 253.251 292.374 253.196L286.929 249.931C286.671 249.777 286.587 249.441 286.743 249.182C286.897 248.921 287.231 248.837 287.493 248.995L292.938 252.26C293.196 252.414 293.279 252.751 293.125 253.01C293.022 253.179 292.844 253.272 292.661 253.274Z" fill="#3D0100"/>
<path d="M296.72 273.359C296.658 273.36 296.594 273.349 296.531 273.327C296.247 273.226 296.099 272.912 296.201 272.629L298.861 265.193C298.962 264.91 299.274 264.766 299.559 264.864C299.843 264.965 299.991 265.278 299.889 265.562L297.229 272.996C297.15 273.218 296.942 273.357 296.72 273.359Z" fill="#3D0100"/>
<path d="M308.228 290.03C308.136 290.031 308.043 290.009 307.957 289.961L300.924 286.05C300.661 285.903 300.565 285.571 300.712 285.306C300.86 285.042 301.194 284.951 301.456 285.095L308.488 289.006C308.751 289.153 308.847 289.485 308.7 289.749C308.6 289.927 308.417 290.028 308.228 290.03Z" fill="#3D0100"/>
<path d="M264.877 239.122C264.721 239.124 264.565 239.058 264.455 238.929L260.744 234.563C260.548 234.332 260.577 233.988 260.807 233.792C261.037 233.595 261.381 233.624 261.577 233.854L265.288 238.221C265.484 238.451 265.456 238.795 265.226 238.991C265.124 239.078 265.001 239.121 264.877 239.122Z" fill="#3D0100"/>
<path d="M278.449 232.974C278.158 232.977 277.915 232.751 277.898 232.457L277.579 226.554C277.563 226.252 277.795 225.995 278.096 225.978C278.463 225.995 278.654 226.195 278.671 226.494L278.989 232.398C279.005 232.7 278.774 232.957 278.473 232.974C278.465 232.974 278.456 232.974 278.449 232.974Z" fill="#3D0100"/>
<path d="M298.947 235.814C298.778 235.816 298.609 235.739 298.501 235.591C298.323 235.348 298.376 235.005 298.619 234.827L305.3 229.925C305.541 229.746 305.884 229.797 306.064 230.043C306.243 230.286 306.189 230.629 305.946 230.807L299.265 235.709C299.168 235.779 299.058 235.813 298.947 235.814Z" fill="#3D0100"/>
<path d="M311.34 242.825C311.114 242.827 310.9 242.687 310.82 242.463C310.718 242.178 310.867 241.865 311.15 241.764L319.105 238.926C319.389 238.828 319.701 238.973 319.804 239.257C319.905 239.542 319.757 239.855 319.473 239.956L311.519 242.794C311.459 242.814 311.4 242.824 311.34 242.825Z" fill="#3D0100"/>
<path d="M312.847 257.948C312.798 257.948 312.745 257.942 312.693 257.928L305.598 255.931C305.308 255.849 305.139 255.547 305.221 255.256C305.302 254.968 305.601 254.801 305.895 254.878L312.991 256.875C313.28 256.958 313.449 257.259 313.368 257.551C313.301 257.788 313.084 257.946 312.847 257.948Z" fill="#3D0100"/>
<path d="M315.743 270.892C315.654 270.893 315.563 270.873 315.48 270.827C315.213 270.684 315.114 270.352 315.258 270.088L319.004 263.139C319.148 262.873 319.482 262.773 319.743 262.917C320.009 263.059 320.109 263.392 319.965 263.656L316.219 270.605C316.12 270.786 315.935 270.891 315.743 270.892Z" fill="#3D0100"/>
<path d="M323.646 256.574C323.468 256.576 323.293 256.49 323.185 256.33C323.018 256.078 323.087 255.741 323.339 255.573L328.952 251.848C329.198 251.683 329.541 251.75 329.709 252.002C329.876 252.254 329.807 252.591 329.555 252.758L323.941 256.483C323.852 256.544 323.749 256.574 323.646 256.574Z" fill="#3D0100"/>
<path d="M260.69 279.767C260.574 279.767 260.458 279.731 260.358 279.657L254.231 275.07C253.989 274.888 253.94 274.546 254.122 274.306C254.303 274.064 254.645 274.016 254.886 274.196L261.013 278.784C261.255 278.965 261.304 279.307 261.122 279.548C261.017 279.689 260.854 279.765 260.69 279.767Z" fill="#3D0100"/>
<path d="M320.589 279.903C320.325 279.906 320.091 279.717 320.046 279.448C319.995 279.151 320.196 278.869 320.492 278.818L330.234 277.153C330.539 277.106 330.814 277.303 330.864 277.599C330.915 277.896 330.714 278.178 330.417 278.23L320.675 279.895C320.646 279.9 320.618 279.903 320.589 279.903Z" fill="#3D0100"/>
<path d="M358.674 308.65V381.885H236.826C233.873 377.093 231.428 371.971 229.512 366.749C227.381 360.843 225.816 354.664 225.914 348.367C225.972 344.886 226.539 341.464 227.498 338.159C227.654 337.534 227.849 336.927 228.065 336.321C230.431 329.144 234.596 322.456 239.328 316.472C241.46 313.774 243.709 311.251 246.055 308.905C246.505 308.455 246.975 307.985 247.443 307.536C251.804 303.39 256.498 299.812 261.464 296.839C262.012 296.507 262.559 296.174 263.126 295.88C265.12 294.746 267.134 293.709 269.207 292.771C270.127 292.341 271.065 291.95 272.024 291.578C276.971 289.564 282.115 288.058 287.414 287.119C288.039 287.002 288.646 286.904 289.272 286.806C294.806 285.965 300.458 285.711 306.187 286.062C306.206 286.043 306.226 286.043 306.226 286.043C306.245 286.024 306.265 286.043 306.265 286.043C307.126 286.083 308.006 286.16 308.867 286.298H308.925C313.521 286.689 318.175 287.51 322.829 288.742C324.373 289.153 325.919 289.583 327.443 290.053C328.187 290.287 328.91 290.522 329.653 290.776C337.377 293.338 344.789 296.819 351.242 301.747C351.555 301.981 351.848 302.216 352.161 302.49C352.728 302.92 353.295 303.389 353.862 303.898C355.565 305.365 357.188 306.968 358.674 308.65Z" fill="#7D977E"/>
<g opacity="0.28">
<path d="M358.674 308.65V381.885H236.826C233.873 377.093 231.428 371.971 229.512 366.749C227.381 360.843 225.816 354.664 225.914 348.367C225.972 344.886 226.539 341.464 227.498 338.159C227.654 337.534 227.849 336.927 228.065 336.321C230.431 329.144 234.596 322.456 239.328 316.472C241.46 313.774 243.709 311.251 246.055 308.905C246.505 308.455 246.975 307.985 247.443 307.536C251.804 303.39 256.498 299.812 261.464 296.839C262.012 296.507 262.559 296.174 263.126 295.88C265.12 294.746 267.134 293.709 269.207 292.771C270.127 292.341 271.065 291.95 272.024 291.578C276.971 289.564 282.115 288.058 287.414 287.119C288.039 287.002 288.646 286.904 289.272 286.806C294.806 285.965 300.458 285.711 306.187 286.062C306.206 286.043 306.226 286.043 306.226 286.043C306.245 286.024 306.265 286.043 306.265 286.043C307.126 286.083 308.006 286.16 308.867 286.298H308.925C313.521 286.689 318.175 287.51 322.829 288.742C324.373 289.153 325.919 289.583 327.443 290.053C328.187 290.287 328.91 290.522 329.653 290.776C337.377 293.338 344.789 296.819 351.242 301.747C351.555 301.981 351.848 302.216 352.161 302.49C352.728 302.92 353.295 303.389 353.862 303.898C355.565 305.365 357.188 306.968 358.674 308.65Z" fill="#822429"/>
</g>
<path d="M288.178 297.543C288.178 297.621 288.178 297.7 288.1 297.798C288.1 297.993 287.885 298.188 287.611 298.188C286.946 298.247 286.32 298.345 285.694 298.481C282.604 299.146 279.73 300.77 277.208 302.49C276.915 302.666 276.621 302.881 276.328 303.077C263.402 311.955 253.174 323.962 246.76 337.748C240.346 351.554 237.921 367.178 239.896 381.884H238.625C236.65 367.022 239.114 351.202 245.626 337.239C252.157 323.218 262.502 311.055 275.604 302.02C275.995 301.747 276.386 301.492 276.797 301.218C279.769 299.263 283.231 297.386 287.024 296.995C287.18 296.975 287.337 296.975 287.494 296.955C287.864 296.937 288.158 297.171 288.178 297.543Z" fill="#3D0100"/>
<path d="M312.778 381.885H311.526C307.165 357.401 300.263 331.882 290.641 304.798C289.82 302.471 288.959 300.144 288.1 297.798C288.1 297.739 288.1 297.72 288.08 297.68C287.905 297.837 287.767 297.993 287.611 298.188C285.694 300.301 283.954 302.608 282.37 305.131C277.208 313.246 273.707 323.474 271.947 335.715C269.717 351.045 270.343 366.592 272.494 381.885H271.203C269.091 366.534 268.466 350.948 270.695 335.539C272.455 323.316 275.916 313.051 281.06 304.857C282.468 302.569 284.012 300.437 285.694 298.481C286.105 297.973 286.555 297.464 287.024 296.995C287.258 296.702 287.532 296.429 287.787 296.155C287.826 296.136 287.845 296.096 287.864 296.077C288.021 295.921 288.236 295.862 288.451 295.901C288.549 295.901 288.627 295.96 288.686 296.018C288.803 296.077 288.882 296.175 288.92 296.292C289.957 299.069 290.954 301.826 291.912 304.564C301.533 331.706 308.456 357.324 312.778 381.885Z" fill="#3D0100"/>
<path d="M349.288 381.885H347.997C341.759 358.751 331.238 336.869 316.983 317.509C313.228 312.405 308.476 306.499 302.59 301.747C299.755 299.459 296.665 297.426 293.301 295.881C292.988 295.764 292.852 295.373 292.988 295.06C293.145 294.747 293.536 294.61 293.829 294.767C297.544 296.449 300.907 298.717 303.958 301.279C309.668 306.011 314.283 311.76 317.999 316.766C332.411 336.321 343.03 358.477 349.288 381.885Z" fill="#3D0100"/>
<path d="M358.674 329.633V331.765C356.582 328.831 354.392 326.074 352.123 323.473C340.038 309.667 324.785 300.105 309.102 296.271C305.621 295.411 302.101 294.844 298.62 294.589C298.268 294.57 298.014 294.257 298.033 293.925C298.052 293.573 298.346 293.318 298.698 293.338C301.944 293.592 305.21 294.081 308.436 294.844C324.706 298.559 340.546 308.356 353.061 322.652C354.997 324.862 356.875 327.188 358.674 329.633Z" fill="#3D0100"/>
<path d="M308.869 286.29C303.967 288.191 299.332 290.717 295.097 293.858C294.807 294.064 294.424 293.978 294.208 293.722C294.002 293.432 294.054 293.038 294.344 292.832C298.033 290.114 302.008 287.842 306.181 286.062C306.203 286.051 306.225 286.04 306.225 286.04C306.248 286.028 306.259 286.051 306.259 286.051C307.124 286.086 308.013 286.165 308.869 286.29Z" fill="#3D0100"/>
<path d="M288.792 295.887C288.77 295.955 288.737 296 288.693 296.023C288.648 296.102 288.571 296.171 288.503 296.204C288.347 296.285 288.156 296.298 287.975 296.222C287.907 296.2 287.84 296.178 287.794 296.146C281.865 293.797 275.524 292.68 269.207 292.764C270.124 292.349 271.075 291.945 272.015 291.574C277.604 291.779 283.204 292.939 288.456 295.07C288.773 295.19 288.934 295.559 288.792 295.887Z" fill="#3D0100"/>
<path d="M280.718 296.675C279 297.659 277.253 298.943 276.856 300.477C276.442 302.079 277.673 303.424 279.231 304.185C283.024 306.034 288.45 305.347 293.388 304.246C296.646 303.519 299.887 302.633 303.083 301.596C305.57 300.789 308.449 299.515 309.054 297.515C309.283 296.762 309.125 296.023 308.779 295.391C305.024 288.521 287.619 292.727 280.718 296.675Z" fill="#FFDFBA"/>
<path d="M250.443 311.42C250.271 311.421 250.099 311.376 249.943 311.282L240.114 305.275C239.67 305.002 239.529 304.421 239.8 303.979C240.073 303.532 240.656 303.397 241.096 303.665L250.924 309.673C251.369 309.946 251.51 310.526 251.238 310.968C251.063 311.257 250.758 311.417 250.443 311.42Z" fill="#3D0100"/>
<path d="M235.222 339.341C235.172 339.341 235.119 339.338 235.067 339.33L220.546 337.058C220.032 336.978 219.679 336.495 219.759 335.981C219.838 335.467 220.308 335.119 220.837 335.195L235.357 337.466C235.871 337.547 236.225 338.029 236.144 338.543C236.072 339.007 235.676 339.337 235.222 339.341Z" fill="#3D0100"/>
<path d="M261.383 343.198C260.941 343.202 260.545 342.897 260.45 342.449L257.717 329.422C257.611 328.913 257.938 328.413 258.448 328.306C258.952 328.198 259.456 328.527 259.564 329.037L262.298 342.065C262.403 342.574 262.077 343.073 261.567 343.181C261.505 343.192 261.444 343.197 261.383 343.198Z" fill="#3D0100"/>
<path d="M283.271 337.349C283.092 337.35 282.912 337.303 282.752 337.199C282.315 336.918 282.189 336.336 282.47 335.895L290.081 324.038C290.364 323.601 290.947 323.472 291.384 323.756C291.821 324.036 291.947 324.619 291.667 325.059L284.055 336.916C283.875 337.193 283.577 337.345 283.271 337.349Z" fill="#3D0100"/>
<path d="M312.976 324.949C312.807 324.951 312.637 324.908 312.481 324.814L303.087 319.182C302.643 318.917 302.497 318.336 302.766 317.89C303.031 317.441 303.61 317.295 304.059 317.568L313.453 323.2C313.897 323.465 314.042 324.046 313.774 324.493C313.6 324.784 313.292 324.946 312.976 324.949Z" fill="#3D0100"/>
<path d="M319.978 359.595C319.87 359.596 319.759 359.577 319.651 359.539C319.161 359.364 318.905 358.824 319.082 358.334L323.67 345.509C323.844 345.022 324.382 344.771 324.875 344.941C325.365 345.115 325.62 345.655 325.443 346.145L320.855 358.97C320.719 359.352 320.361 359.592 319.978 359.595Z" fill="#3D0100"/>
<path d="M265.05 300.537C264.78 300.539 264.511 300.426 264.322 300.205L257.92 292.672C257.583 292.275 257.63 291.681 258.027 291.344C258.424 291.004 259.019 291.055 259.356 291.451L265.758 298.984C266.095 299.381 266.047 299.975 265.65 300.312C265.476 300.462 265.263 300.535 265.05 300.537Z" fill="#3D0100"/>
<path d="M288.461 289.933C287.957 289.938 287.539 289.546 287.509 289.041L286.96 278.857C286.933 278.337 287.331 277.894 287.852 277.865C288.486 277.893 288.816 278.239 288.845 278.756L289.394 288.94C289.421 289.461 289.022 289.903 288.502 289.933C288.488 289.933 288.473 289.933 288.461 289.933Z" fill="#3D0100"/>
<path d="M323.819 294.831C323.527 294.834 323.236 294.702 323.05 294.446C322.742 294.027 322.834 293.437 323.253 293.128L334.777 284.673C335.194 284.365 335.784 284.452 336.095 284.876C336.403 285.296 336.311 285.885 335.892 286.194L324.367 294.65C324.202 294.771 324.011 294.829 323.819 294.831Z" fill="#3D0100"/>
<path d="M358.674 300.183V302.178L353.864 303.898L345.514 306.87C345.396 306.91 345.298 306.929 345.2 306.929C344.809 306.929 344.438 306.695 344.301 306.304C344.125 305.815 344.379 305.267 344.868 305.091L352.162 302.49L358.596 300.202C358.615 300.203 358.654 300.183 358.674 300.183Z" fill="#3D0100"/>
<path d="M347.797 333.011C347.71 333.012 347.62 333 347.531 332.977L335.291 329.533C334.791 329.39 334.499 328.87 334.639 328.368C334.779 327.871 335.295 327.584 335.804 327.716L348.044 331.161C348.543 331.303 348.836 331.823 348.696 332.326C348.579 332.736 348.204 333.007 347.797 333.011Z" fill="#3D0100"/>
<path d="M358.674 341.679V345.453L353.609 354.84C353.434 355.153 353.12 355.329 352.788 355.348C352.632 355.348 352.475 355.308 352.338 355.231C351.869 354.976 351.713 354.409 351.948 353.96L358.42 341.973C358.479 341.835 358.577 341.737 358.674 341.679Z" fill="#3D0100"/>
<path d="M107.574 258.276C107.052 259.919 106.392 261.501 105.612 263.038C105.405 263.473 105.182 263.91 104.941 264.334C100.839 271.839 93.9986 277.879 85.9489 280.85C85.7513 280.929 85.5361 280.994 85.336 281.057C85.0623 281.163 84.786 281.254 84.508 281.328C78.219 283.385 71.4602 283.743 64.8279 283.662C63.5687 283.645 62.292 283.615 61.0102 283.553C60.7515 283.545 60.492 283.536 60.2174 283.53C52.2279 283.109 44.1782 281.763 37.2101 278.223C36.9498 278.101 36.7028 277.962 36.4566 277.823C34.6868 276.885 32.9705 275.778 31.3748 274.509C25.7279 270.026 21.8399 263.774 19.5493 256.909C19.345 256.312 19.1566 255.713 18.9842 255.111L18.9817 255.095C17.73 250.809 17.0728 246.303 16.959 241.875C16.8652 237.895 17.1674 233.869 18.4927 230.107C20.9633 223.093 26.7292 217.717 32.9688 213.653C40.1437 208.964 47.877 206.235 55.6939 205.425C56.3285 205.36 56.9807 205.309 57.6195 205.275C64.9091 204.805 72.2589 206 79.2504 208.844C79.2663 208.842 79.2814 208.839 79.2814 208.839C79.2973 208.837 79.2998 208.853 79.2998 208.853C79.813 209.048 80.3312 209.275 80.8193 209.523L80.8536 209.533C83.5293 210.703 86.164 212.136 88.7075 213.808C94.2581 217.453 99.4379 221.831 103.163 227.333C109.201 236.267 110.868 248.012 107.574 258.276Z" fill="#7D977E"/>
<path d="M66.1222 212.109C66.1138 212.158 66.0895 212.21 66.0309 212.252C65.9849 212.372 65.8191 212.445 65.6492 212.391C65.2473 212.291 64.8505 212.223 64.4402 212.173C62.2133 211.934 59.9101 212.464 57.8891 213.046C48.3366 215.78 39.7837 220.938 33.1539 227.929C26.3993 235.051 21.7361 244.156 20.0349 253.565C19.8339 254.675 19.6832 255.793 19.5476 256.909C19.3433 256.312 19.155 255.713 18.9825 255.111L18.98 255.095C19.0712 254.533 19.1466 253.974 19.2537 253.411C20.9834 243.868 25.7061 234.625 32.572 227.389C39.3132 220.286 47.985 215.061 57.6739 212.274C60.065 211.585 62.8696 210.963 65.537 211.554C65.6358 211.571 65.7379 211.604 65.8375 211.621C66.0569 211.683 66.185 211.889 66.1222 212.109Z" fill="#3D0100"/>
<path d="M66.8212 211.518C67.6542 238.338 65.7546 262.033 61.0093 283.553C60.7506 283.545 60.4911 283.536 60.2165 283.53C64.899 262.228 66.8212 238.788 66.0309 212.251C66.0418 212.218 66.0393 212.202 66.0342 212.17C65.8994 212.238 65.7814 212.305 65.6491 212.39C59.0185 216.111 53.3112 222.605 48.689 231.769C41.4212 246.17 38.6618 262.457 37.2076 278.223C36.9472 278.101 36.7002 277.962 36.4541 277.823C37.9125 262.088 40.7079 245.827 47.974 231.41C52.4724 222.492 58.0063 216.023 64.4402 212.172C64.7943 211.957 65.1635 211.74 65.5378 211.554C65.7437 211.426 65.9673 211.311 66.1757 211.199C66.1916 211.196 66.2209 211.176 66.236 211.174C66.3549 211.107 66.5014 211.117 66.6236 211.179C66.6755 211.203 66.7166 211.261 66.74 211.306C66.7969 211.361 66.8246 211.437 66.8212 211.518Z" fill="#3D0100"/>
<path d="M85.336 281.056C85.0623 281.162 84.786 281.253 84.5081 281.327C86.4738 264.066 84.75 246.482 79.4111 229.903C77.5785 224.24 74.8124 217.108 69.543 212.148C69.3772 212.012 69.3705 211.755 69.5221 211.587C69.6761 211.435 69.9323 211.428 70.0847 211.581C75.483 216.651 78.3002 223.902 80.163 229.658C85.4993 246.223 87.2549 263.802 85.336 281.056Z" fill="#3D0100"/>
<path d="M105.613 263.038C105.406 263.473 105.183 263.91 104.942 264.334C104.074 255.398 102.212 247.548 99.309 240.567C93.8396 227.455 84.2494 217.196 72.9881 212.444C72.7822 212.362 72.6968 212.118 72.7805 211.928C72.8617 211.722 73.0878 211.623 73.2937 211.704C84.745 216.54 94.4884 226.953 100.036 240.262C102.85 246.983 104.695 254.513 105.613 263.038Z" fill="#3D0100"/>
<path d="M80.8185 209.522C77.4923 209.677 74.1987 210.26 71.0224 211.294C70.8072 211.359 70.5937 211.23 70.5159 211.034C70.4506 210.819 70.5611 210.592 70.7762 210.526C73.5398 209.636 76.3847 209.072 79.2488 208.844C79.2647 208.841 79.2797 208.839 79.2797 208.839C79.2956 208.836 79.2981 208.852 79.2981 208.852C79.8122 209.048 80.3304 209.275 80.8185 209.522Z" fill="#3D0100"/>
<path d="M66.8271 211.244C66.8003 211.28 66.771 211.301 66.74 211.306C66.6982 211.344 66.6371 211.37 66.5902 211.377C66.4797 211.394 66.3625 211.364 66.2695 211.282C66.2335 211.255 66.1975 211.228 66.1766 211.199C63.0881 208.596 59.5049 206.647 55.6931 205.426C56.3277 205.361 56.9799 205.31 57.6187 205.276C60.9349 206.525 64.0643 208.349 66.7903 210.686C66.956 210.821 66.9786 211.076 66.8271 211.244Z" fill="#3D0100"/>
<path d="M61.819 210.091C60.5891 210.336 59.2814 210.756 58.7339 211.597C58.1621 212.476 58.6309 213.533 59.4137 214.303C61.3192 216.178 64.7166 216.857 67.9046 217.191C70.0077 217.41 72.1325 217.53 74.2615 217.551C75.9184 217.567 77.9025 217.382 78.6694 216.302C78.9583 215.895 79.0127 215.42 78.9323 214.97C78.0599 210.088 66.7593 209.109 61.819 210.091Z" fill="#FFDFBA"/>
<path d="M40.6662 212.852C40.5624 212.819 40.4686 212.757 40.3941 212.669L35.6999 207.081C35.4881 206.828 35.5207 206.451 35.7719 206.24C36.0256 206.026 36.4031 206.062 36.6133 206.312L41.3075 211.9C41.5193 212.154 41.4866 212.531 41.2355 212.742C41.0714 212.879 40.8554 212.913 40.6662 212.852Z" fill="#3D0100"/>
<path d="M25.9012 226.558C25.8719 226.549 25.8401 226.535 25.8108 226.52L17.5459 222.232C17.2537 222.081 17.139 221.719 17.2905 221.427C17.4412 221.134 17.7937 221.02 18.0959 221.171L26.36 225.46C26.6522 225.612 26.7677 225.973 26.6153 226.265C26.4797 226.529 26.175 226.647 25.9012 226.558Z" fill="#3D0100"/>
<path d="M40.8377 234.142C40.5715 234.056 40.3957 233.793 40.4283 233.504L41.4095 225.129C41.4489 224.802 41.7453 224.568 42.0734 224.606C42.3983 224.643 42.6344 224.941 42.5967 225.27L41.6155 233.645C41.5761 233.972 41.2798 234.206 40.9516 234.168C40.9131 234.163 40.8754 234.154 40.8377 234.142Z" fill="#3D0100"/>
<path d="M15.7953 262.649C15.6078 262.588 15.4529 262.433 15.401 262.227C15.3198 261.908 15.5131 261.583 15.8338 261.503L24.1498 259.407C24.4654 259.325 24.7936 259.518 24.8739 259.84C24.9551 260.159 24.7618 260.484 24.4411 260.564L16.1251 262.659C16.013 262.688 15.8991 262.683 15.7953 262.649Z" fill="#3D0100"/>
<path d="M55.1632 235.036C55.0552 235 54.9572 234.936 54.8811 234.841C54.6751 234.585 54.717 234.209 54.974 234.002L61.9328 228.412C62.1907 228.207 62.5666 228.247 62.7726 228.505C62.9785 228.762 62.9367 229.137 62.6805 229.345L55.7208 234.934C55.5575 235.064 55.3474 235.096 55.1632 235.036Z" fill="#3D0100"/>
<path d="M55.0803 258.695C54.9932 258.667 54.9112 258.617 54.8417 258.549L47.5538 251.233C47.3211 250.999 47.3219 250.622 47.5555 250.388C47.7882 250.153 48.165 250.158 48.4002 250.39L55.6881 257.706C55.9208 257.941 55.9191 258.317 55.6864 258.551C55.5223 258.714 55.2862 258.762 55.0803 258.695Z" fill="#3D0100"/>
<path d="M48.9788 275.256C48.849 275.214 48.7318 275.127 48.6548 275C48.4823 274.721 48.5694 274.352 48.8507 274.18L57.3082 268.979C57.5903 268.806 57.9578 268.893 58.1286 269.175C58.3011 269.455 58.214 269.824 57.9327 269.996L49.4753 275.196C49.3204 275.292 49.1387 275.308 48.9788 275.256Z" fill="#3D0100"/>
<path d="M75.5014 233.569C75.3992 233.536 75.3055 233.476 75.2318 233.388L70.7234 228.114C70.5099 227.865 70.5392 227.486 70.7904 227.272C71.0407 227.056 71.4166 227.085 71.6318 227.339L76.1402 232.614C76.3536 232.862 76.3243 233.241 76.0732 233.455C75.9099 233.596 75.6922 233.631 75.5014 233.569Z" fill="#3D0100"/>
<path d="M72.7311 255.788C72.6658 255.767 72.603 255.734 72.5461 255.689C72.2874 255.485 72.2422 255.109 72.4473 254.851L77.7853 248.071C77.9879 247.813 78.3622 247.77 78.6234 247.972C78.8829 248.176 78.9273 248.551 78.7222 248.81L73.3841 255.59C73.2259 255.792 72.9622 255.864 72.7311 255.788Z" fill="#3D0100"/>
<path d="M78.8645 277.058C78.7682 277.027 78.6795 276.972 78.6075 276.893L72.6792 270.398C72.4574 270.155 72.4741 269.777 72.7177 269.554C72.963 269.332 73.3406 269.353 73.5617 269.593L79.4899 276.088C79.7118 276.332 79.695 276.709 79.4514 276.932C79.2864 277.081 79.0604 277.122 78.8645 277.058Z" fill="#3D0100"/>
<path d="M51.6301 209.256C51.4677 209.204 51.3288 209.081 51.2601 208.911L48.931 203.097C48.8079 202.791 48.957 202.443 49.2634 202.32C49.5698 202.196 49.9172 202.346 50.0403 202.652L52.3694 208.466C52.4925 208.772 52.3434 209.12 52.037 209.243C51.9014 209.297 51.7591 209.298 51.6301 209.256Z" fill="#3D0100"/>
<path d="M67.8276 207.6C67.5245 207.502 67.3521 207.183 67.4358 206.874L69.1562 200.647C69.245 200.328 69.5732 200.143 69.8913 200.23C70.2664 200.374 70.3945 200.648 70.3082 200.965L68.5878 207.192C68.499 207.51 68.1708 207.696 67.8527 207.609C67.8435 207.606 67.8351 207.603 67.8276 207.6Z" fill="#3D0100"/>
<path d="M88.0787 217.662C87.9029 217.605 87.7547 217.467 87.6945 217.275C87.594 216.961 87.7681 216.625 88.0821 216.525L96.707 213.766C97.0193 213.665 97.3558 213.837 97.4571 214.154C97.5576 214.468 97.3834 214.804 97.0695 214.904L88.4446 217.663C88.3207 217.703 88.1943 217.7 88.0787 217.662Z" fill="#3D0100"/>
<path d="M98.4844 229.23C98.2491 229.153 98.0767 228.934 98.0716 228.674C98.0658 228.343 98.3278 228.07 98.6568 228.064L107.885 227.887C108.213 227.883 108.486 228.143 108.494 228.472C108.5 228.803 108.238 229.076 107.909 229.081L98.6819 229.259C98.6116 229.26 98.5463 229.25 98.4844 229.23Z" fill="#3D0100"/>
<path d="M94.7931 245.423C94.7412 245.406 94.6893 245.381 94.6408 245.348L87.9825 240.815C87.7112 240.629 87.6401 240.257 87.8251 239.984C88.0093 239.714 88.3768 239.645 88.6556 239.827L95.3139 244.36C95.5851 244.546 95.6563 244.918 95.4713 245.191C95.3189 245.415 95.0384 245.502 94.7931 245.423Z" fill="#3D0100"/>
<path d="M93.2979 259.839C93.205 259.809 93.1171 259.757 93.0476 259.68C92.8215 259.439 92.8333 259.06 93.0744 258.836L99.3693 252.938C99.6104 252.712 99.9922 252.726 100.212 252.965C100.438 253.205 100.427 253.584 100.186 253.808L93.8915 259.706C93.7257 259.86 93.4972 259.905 93.2979 259.839Z" fill="#3D0100"/>
<path d="M106.459 247.749C106.274 247.689 106.122 247.538 106.067 247.336C105.981 247.017 106.17 246.691 106.489 246.605L113.599 244.695C113.912 244.609 114.242 244.798 114.33 245.117C114.416 245.436 114.227 245.762 113.908 245.848L106.798 247.758C106.683 247.79 106.565 247.785 106.459 247.749Z" fill="#3D0100"/>
<path d="M33.1764 249.914C33.0551 249.874 32.9479 249.797 32.87 249.685L28.1155 242.804C27.9272 242.532 27.9958 242.16 28.2671 241.973C28.5383 241.786 28.9101 241.855 29.0976 242.125L33.8521 249.006C34.0396 249.278 33.9718 249.65 33.7005 249.837C33.5415 249.947 33.3464 249.969 33.1764 249.914Z" fill="#3D0100"/>
<path d="M95.1891 270.859C94.9137 270.769 94.737 270.493 94.7839 270.199C94.8341 269.873 95.1397 269.651 95.4654 269.701L106.137 271.359C106.47 271.416 106.686 271.715 106.635 272.04C106.585 272.366 106.279 272.588 105.954 272.538L95.2829 270.881C95.2494 270.875 95.2184 270.869 95.1891 270.859Z" fill="#3D0100"/>
<path d="M172.313 381.885H-6.79246C-6.79246 352.024 -7.16418 322.124 -7.47729 292.224C-4.01629 292.537 -0.593793 293.574 2.41763 295.236C10.4355 299.675 15.9109 307.79 18.9809 316.434C26.0796 304.857 40.8043 299.01 54.2582 301.043C67.6929 303.058 79.5042 312.19 86.4069 323.903C93.2904 335.617 95.5785 349.657 94.5613 363.209C108.015 350.088 129.976 349.168 147.4 356.267C155.32 359.474 162.809 364.304 167.718 371.305C169.927 374.473 171.531 378.111 172.313 381.885Z" fill="#822429"/>
</g>
<circle cx="177.5" cy="177.5" r="177.5" fill="black" fill-opacity="0.36"/>
</svg>
