<svg width="276" height="276" viewBox="0 0 276 276" fill="none" xmlns="http://www.w3.org/2000/svg">
<path d="M95.3153 140.572C90.3768 134.272 87.9077 125.978 87.9077 115.687C87.9077 104.347 90.8497 95.58 96.7337 89.385C101.882 83.8199 108.712 81.0375 117.223 81.0375C125.944 81.0375 132.669 83.7675 137.397 89.2275C141.495 93.9525 143.544 100.252 143.544 108.127V124.192C143.544 132.172 141.179 138.525 136.451 143.25C131.723 147.87 125.261 150.233 117.065 150.337H97.049C85.491 150.337 79.712 156.322 79.712 168.292V194.437L69.1522 199.95V167.977C69.1522 159.262 71.7265 152.438 76.875 147.502C81.4983 142.988 87.645 140.677 95.3153 140.572ZM132.984 123.247V109.072C132.984 96.7875 127.73 90.645 117.223 90.645C111.234 90.645 106.558 92.85 103.196 97.26C99.9385 101.67 98.3098 107.76 98.3098 115.53C98.3098 123.405 99.8859 129.547 103.038 133.957C106.19 138.367 110.551 140.572 116.12 140.572C127.362 140.572 132.984 134.798 132.984 123.247Z" fill="#FF0000"/>
<path d="M181.685 140.572C186.623 134.272 189.092 125.978 189.092 115.687C189.092 104.347 186.151 95.58 180.266 89.385C175.118 83.8199 168.288 81.0375 159.777 81.0375C151.056 81.0375 144.332 83.7675 139.603 89.2275C135.505 93.9525 133.457 100.252 133.457 108.127V124.192C133.457 132.172 135.821 138.525 140.549 143.25C145.277 147.87 151.739 150.233 159.935 150.337H179.951C191.509 150.337 197.288 156.322 197.288 168.292V194.437L207.848 199.95V167.977C207.848 159.262 205.273 152.438 200.125 147.502C195.502 142.988 189.355 140.677 181.685 140.572ZM144.016 123.247V109.072C144.016 96.7875 149.27 90.645 159.777 90.645C165.766 90.645 170.442 92.85 173.804 97.26C177.061 101.67 178.69 107.76 178.69 115.53C178.69 123.405 177.114 129.547 173.962 133.957C170.81 138.367 166.45 140.572 160.88 140.572C149.637 140.572 144.016 134.798 144.016 123.247Z" fill="#FF0000"/>
<path d="M69.9402 83.7938L72.0679 79.2263L79.8695 77.8088C78.9764 76.6538 78.5299 75.2888 78.5299 73.7138C78.5299 71.9813 79.0552 70.5376 80.1059 69.3825C81.2092 68.1751 82.5489 67.5713 84.125 67.5713C85.7536 67.5713 87.0933 68.1488 88.144 69.3038C89.2473 70.4588 89.7989 71.9288 89.7989 73.7138C89.7989 75.6563 89.2473 77.3363 88.144 78.7538C87.0407 80.1713 85.6223 81.0113 83.8886 81.2738L69.9402 83.7938ZM84.2826 76.47C85.3858 75.7351 85.9375 74.7638 85.9375 73.5563C85.9375 72.0338 85.3333 71.2725 84.125 71.2725C82.9691 71.2725 82.3913 72.0338 82.3913 73.5563C82.3913 74.9213 83.0217 75.8926 84.2826 76.47Z" fill="#FF0000"/>
<circle cx="138" cy="138" r="132" stroke="#FF0000" stroke-width="12"/>
</svg>
