<svg xmlns="http://www.w3.org/2000/svg" version="1.1" xmlns:xlink="http://www.w3.org/1999/xlink" xmlns:svgjs="http://svgjs.com/svgjs" width="512" height="512" x="0" y="0" viewBox="0 0 55 55" style="enable-background:new 0 0 512 512" xml:space="preserve" class=""><g><path fill="#a5c0dd" d="M46.116 49.8c-1.25.547-2.991.913-4.548.865-1.731-.054-3.514.205-5.245.319-2.96.186-5.91.324-8.87.493-.451.024-.912.048-1.342-.03-.43-.078-.83-.283-.892-.541-.05-.253.236-.499.584-.637.6-.241 1.542-.282 3.155-.74.927-.255.971-.646.072-.883-1.311-.336-2.643-.246-3.923.06-1.363.319-2.817.553-4.23.794-2.961.51-6.065.913-9.159.625-3.71-.342-6.687-1.973-3.708-4.165.86-.65 2.049-1.208 3.053-1.593 2.513-.955 3.79-.929 15.283-2.536 6.765.224 13.209 1.388 18.387 3.06 1.506.498 2.96 1.153 3.37 2.127.43 1.033-.533 2.145-1.987 2.782z" data-original="#a5c0dd"></path><path fill="#248144" d="M12.422 10.783h2.612v28.251h-2.612z" data-original="#28b6f4" class="" opacity="1"></path><path fill="#095da4" d="M15.037 10.783v7.18c-.912.882-1.414 2.183-1.486 3.463-.12 1.923.627 3.938 1.486 5.654v11.954h-2.612v-28.25z" data-original="#095da4" class=""></path><path d="M15.037 10.783v6.884a5.63 5.63 0 0 0-2.612 1.72v-7.825a6.823 6.823 0 0 1 1.618-.779h.994z" fill="#000000" data-original="#000000" class=""></path><path fill="#2ff787" d="M31.546 20.181v2.387H24.14V20.18c0-.358.286-.655.655-.655h6.095c.369 0 .656.297.656.655z" data-original="#ffca28" class="" opacity="1"></path><path fill="#08a94e" d="M31.546 21.492v1.076H24.14V20.18c0-.358.286-.655.655-.655h1.127c-.02.01-.03.02-.051.03-.872.649-.897 1.765.194 2.264 1.707.711 5.377-.306 5.48-.328z" data-original="#ff9f1c" class="" opacity="1"></path><path fill="#19345d" d="M18.269 42.727v4.64c0 .594-.482 1.065-1.065 1.065H15.38a1.058 1.058 0 0 1-1.065-1.065v-4.64z" data-original="#19345d" class="" opacity="1"></path><path d="M18.269 42.901v1.424c-1.461-.422-3.064 1.123-3.954.727v-1.915a2.75 2.75 0 0 1 .492-.41h3.226c.082.051.164.102.236.174z" fill="#000000" data-original="#000000" class=""></path><path fill="#095da4" d="M18.269 44.827v2.54c0 .594-.482 1.065-1.065 1.065h-1.107c-.256-.819-.092-1.761.43-2.427.441-.553 1.076-.891 1.742-1.178z" data-original="#095da4" class=""></path><path fill="#08a94e" d="M44.729 31.254c-.704 1.357-2.98.834-4.251.758l.297-.901h1.127c.061-.246-.041-.543-.051-.8-.02-.245.05-.542.286-.644.113-.062.256-.052.39-.021.02-.01.04 0 .061 0 .635.113 1.29.225 1.844.553.154.082.307.195.379.348.087.225.026.49-.082.707z" data-original="#f72f43" class="" opacity="1"></path><path fill="#21e23f" d="M44.729 31.254c-.704 1.357-2.98.834-4.251.758l.297-.901h1.127c.061-.246-.041-.543-.051-.8-.02-.245.05-.542.286-.644.113-.062.256-.052.39-.021-.01 0-.01.01-.01.01-.135.24-.294.98-.113 1.342.242.507 1.373.859 2.325.256z" data-original="#e2212e" class="" opacity="1"></path><path fill="#08a94e" d="M14.941 31.982c-1.167.07-3.716.67-4.312-.892-.072-.174-.103-.389-.02-.563.242-.555 1.658-.801 2.222-.901.154-.031.307-.052.45.01 0 0 .01 0 .01.01.216.102.288.39.277.645-.02.246-.112.553-.05.8h1.116z" data-original="#f72f43" class="" opacity="1"></path><path fill="#21e23f" d="M14.941 31.982c-1.178.071-2.438.399-3.513-.072.968-.039 1.648-.862 1.792-1.772.03-.164.041-.328.072-.492.215.102.287.39.276.645-.02.246-.112.554-.05.8h1.116z" data-original="#e2212e" class="" opacity="1"></path><path fill="#19345d" d="M41.82 42.727v4.64c0 .594-.482 1.065-1.065 1.065H38.93a1.058 1.058 0 0 1-1.065-1.065v-4.64z" data-original="#19345d" class="" opacity="1"></path><path d="M41.82 42.901v1.424c-1.461-.422-3.064 1.123-3.954.727v-1.915a2.75 2.75 0 0 1 .492-.41h3.226c.082.051.164.102.236.174z" fill="#000000" data-original="#000000" class=""></path><path fill="#08a94e" d="M41.502 34.399H13.947c2.002-9.725 1.769-9.442 2.18-10.117.687-1.132 2.36-1.923 4.202-1.923h14.792c1.934 0 4.188.976 4.518 2.687z" data-original="#f72f43" class="" opacity="1"></path><path fill="#2ff787" d="M43.09 36.345v4.979H12.36v-4.979a4.863 4.863 0 0 1 4.691-4.865c.01-.01.01 0 .01 0 .107-.018-1.222-.01 21.163-.01a4.875 4.875 0 0 1 4.866 4.875z" data-original="#ffca28" class="" opacity="1"></path><path fill="#08a94e" d="M40.765 32.186c-.287.205-.625.349-.943.502-2.295 1.097-4.1 2.993-4.788 4.344-1.1 2.166-.785 3.225-1.633 3.82-.636.447-1.191.312-9.886.134-1.758-.06-2.066-.576-2.12-2.141-.131-3.138-1.39-6.233-4.334-7.365.108-.018 21.28-.01 21.163-.01.933 0 1.803.266 2.54.716z" data-original="#ff9f1c" class="" opacity="1"></path><path fill="#095da4" d="M44.105 41.349v1.504c0 .635-.512 1.147-1.146 1.147H12.494a1.136 1.136 0 0 1-1.136-1.147V41.35c0-.635.502-1.137 1.136-1.137H42.96c.634 0 1.146.502 1.146 1.137z" data-original="#095da4" class=""></path><path fill="#248144" d="M42.856 40.212c-.52 1.347-1.694 1.569-3.142 1.648-1.894.093-3.788.093-5.692.093-18.451-.034-18.167.083-19.204-.307-.645-.256-1.228-.768-1.382-1.434z" data-original="#28b6f4" class="" opacity="1"></path><path fill="#19345d" d="M36.563 29.465H18.327c-.638 0-.999-.779-.711-1.488l1.403-3.387c.152-.385.49-.637.845-.637h15.189c.355 0 .682.252.842.637.103.25 1.313 3.235 1.377 3.387.294.71-.07 1.488-.71 1.488z" data-original="#19345d" class="" opacity="1"></path><path fill="#095da4" d="M32.056 39.055h-7.85a.919.919 0 0 1-.894-.705l-.91-3.8a.919.919 0 0 1 .894-1.133h9.67a.919.919 0 0 1 .893 1.133l-.91 3.8a.919.919 0 0 1-.893.705zM41.646 36.55c-.159.237-.316.095-4.067.738-.277.05-.584.164-.87.112-.226-.04-.441-.143-.523-.368-.156-.45-.021-.92.195-1.158.376-.377.998-.713 1.495-.912.673-.236 1.685-.391 2.397-.46.328-.042.697-.103.994.102.529.37.73 1.41.379 1.946z" data-original="#095da4" class=""></path><path fill="#19345d" d="M41.646 36.55c-.159.237-.316.095-4.067.738-.277.05-.584.164-.87.112-.226-.04-.441-.143-.523-.368-.156-.45-.021-.92.195-1.158.23-.23.715-.58 1.178-.758-.236.246-.4.553-.492.87-.137.6.107.75.512.78.772.056 2.225-.183 2.756-.38.358-.133.706-.348.911-.676.123-.174.226-.4.43-.44.01 0 .031-.01.041-.01.154.44.144.962-.071 1.29z" data-original="#19345d" class="" opacity="1"></path><path d="M41.338 35.638a1.03 1.03 0 1 1-2.06-.01 1.03 1.03 0 0 1 2.06.01zM38.276 36.263c0 .373-.311.697-.697.697a.696.696 0 0 1-.686-.697c0-.379.307-.686.686-.686.38 0 .697.307.697.686z" fill="#000000" data-original="#000000" class=""></path><path fill="#f2f8fd" d="M41.308 35.874c-.103.45-.513.789-1.004.789-.533 0-.973-.41-1.014-.932a1.023 1.023 0 0 1 1.014-.943c.642 0 1.102.592 1.004 1.086zM38.265 36.355a.696.696 0 0 1-.686.605.686.686 0 0 1-.676-.605.687.687 0 0 1 .676-.604c.338 0 .625.236.676.574.01.01.01.02.01.03z" data-original="#f2f8fd" class=""></path><path fill="#d0dcee" d="M41.308 35.874c-.103.45-.513.789-1.004.789-.533 0-.973-.41-1.014-.932.03-.38.276-.717.614-.86-.197.625.224 1.333.83 1.27.205-.031.4-.144.574-.267zM38.265 36.355a.696.696 0 0 1-.686.605.686.686 0 0 1-.676-.605.648.648 0 0 1 .266-.46c.058.314.28.608.594.624.175.01.349-.092.492-.194.01.01.01.02.01.03z" data-original="#d0dcee" class=""></path><path fill="#095da4" d="M14.634 36.632c.184.123.522.113.706.143.433.073 1.679.24 3.268.513.39.072 1.18.327 1.393-.256.156-.45.022-.92-.194-1.158-.231-.23-.716-.58-1.178-.758-.468-.327-2.085-.553-2.715-.615-.328-.04-.697-.102-.994.103-.204.143-.358.379-.45.655-.242.693-.015 1.284.164 1.373z" data-original="#095da4" class=""></path><path fill="#19345d" d="M14.634 36.632c.184.123.522.113.706.143.433.073 1.679.24 3.268.513.39.072 1.18.327 1.393-.256.156-.45.022-.92-.194-1.158-.231-.23-.716-.58-1.178-.758.235.246.4.553.491.87.137.6-.107.75-.512.78-.553.04-1.096-.042-1.639-.124-.732-.118-1.614-.27-2.028-.932-.123-.174-.225-.4-.43-.44-.01 0-.031-.01-.041-.01-.242.692-.015 1.283.164 1.372z" data-original="#19345d" class="" opacity="1"></path><path d="M14.849 35.638a1.03 1.03 0 1 0 2.06-.01 1.03 1.03 0 0 0-2.06.01zM17.912 36.263c0 .373.31.697.696.697a.696.696 0 0 0 .686-.697.686.686 0 0 0-.686-.686.695.695 0 0 0-.696.686z" fill="#000000" data-original="#000000" class=""></path><path fill="#f2f8fd" d="M14.88 35.874c.102.45.512.789 1.003.789.533 0 .973-.41 1.014-.932a1.023 1.023 0 0 0-1.014-.943c-.642 0-1.102.592-1.003 1.086zM17.922 36.355a.696.696 0 0 0 .686.605.686.686 0 0 0 .676-.605.687.687 0 0 0-.676-.604.674.674 0 0 0-.676.574c-.01.01-.01.02-.01.03z" data-original="#f2f8fd" class=""></path><path fill="#d0dcee" d="M14.88 35.874c.102.45.512.789 1.003.789.533 0 .973-.41 1.014-.932a1.036 1.036 0 0 0-.614-.86c.197.625-.224 1.333-.83 1.27-.205-.031-.4-.144-.573-.267zM17.922 36.355a.696.696 0 0 0 .686.605.686.686 0 0 0 .676-.605.648.648 0 0 0-.266-.46c-.057.314-.28.608-.594.624-.174.01-.349-.092-.492-.194-.01.01-.01.02-.01.03z" data-original="#d0dcee" class=""></path><path d="M32.416 34.624c0 .031 0 .072-.02.103a.397.397 0 0 1-.39.307h-7.774a.397.397 0 0 1-.39-.307c-.02-.031-.02-.072-.02-.103 0-.225.185-.41.41-.41h7.775c.225 0 .41.185.41.41zM32.416 36.058c0 .031 0 .072-.02.103a.397.397 0 0 1-.39.307h-7.774a.397.397 0 0 1-.39-.307c-.02-.03-.02-.072-.02-.103 0-.225.185-.41.41-.41h7.775a.41.41 0 0 1 .41.41zM32.396 37.585a.389.389 0 0 1-.39.307h-7.774a.389.389 0 0 1-.39-.307c-.02-.031-.02-.062-.02-.093 0-.225.185-.41.41-.41h7.775c.326 0 .477.37.389.503z" fill="#000000" data-original="#000000" class=""></path><path fill="#19345d" d="M32.396 34.727a.397.397 0 0 1-.39.307h-7.774a.397.397 0 0 1-.39-.307.397.397 0 0 1 .39-.308h7.775c.194 0 .348.134.389.308zM32.396 36.16a.397.397 0 0 1-.39.308h-7.774a.397.397 0 0 1-.39-.307.389.389 0 0 1 .39-.307h7.775c.194 0 .358.133.389.307zM32.396 37.585a.389.389 0 0 1-.39.307h-7.774a.389.389 0 0 1-.39-.307.397.397 0 0 1 .39-.308h7.775c.194 0 .348.134.389.308z" data-original="#19345d" class="" opacity="1"></path><path d="M40.457 42.665c0 .216-.174.38-.379.38-5.471-.011-5.114.024-5.224-.031-.02-.01-.02-.02-.02-.02a.343.343 0 0 1-.205-.329v-1.157c0-.205.164-.38.369-.38h5.08a.39.39 0 0 1 .338.216c.07.114.032.14.041 1.321z" fill="#000000" data-original="#000000" class=""></path><path fill="#19345d" d="M40.457 42.665c0 .216-.174.38-.379.38-5.471-.011-5.114.024-5.224-.031-.02-.01-.02-.02-.02-.02-.056-.14-.022-.175-.03-1.312 0-.205.163-.379.368-.379 5.422.01 5.124-.031 5.244.041.07.114.032.14.041 1.321z" data-original="#19345d" class="" opacity="1"></path><path d="M20.518 42.665c0 .216-.174.38-.379.38-5.471-.011-5.114.024-5.224-.031-.02-.01-.02-.02-.02-.02a.343.343 0 0 1-.205-.329v-1.157c0-.205.163-.38.368-.38h5.081a.39.39 0 0 1 .338.216c.069.114.032.14.041 1.321z" fill="#000000" data-original="#000000" class=""></path><path fill="#19345d" d="M20.518 42.665c0 .216-.174.38-.379.38-5.471-.011-5.114.024-5.224-.031-.02-.01-.02-.02-.02-.02-.056-.14-.022-.175-.031-1.312 0-.205.164-.379.368-.379 5.423.01 5.125-.031 5.245.041.069.114.032.14.041 1.321z" data-original="#19345d" class="" opacity="1"></path><path d="M36.563 29.465H18.327c-.638 0-.999-.779-.711-1.488l1.403-3.387c.152-.385.49-.637.845-.637h5.833c-1.049.334-3.377 1.307-4.026 2.174-.581.777-.472 1.699.797 2.132 2.226.702 4.602.594 6.935.463 1.763-.107 3.512-.226 5.265-.368 1.941-.125 1.938-.702 2.348-1.009l.256.632c.294.71-.07 1.488-.71 1.488z" fill="#000000" data-original="#000000" class=""></path><path fill="#21e23f" d="M39.548 24.723c-.01 0-.01-.01-.02-.01-.422-.255-.786-.607-1.197-.88-1.19-.802-2.574-.845-3.891-.866-13.604-.18-14.025-.294-15.583.043-.945.204-1.903.594-2.73 1.272.687-1.132 2.36-1.923 4.202-1.923h14.792c2.081 0 3.935.996 4.427 2.364z" data-original="#e2212e" class="" opacity="1"></path><path fill="#095da4" d="M41.82 44.827v2.54c0 .594-.482 1.065-1.065 1.065h-1.107c-.256-.819-.092-1.761.43-2.427.44-.553 1.076-.891 1.742-1.178z" data-original="#095da4" class=""></path><path fill="#21e23f" d="M38.18 27.32c.348.547.93.37.829-.29-.102-.654-.609-1.089-.798-1.08-.489.022-.167 1.156-.031 1.37zM38.442 29.236c.216.34.578.23.515-.18-.063-.406-.378-.676-.496-.67-.303.013-.104.717-.02.85z" data-original="#e2212e" class="" opacity="1"></path><path fill="#08a94e" d="M39.68 38.982c.019-.1-.04-.196-.103-.274a1.621 1.621 0 0 0-1.056-.585c-.541-.065-.345.621-.08.837.229.185 1.163.441 1.24.022zM41.12 38.279c.015-.079-.031-.155-.082-.217a1.285 1.285 0 0 0-.836-.464c-.43-.052-.274.493-.064.663.181.147.922.35.983.018z" data-original="#ff9f1c" class="" opacity="1"></path><path fill="#248144" d="M21.05 10.373c0 3.765-3.048 6.874-6.874 6.874-5.614 0-8.753-6.314-5.654-10.776A6.864 6.864 0 0 1 14.176 3.5c3.8 0 6.874 3.083 6.874 6.873z" data-original="#28b6f4" class="" opacity="1"></path><circle cx="14.176" cy="10.375" r="4.97" fill="#f2f8fd" data-original="#f2f8fd" class=""></circle><path fill="#095da4" d="M20.599 12.811a6.857 6.857 0 0 1-6.423 4.436c-5.614 0-8.753-6.314-5.654-10.776-.982 3.817.41 7.192 2.766 8.87 1.772 1.26 4.271 1.547 6.187.492 1.27-.696 2.181-1.885 3.124-3.022z" data-original="#095da4" class=""></path><path d="M13.2 14.64a.512.512 0 0 1-.511-.513V7.344c0-.283.229-.512.512-.512.995 0 2.18-.279 3.168.414 2.39 1.67.045 4.674-2.656 4.46v2.421c0 .283-.23.512-.512.512zm.513-3.963c1.569.184 2.774-1.132 2.613-1.9-.067-.318-.37-.57-.544-.691-.55-.386-1.33-.284-2.07-.245z" fill="#000000" data-original="#000000" class=""></path><path fill="#08a94e" d="M13.312 14.528a.512.512 0 0 1-.512-.512V7.233c0-.283.229-.512.512-.512.995 0 2.18-.279 3.169.414 2.39 1.67.045 4.674-2.657 4.46v2.42c0 .284-.229.513-.512.513zm.512-3.962c1.569.183 2.775-1.133 2.613-1.9-.067-.318-.37-.57-.544-.692-.55-.386-1.33-.283-2.069-.245v2.837z" data-original="#f72f43" class="" opacity="1"></path><path fill="#d0dcee" d="M46.116 49.8c-1.25.547-2.991.913-4.548.865-1.731-.054-3.514.205-5.245.319-2.96.186-5.91.324-8.87.493-.451.024-.912.048-1.342-.03-.43-.078-.83-.283-.892-.541-.05-.253.236-.499.584-.637.6-.241 1.542-.282 3.155-.74.927-.255.971-.646.072-.883-1.311-.336-2.643-.246-3.923.06-1.363.319-2.817.553-4.23.794-2.961.51-6.065.913-9.159.625-3.71-.342-6.687-1.973-3.708-4.165-.065.458.336.953.656 1.292 1.937 2.045 4.338 2.596 7.13 2.644 1.26.018 2.079-.378 3.134-.733 2.766-.914 5.86-1.484 9.014-1.647 1.138-.052 3.587-.043 3.79 1.088.07.335-.381 1.19.584 1.304.481.066.901-.228 1.024-.51.123-.29.082-.596.297-.86.216-.264.871-.445 1.21-.228.143.096.184.228.235.354.369.92 1.936 1.587 3.544 1.629 2.605.068 5.477-1.256 5.675-3.858.03-.523.01-1.112.43-1.545 1.506.499 2.96 1.154 3.37 2.128.43 1.033-.533 2.145-1.987 2.782z" data-original="#d0dcee" class=""></path><path fill="#095da4" d="M19.684 8.512c.033.395.285 1.138.666 1.024.374-.111.37-1.108-.394-1.339-.176-.053-.268.008-.263.193.005.198.04.396.105.583M18.964 6.93c.014.18.105.456.227.548.323.245.469-.563-.073-.726-.1-.03-.152.004-.15.11.004.112.024.224.06.33" data-original="#095da4" class=""></path></g></svg>